<?xml version="1.0" standalone="no"?>
<!DOCTYPE svg PUBLIC "-//W3C//DTD SVG 1.1//EN" "http://www.w3.org/Graphics/SVG/1.1/DTD/svg11.dtd" >
<svg>
<metadata>
Created by FontForge 20090914 at Mon Aug 24 15:01:14 2015
 By www-data
&#194;&#169; 2009 Microsoft Corporation. All Rights Reserved.
</metadata>
<defs>
<font id="SegoePrint-Bold" horiz-adv-x="1447" >
  <font-face 
    font-family="Segoe Print"
    font-weight="700"
    font-stretch="normal"
    units-per-em="2048"
    panose-1="2 0 8 0 0 0 0 0 0 0"
    ascent="1638"
    descent="-410"
    x-height="1050"
    cap-height="1497"
    bbox="-386 -1014 2848 2600"
    underline-thickness="102"
    underline-position="-103"
    unicode-range="U+0020-U+FB02"
  />
<missing-glyph horiz-adv-x="1020" 
d="M229 180h562v1171h-562v-1171zM29 0v1532h962v-1532h-962z" />
    <glyph glyph-name=".notdef" horiz-adv-x="1020" 
d="M229 180h562v1171h-562v-1171zM29 0v1532h962v-1532h-962z" />
    <glyph glyph-name="space" unicode=" " horiz-adv-x="819" 
 />
    <glyph glyph-name="exclam" unicode="!" horiz-adv-x="660" 
d="M362 479c-66.667 0 -118.333 13.6719 -155 41.0049c-10.667 130 -1.33398 263.667 27.999 401c32.667 148.667 49 260 49 334c0 7.33301 3.5 35.166 10.5 83.499s28.167 85.166 63.5 110.499s65.333 38 90 38c26.667 0 52.167 -9.83301 76.5 -29.5
s36.5 -41.167 36.5 -64.5c0 -18.667 -13.5 -87.834 -40.5 -207.501s-53.833 -229.834 -80.5 -330.501c-28 -104.667 -42.667 -188.334 -44 -251.001c-1.33301 -47.333 -12.666 -89 -33.999 -125zM220.001 19.0049c-73.333 0 -110 40.667 -110 122c0 30.667 15 66 45 106
s62.333 60 97 60c22.667 0 51 -11 85 -33s51 -40.667 51 -56l-10 -62c-6 -44 -27.667 -77.833 -65 -101.5s-68.333 -35.5 -93 -35.5z" />
    <glyph glyph-name="quotedbl" unicode="&#x22;" horiz-adv-x="823" 
d="M207 773c-37.333 0 -64.001 13.667 -80.001 41s-24 56.333 -24 87c0 16.667 3 35.667 9 57c14.667 56 27.334 120 38.001 192c1.33301 10 14 79.333 38 208l6 33c10.667 66.667 43.667 100 99 100c26.667 0 50.5 -11.833 71.5 -35.5s31.5 -47.167 31.5 -70.5
c0 -92 -14.667 -178.667 -44 -260c-11.333 -32 -17.333 -56 -18 -72c-8 -114.667 -20 -190 -36 -226s-46.333 -54 -91 -54zM583.999 756c-71.333 0 -107 42.668 -107 128.001c0 39.333 11.667 102 35 188c20.667 70.667 33 115.667 37 135c20.667 141.333 38.5 224 53.5 248
s41.5 36 79.5 36c30 0 55.833 -10.333 77.5 -31s32.5 -41.667 32.5 -63c0 -6 -8.33301 -48.667 -25 -128l-27 -125c-6.66699 -34.667 -12 -67.334 -16 -98.001c-20 -140 -37.833 -223.333 -53.5 -250s-44.5 -40 -86.5 -40z" />
    <glyph glyph-name="numbersign" unicode="#" horiz-adv-x="1628" 
d="M1113 853c-9.33301 -38 -26.6699 -99.6621 -52.0029 -184.995c-6 -20 -10.667 -36.667 -14 -50c161.333 34 247.666 51 258.999 51c80.667 0 128.5 -15.167 143.5 -45.5s22.5 -58.5 22.5 -84.5c0 -21.333 -11.167 -40.5 -33.5 -57.5s-48.166 -25.5 -77.499 -25.5
c-9.33301 0 -25.666 4.66699 -48.999 14s-38.333 14 -45 14c-32 0 -73.667 -5.33301 -125 -16c-52 -11.333 -99 -17 -141 -17l-34 -97c-10 -25.333 -15 -46.666 -15 -63.999l4 -53c0 -32 -10.167 -60.833 -30.5 -86.5s-46.166 -38.5 -77.499 -38.5
c-24 0 -45.5 14.333 -64.5 43s-28.5 54 -28.5 76c0 61.333 9.66699 114.333 29 159c4 9.33301 6 16.666 6 21.999l-217 -32c-58.667 -196 -115.667 -294 -171 -294c-23.333 0 -42.5 7.16699 -57.5 21.5s-22.5 31.166 -22.5 50.499c0 71.333 17.333 144.666 52 219.999l-29 1
l-144 -4c-112 0 -168 27.333 -168 82c0 25.333 19.333 50.166 58 74.499s75.334 36.5 110.001 36.5c23.333 0 65 -2 125 -6c59.333 -4.66699 93.666 -7 102.999 -7c12 33.333 21.333 68.333 28 105c12.667 53.333 23.334 91.333 32.001 114
c-22.667 -2 -67.334 -8.66699 -134.001 -20c-59.333 -10 -106.666 -15 -141.999 -15c-104 0 -156 26 -156 78c0 50.667 63.333 84.334 190 101.001c34 4 66.333 9 97 15c79.333 15.333 137.333 23.666 174 24.999c29.333 28.667 61.333 88.667 96 180
c22 60.667 44 102.167 66 124.5s51.667 33.5 89 33.5c43.333 0 65 -24 65 -72c0 -41.333 -24.333 -111.666 -73 -210.999c-6.66699 -14 -11.667 -26 -15 -36c17.333 3.33301 95 13.333 233 30c7.33301 22 18.333 67.667 33 137c36.667 176.667 61 272 73 286
c23.333 32.667 54.333 49 93 49c26.667 0 48 -8.83301 64 -26.5s24 -38.167 24 -61.5c0 -25.333 -16.667 -82 -50 -170c-11.333 -29.333 -19.333 -56 -24 -80c-3.33301 -14.667 -9 -32.334 -17 -53.001c-6.66699 -26.667 -12.334 -46.334 -17.001 -59.001
c118 18 210.333 27 277 27c59.333 0 96.833 -7.33301 112.5 -22s23.5 -38.334 23.5 -71.001c0 -18 -6.16699 -35.833 -18.5 -53.5s-28.166 -26.5 -47.499 -26.5c-183.333 0 -314 -10 -392 -30zM900.996 753.005c10 29.333 16.999 55.002 20.999 77.002
c-112.667 -10.667 -193 -22.334 -241 -35.001c-27.333 -66.667 -49.666 -141 -66.999 -223c27.333 2 49.333 3.33301 66 4c84 3.33301 141.667 13.666 173 30.999z" />
    <glyph glyph-name="dollar" unicode="$" horiz-adv-x="1120" 
d="M750 1063l-10.002 -92.0029c-13.333 -104 -20 -167 -20 -189c22.667 -18.667 68 -45 136 -79c38 -20 64.5 -44.5 79.5 -73.5s22.5 -67.5 22.5 -115.5c0 -106.667 -96 -190.667 -288 -252l-25 -288c0 -12 3.33301 -38 10 -78s10 -63.667 10 -71
c0 -16.667 -11.167 -31.834 -33.5 -45.501s-45.5 -20.5 -69.5 -20.5c-80.667 0 -121 42.667 -121 128l19 288c-15.333 -3.33301 -31.333 -6 -48 -8s-33.334 -4.66699 -50.001 -8c-99.333 -30 -170.333 -45 -213 -45c-36 0 -68.667 7.83301 -98 23.5s-44 33.834 -44 54.501
c0 52.667 21.5 90.334 64.5 113.001s124.5 39.334 244.5 50.001c106.667 9.33301 160 24.333 160 45c20 159.333 30 258 30 296c-37.333 18 -71.666 32.667 -102.999 44c-72 26 -120.167 48.333 -144.5 67s-47.833 43.5 -70.5 74.5s-34 67.833 -34 110.5
s40.167 86.834 120.5 132.501s173.833 76.834 280.5 93.501c1.33301 13.333 2 29 2 47v212c0 30 18.333 53.333 55 70c20.667 13.333 46.334 20 77.001 20c68 0 102 -45 102 -135c0 -17.333 -7.66699 -68.333 -23 -153c-3.33301 -16.667 -5 -26 -5 -28h40
c32.667 0 61.334 3.33301 86.001 10c18 5.33301 38 8 60 8c68.667 0 103 -34.667 103 -104c0 -46.667 -15.5 -75.334 -46.5 -86.001s-116.167 -16 -255.5 -16zM537.998 1027c-72 -17.333 -119.669 -38.332 -143.002 -62.999c4.66699 -6.66699 26.334 -20.834 65.001 -42.501
s60.334 -32.5 65.001 -32.5zM685.996 463.998c6.66699 7.33301 22.667 17.333 48 30c19.333 10 29 18.667 29 26c0 2.66699 -0.666992 6 -2 10c-1.33301 3.33301 -3.33301 6.66602 -6 9.99902c-2 4 -5.33301 8.66699 -10 14c-4 4 -8 8.33301 -12 13
s-8.33301 9.33398 -13 14.001c-4 3.33301 -8 7 -12 11l-6 5l-1 1c-8 -60 -13 -104.667 -15 -134z" />
    <glyph glyph-name="percent" unicode="%" horiz-adv-x="1491" 
d="M1115 1158c-44 -82 -106.332 -182.002 -186.999 -300.002l1 1c-4 -8.66699 -31.667 -52 -83 -130c-92 -139.333 -170 -281.333 -234 -426c-34 -76.667 -64.333 -142 -91 -196c-36 -47.333 -68.333 -71 -97 -71c-58.667 0 -88 31.667 -88 95c0 32 26.333 112.333 79 241
s120 250 202 364c12 16 101 156.667 267 422c-65.333 14.667 -101.333 21.667 -108 21s-37.334 -1 -92.001 -1c5.33301 -23.333 8 -45.666 8 -66.999c0 -58 -19.5 -120 -58.5 -186s-90.667 -116.333 -155 -151s-122.5 -52 -174.5 -52c-61.333 0 -109 20.833 -143 62.5
s-51 98.5 -51 170.5c0 28 15.333 84.333 46 169s81.5 152.5 152.5 203.5s148.167 76.5 231.5 76.5c36.667 0 73.667 -17.667 111 -53c67.333 -9.33301 233 -23.666 497 -42.999c20 -26 30 -46.667 30 -62c0 -34.667 -21 -64 -63 -88zM478.001 1198h-18
c-44 0 -82.5 -28.5 -115.5 -85.5s-49.5 -107.5 -49.5 -151.5c0 -19.333 7.66699 -36 23 -50c24 -12 46.333 -18 67 -18c24.667 0 50.167 20.167 76.5 60.5s39.5 79.833 39.5 118.5c0 24 -7.66699 66 -23 126zM1401 382.998c0 -31.333 -5.50293 -65.002 -16.5029 -101.002
s-31.5 -66.167 -61.5 -90.5s-63.667 -48.666 -101 -72.999s-73.666 -40.666 -108.999 -48.999s-73.666 -12.5 -114.999 -12.5c-86 0 -142.5 25.167 -169.5 75.5s-40.5 95.833 -40.5 136.5c0 74 29.333 152.667 88 236s119.334 125 182.001 125
c91.333 0 171.333 -22.833 240 -68.5s103 -105.167 103 -178.5zM1089 459.996c-24.667 0 -47 -23.167 -67 -69.5s-26 -97.5 -18 -153.5l15 1l56 -4c12 0 48.333 21.667 109 65c13.333 21.333 20 46.333 20 75c0 21.333 -26.667 43.333 -80 66c-13.333 5.33301 -25 12 -35 20
z" />
    <glyph glyph-name="ampersand" unicode="&#x26;" horiz-adv-x="1795" 
d="M1228 252c70 -49.333 141.333 -74.0029 214 -74.0029c26 0 57.667 7 95 21c6 2 13 3 21 3c40 0 60 -26.667 60 -80c0 -30 -19.833 -65.5 -59.5 -106.5s-89.167 -61.5 -148.5 -61.5c-128 0 -251.333 44.667 -370 134c-148 -106 -305.333 -159 -472 -159
c-119.333 0 -215.833 34.5 -289.5 103.5s-110.5 159.167 -110.5 270.5c0 177.333 109 335 327 473c15.333 9.33301 23 21 23 35c0 8.66699 -3 21.334 -9 38.001c-32.667 88.667 -49 172.334 -49 251.001c0 116 34.5 212 103.5 288s156.5 114 262.5 114
c86.667 0 155.5 -32 206.5 -96s76.5 -137.333 76.5 -220c0 -138.667 -87.667 -275.334 -263 -410.001c-21.333 -16 -32 -32.333 -32 -49c0 -34.667 35.333 -97.667 106 -189s124 -150.333 160 -177c80 85.333 131 168.333 153 249l-37 4
c-60.667 4.66699 -101.5 17.834 -122.5 39.501s-31.5 50.834 -31.5 87.501c0 25.333 10.667 48.166 32 68.499s42.333 30.5 63 30.5c16.667 0 48.667 -7 96 -21c47.333 -14.667 99 -22 155 -22c52 0 105.333 3.33301 160 10c54 6.66699 90.333 10 109 10c52 0 78 -21 78 -63
c0 -78 -53 -121 -159 -129c-38.667 -3.33301 -65 -8.16602 -79 -14.499s-25.667 -18.5 -35 -36.5c-71.333 -136 -149.333 -243.333 -234 -322zM728 909.997c108.667 86.667 163.001 176.665 163.001 269.998c0 34.667 -8.5 64.834 -25.5 90.501s-37.5 38.5 -61.5 38.5
c-30.667 0 -57.834 -18.333 -81.501 -55s-35.5 -80 -35.5 -130c0 -75.333 13.667 -146.666 41 -213.999zM891.001 224.995c-106 108 -200 236.334 -282 385.001c-126 -86.667 -189 -186 -189 -298c0 -54.667 19.333 -97.334 58 -128.001s91.667 -46 159 -46
c85.333 0 170 29 254 87z" />
    <glyph glyph-name="quotesingle" unicode="'" horiz-adv-x="469" 
d="M129 1116c10.667 73.333 33.668 151.832 69.001 235.499s77 125.5 125 125.5c31.333 0 55.666 -10 72.999 -30s26 -44 26 -72c0 -19.333 -8 -47.666 -24 -84.999c-11.333 -24 -22.333 -55.333 -33 -94c-4 -14 -10.333 -34.667 -19 -62c-20 -68 -30 -134 -30 -198
c0 -87.333 -9.16699 -143 -27.5 -167s-44.833 -36 -79.5 -36c-32 0 -58.5 16 -79.5 48s-31.5 67 -31.5 105c0 46 10.333 122.667 31 230z" />
    <glyph glyph-name="parenleft" unicode="(" horiz-adv-x="819" 
d="M261 404c0 -22 3.33398 -45.001 10.001 -69.001c6 -24 10.667 -52 14 -84v1l22 -120c20 -93.333 47 -171.166 81 -233.499s78 -116.166 132 -161.499c77.333 -65.333 116 -118.666 116 -159.999c0 -26 -12.667 -46.667 -38 -62s-57 -23 -95 -23
c-25.333 0 -57.833 13.167 -97.5 39.5s-88.834 77.666 -147.501 153.999s-98.167 140.5 -118.5 192.5s-41.333 138 -63 258s-32.5 220.333 -32.5 301c0 98 4 170 12 216s25.5 104.833 52.5 176.5s68 160.667 123 267s88.167 166.333 99.5 180s52.666 53.167 123.999 118.5
l85 80c37.333 35.333 69.666 59.666 96.999 72.999s62 20 104 20c53.333 0 80 -26.333 80 -79c0 -22.667 -22.333 -55 -67 -97c-79.333 -74.667 -149.666 -146.667 -210.999 -216s-125.166 -172 -191.499 -308s-99.5 -260 -99.5 -372c0 -18 3 -48.667 9 -92z" />
    <glyph glyph-name="parenright" unicode=")" horiz-adv-x="741" 
d="M204 -508c-34 0 -63.3311 10 -87.998 30s-37 41 -37 63c0 30.667 41 97 123 199c54 64.667 107.167 164.334 159.5 299.001s78.5 218 78.5 250c0 112.667 -8.83301 219.667 -26.5 321s-50.834 209.833 -99.501 325.5s-89.5 200.667 -122.5 255
s-92.833 121.166 -179.5 200.499c-16 15.333 -24 35.333 -24 60c0 17.333 13.167 36.833 39.5 58.5s54.166 32.5 83.499 32.5c63.333 0 143 -70.833 239 -212.5s154 -247.167 174 -316.5c6.66699 -23.333 14.667 -48.333 24 -75c41.333 -123.333 69.5 -222.5 84.5 -297.5
s22.5 -167.833 22.5 -278.5c0 -125.333 -21.5 -243.5 -64.5 -354.5s-91.5 -202.833 -145.5 -275.5c-57.333 -76 -91.333 -124 -102 -144c-27.333 -56 -50.833 -93.333 -70.5 -112s-42.5 -28 -68.5 -28z" />
    <glyph glyph-name="asterisk" unicode="*" horiz-adv-x="1049" 
d="M968 1066l2.00098 0.00488281c-7.33301 -2.66699 -93.333 -9.33398 -258 -20.001c-35.333 -2.66699 -53.333 -4.66699 -54 -6l131 -157c42.667 -50.667 64 -86.334 64 -107.001c0 -24.667 -9.33301 -46.667 -28 -66s-41 -29 -67 -29c-38.667 0 -75 27 -109 81
c-38.667 42 -78 93 -118 153c-8.66699 12 -20.334 24.667 -35.001 38c-1.33301 -2 -2.66602 -3.66699 -3.99902 -5l-4 -6c-12.667 -28.667 -37.334 -77.334 -74.001 -146.001s-64.834 -113 -84.501 -133s-38.5 -30 -56.5 -30c-18.667 0 -41.667 11.167 -69 33.5
s-41 46.166 -41 71.499c0 7.33301 18.667 39.5 56 96.5s75.333 109.5 114 157.5c-46.667 0 -92.667 -6 -138 -18c-66 -18 -105.667 -27 -119 -27c-17.333 0 -31.666 9.66699 -42.999 29s-17 35.666 -17 48.999c0 34 24.333 60.5 73 79.5s92.334 28.5 131.001 28.5
c68 0 116 2.33301 144 7c-4.66699 6.66699 -17 21.667 -37 45l-26 30c-50.667 66.667 -76 114.667 -76 144c0 14 7.83301 28.833 23.5 44.5s31.167 23.5 46.5 23.5c47.333 0 115.666 -59.667 204.999 -179c60.667 66 116 132.667 166 200c21.333 28.667 47.666 43 78.999 43
c27.333 0 50.666 -7.16699 69.999 -21.5s29 -32.166 29 -53.499c0 -18 -14.333 -39.333 -43 -64c-7.33301 -6.66699 -13.666 -13.667 -18.999 -21c-35.333 -64 -70 -109.667 -104 -137c20.667 4 43.334 7 68.001 9c24.667 1.33301 49.334 5.66602 74.001 12.999
c51.333 10 94.333 15 129 15c29.333 0 50.666 -13.333 63.999 -40s20 -47 20 -61c0 -32.667 -21.667 -54 -65 -64z" />
    <glyph glyph-name="plus" unicode="+" horiz-adv-x="1165" 
d="M1090 497c-18.667 -24.667 -58.335 -37.002 -119.002 -37.002c-12 0 -40.667 2.33301 -86 7s-75.666 7 -90.999 7h-179c-8 -31.333 -12 -66 -12 -104c0 -123.333 -1.66699 -191.666 -5 -204.999c-2.66699 -10 -4 -21.333 -4 -34s-5.83301 -24.5 -17.5 -35.5
s-35.5 -16.5 -71.5 -16.5c-42 0 -70 7 -84 21s-21 40.667 -21 80l30 295c-85.333 4.66699 -140.666 4.66699 -165.999 0l-85 -15c-28.667 0 -53.5 9.66699 -74.5 29s-31.5 41 -31.5 65c0 18.667 8.33301 38.5 25 59.5s36.334 31.5 59.001 31.5c20 0 56.667 -3.66699 110 -11
l145 7h33c2.66699 14.667 4 30 4 46c0 28 -3 82 -9 162c-2.66699 29.333 -4 51.333 -4 66c0 110 36.333 165 109 165c26 0 47.667 -13.833 65 -41.5s26 -50.5 26 -68.5c0 -29.333 -2.66699 -74.666 -8 -135.999c-6 -61.333 -9 -98.333 -9 -111v-51c0 -6 0.666992 -14 2 -24
l33 -1l264 4c67.333 0 114.166 -8.33301 140.499 -25s39.5 -54 39.5 -112z" />
    <glyph glyph-name="comma" unicode="," horiz-adv-x="696" 
d="M137 -129c30.667 5.33301 74.502 21.8359 131.502 49.5029s93.333 63 109 106s23.5 65.5 23.5 67.5c0 57.333 -6.66699 95.666 -20 114.999c-12.667 19.333 -19 36.666 -19 51.999c0 18.667 7.33301 39.5 22 62.5s33 34.5 55 34.5c22.667 0 52.5 -7.66699 89.5 -23
s58.333 -28.833 64 -40.5s14.167 -37.334 25.5 -77.001s17 -74.5 17 -104.5c0 -12.667 -13.833 -50.667 -41.5 -114s-63.834 -111.333 -108.501 -144s-89 -53 -133 -61c-8.66699 -1.33301 -15.334 -2.66602 -20.001 -3.99902c-75.333 -27.333 -126 -41 -152 -41
c-44 0 -66 24.333 -66 73c0 17.333 7.66699 33.666 23 48.999z" />
    <glyph glyph-name="hyphen" unicode="-" horiz-adv-x="1309" 
d="M518 682c154 0 264.333 4.33203 331 12.999c28 4 57.667 6 89 6c15.333 0 46.333 -8.33301 93 -25s74.667 -34.167 84 -52.5s14 -35.166 14 -50.499c0 -62 -38.667 -93 -116 -93c-8.66699 0 -41.667 7 -99 21c-11.333 2.66699 -19.333 4 -24 4l-91 -6
c-14 0 -65 3.33301 -153 10c-27.333 2 -110.333 -0.666992 -249 -8c-78.667 -4 -131.5 0.333008 -158.5 13s-40.5 36 -40.5 70c0 36 24.167 63.167 72.5 81.5s106.5 27.5 174.5 27.5c16 0 40.333 -3.66699 73 -11z" />
    <glyph glyph-name="period" unicode="." horiz-adv-x="510" 
d="M212 26c-40 0 -69.5 7.83203 -88.5 23.499s-28.5 56.834 -28.5 123.501c0 37.333 1.66699 65.833 5 85.5s19.5 35.167 48.5 46.5s70.833 17 125.5 17c40.667 0 71.667 -9.5 93 -28.5s32 -39.833 32 -62.5c0 -37.333 -5.83301 -66 -17.5 -86s-37 -44.833 -76 -74.5
s-70.167 -44.5 -93.5 -44.5z" />
    <glyph glyph-name="slash" unicode="/" horiz-adv-x="1174" 
d="M394 318c-25.333 -35.333 -65.999 -104 -121.999 -206c-30.667 -57.333 -66.834 -112.5 -108.501 -165.5s-72.167 -79.5 -91.5 -79.5c-27.333 0 -52.833 12 -76.5 36s-35.5 46.667 -35.5 68c0 38 42 125.333 126 262s169.333 264 256 382
c17.333 20.667 81.666 117 192.999 289c10 16 16.333 25.667 19 29c28 40 81.333 122 160 246c100.667 158 175.334 265 224.001 321s89 84 121 84c24.667 0 50 -14.667 76 -44s39 -54.333 39 -75c0 -15.333 -23.833 -61.5 -71.5 -138.5s-94.667 -145 -141 -204
l-137.5 -182.5z" />
    <glyph glyph-name="zero" unicode="0" horiz-adv-x="1492" 
d="M367 -24c-110 0 -197.169 37 -261.502 111s-96.5 168.333 -96.5 283c0 130.667 39.5 274 118.5 430s196.5 286.167 352.5 390.5s296 156.5 420 156.5c92.667 0 192.334 -31.833 299.001 -95.5s177.834 -131.167 213.501 -202.5s53.5 -162 53.5 -272
c0 -176 -114.167 -353.5 -342.5 -532.5s-480.5 -268.5 -756.5 -268.5zM1048 1092c-18 -11.333 -42.6689 -16.999 -74.002 -16.999c-8 0 -23.333 7.33301 -46 22c-23.333 14 -38.666 21 -45.999 21c-68.667 0 -125.167 -12.167 -169.5 -36.5s-102.333 -70.833 -174 -139.5
s-134.167 -148.334 -187.5 -239.001s-80 -185 -80 -283c0 -39.333 4.83301 -76.333 14.5 -111s20.834 -57.167 33.501 -67.5s34.5 -21 65.5 -32s64.833 -16.5 101.5 -16.5c72.667 0 169.5 33.667 290.5 101s226.333 146 316 236s134.5 162.333 134.5 217
c0 30.667 -5.5 69 -16.5 115s-21 76.167 -30 90.5s-29.333 38 -61 71s-55.5 55.833 -71.5 68.5z" />
    <glyph glyph-name="one" unicode="1" horiz-adv-x="1492" 
d="M903 133l2.99805 -39.0049c4 -52.667 -52.333 -79 -169 -79c-22.667 0 -44.667 16 -66 48c-4 6 -7 9 -9 9c-12.667 0 -65.334 -15 -158.001 -45c-19.333 -6.66699 -33.666 -10.667 -42.999 -12c-76.667 -24.667 -134.334 -37 -173.001 -37
c-40.667 0 -73.5 11.667 -98.5 35s-37.5 47 -37.5 71c0 32.667 19.333 59.334 58 80.001s109.334 40 212.001 58c108 21.333 178.333 38.666 211 51.999c3.33301 34.667 6 69.667 8 105c6.66699 114.667 41.334 348.334 104.001 701.001
c-5.33301 -1.33301 -61.666 -33 -168.999 -95c-97.333 -56.667 -187.666 -85 -270.999 -85c-54.667 0 -82 23.333 -82 70c0 29.333 9.16699 51.833 27.5 67.5s52.5 33.834 102.5 54.501c60 24 136.333 62.333 229 115l149 86c91.333 58 150 87 176 87
c36.667 0 64.667 -17.667 84 -53s29 -66 29 -92c0 -21.333 -10 -43 -30 -65c-48 -205.333 -79.5 -369.166 -94.5 -491.499s-22.5 -242.5 -22.5 -360.5c36.667 4.66699 123 24.334 259 59.001c81.333 20.667 164.666 31 249.999 31c23.333 -46.667 35 -78 35 -94
c0 -23.333 -5.33301 -41.666 -16 -54.999s-36.667 -26.833 -78 -40.5s-111 -27.167 -209 -40.5c-102.667 -15.333 -173 -30.333 -211 -45z" />
    <glyph glyph-name="two" unicode="2" horiz-adv-x="1492" 
d="M538 237c78.667 19.333 201.328 28.998 367.995 28.998c30.667 0 83.334 -4.66699 158.001 -14s124 -14 148 -14c22.667 0 48.334 6.33301 77.001 19c28 12.667 57.667 19 89 19c22.667 0 44.667 -11.5 66 -34.5s32 -43.167 32 -60.5c0 -54 -28.833 -94.333 -86.5 -121
s-113.834 -40 -168.501 -40c-70 0 -118.667 4 -146 12c-94.667 26.667 -219 40 -373 40c-73.333 0 -141.166 -5.83301 -203.499 -17.5s-107.666 -24.5 -135.999 -38.5s-55.166 -35.333 -80.499 -64c-30 -34.667 -69.333 -52 -118 -52c-75.333 0 -113 31.667 -113 95
c0 56 19.167 108.833 57.5 158.5s114.833 107.834 229.5 174.501c151.333 87.333 269.333 165.833 354 235.5s153.667 143.667 207 222s80 138.5 80 180.5c0 48.667 -18.833 90.5 -56.5 125.5s-85.5 52.5 -143.5 52.5c-26 0 -74.833 -21.167 -146.5 -63.5
s-130.167 -89.833 -175.5 -142.5c-30.667 -35.333 -78.667 -53 -144 -53c-25.333 0 -48.166 16.333 -68.499 49s-30.5 61.667 -30.5 87c0 28.667 26 60 78 94c16.667 10.667 36.334 24 59.001 40c111.333 80 198.166 133.667 260.499 161s143.833 41 244.5 41
c90 0 176 -39.167 258 -117.5s123 -160.166 123 -245.499c0 -114 -65.5 -244 -196.5 -390s-298.5 -268.333 -502.5 -367z" />
    <glyph glyph-name="three" unicode="3" horiz-adv-x="1492" 
d="M495 587c-80.667 0 -121.002 23.334 -121.002 70.001c0 26 9.5 53.833 28.5 83.5s88.167 90.667 207.5 183s228 163.833 326 214.5c-14 0 -106.667 -15 -278 -45c-167.333 -30 -261.666 -45 -282.999 -45c-135.333 0 -203 60 -203 180c0 27.333 10.167 49 30.5 65
s45.5 24 75.5 24c22 0 54 -10 96 -30c27.333 -13.333 54 -20 80 -20c31.333 0 79.666 3.33301 144.999 10c165.333 16 308.666 26.667 429.999 32c76 3.33301 130.333 -2.5 163 -17.5s49 -43.5 49 -85.5c0 -36.667 -15.333 -70.834 -46 -102.501
s-109.667 -82.167 -237 -151.5c-102.667 -56 -164.667 -96.333 -186 -121c14.667 1.33301 38.334 4 71.001 8c36.667 4 64 6 82 6c137.333 0 243.333 -26.667 318 -80s112 -128.666 112 -225.999c0 -150 -93.667 -279 -281 -387s-382.666 -162 -585.999 -162
c-108 0 -197 12 -267 36s-105 71.333 -105 142c0 80.667 44.333 121 133 121c12 0 26 -4 42 -12c94.667 -47.333 174.334 -71 239.001 -71c140.667 0 272.667 27.833 396 83.5s185 130.5 185 224.5c0 53.333 -27.333 90.666 -82 111.999s-132.667 32 -234 32
c-115.333 0 -215.333 -23.667 -300 -71z" />
    <glyph glyph-name="four" unicode="4" horiz-adv-x="1492" 
d="M1308 464c-64 23.333 -138.666 35 -223.999 35h-46c-12.667 -52 -20.667 -111 -24 -177l-1 -40c-0.666992 -38 0.333008 -86 3 -144c33.333 -36.667 50 -64 50 -82c0 -30 -14.333 -58.833 -43 -86.5s-57.334 -41.5 -86.001 -41.5c-47.333 0 -86.5 11.333 -117.5 34
s-46.5 67.667 -46.5 135c0 24 2.33301 64.667 7 122l9 117c3.33301 58.667 9 110 17 154c-140.667 0 -255.667 -11 -345 -33c-102.667 -26 -189.334 -39 -260.001 -39c-44.667 0 -92.667 29.667 -144 89c25.333 76 166.666 221.667 423.999 437l412 340c12 8 28 20 48 36
c88 68.667 145 103 171 103c77.333 0 116 -23.667 116 -71l-54 -196c-38 -116 -66.667 -240.333 -86 -373c-5.33301 -34 -10.666 -65.333 -15.999 -94l184 -7c85.333 0 141.833 -11.333 169.5 -34s41.5 -60 41.5 -112c0 -22 -9.66699 -41.833 -29 -59.5
s-41.666 -26.5 -66.999 -26.5s-46.333 4.66699 -63 14zM937.001 1086l-66.001 -51.001c-95.333 -71.333 -159.333 -124.666 -192 -159.999c-43.333 -47.333 -139.666 -128.333 -288.999 -243c52 6 131.333 17 238 33c111.333 16.667 184 26 218 28
c2.66699 17.333 17.667 82 45 194z" />
    <glyph glyph-name="five" unicode="5" horiz-adv-x="1492" 
d="M710 1065c-39.333 -38.667 -90.6709 -106.333 -154.004 -203c16.667 -10.667 97.334 -25.667 242.001 -45c152 -20.667 265.167 -58.167 339.5 -112.5s111.5 -143.166 111.5 -266.499c0 -100.667 -69 -202.5 -207 -305.5s-300.667 -154.5 -488 -154.5
c-111.333 0 -210.5 22.5 -297.5 67.5s-130.5 88.833 -130.5 131.5c0 80.667 51.333 121 154 121c26.667 0 57.334 -13.333 92.001 -40c66.667 -39.333 136.334 -59 209.001 -59c80 0 169.667 25 269 75s149 100 149 150c0 61.333 -26.5 110 -79.5 146
s-170.5 59.667 -352.5 71c-105.333 6 -179.333 26.5 -222 61.5s-64 64.167 -64 87.5c0 26.667 14 56.667 42 90l84 121c103.333 153.333 171.5 237 204.5 251s103.333 23.5 211 28.5s200.5 7.5 278.5 7.5c82 0 154.667 9 218 27c44.667 13.333 77.334 20 98.001 20
c34.667 0 72.167 -9.83301 112.5 -29.5s60.5 -43.167 60.5 -70.5c0 -20 -14.333 -47.833 -43 -83.5s-67 -57.334 -115 -65.001s-109.333 -11.5 -184 -11.5c-8 0 -54 1.66699 -138 5c-84.667 3.33301 -145.667 5 -183 5c-100 0 -172.333 -6.66699 -217 -20z" />
    <glyph glyph-name="six" unicode="6" horiz-adv-x="1492" 
d="M446 273c2.66699 86 16.5 154.499 41.5 205.499s59.333 100 103 147s99.5 82.667 167.5 107s167.333 36.5 298 36.5c83.333 0 158.5 -28.5 225.5 -85.5s100.5 -124.5 100.5 -202.5c0 -48.667 -19.667 -100.5 -59 -155.5s-106.5 -113 -201.5 -174
s-171.833 -101.167 -230.5 -120.5s-153.334 -29 -284.001 -29c-146 0 -259.833 43 -341.5 129s-122.5 163.333 -122.5 232c0 93.333 12.5 177.166 37.5 251.499s66.667 153.5 125 237.5s137.5 175.167 237.5 273.5s173.333 158.833 220 181.5s90.667 34 132 34
c34.667 0 64.834 -11 90.501 -33s38.5 -47 38.5 -75c0 -59.333 -31.333 -94.333 -94 -105c-46.667 -7.33301 -94.667 -27.333 -144 -60s-94.5 -72.167 -135.5 -118.5s-84.833 -99.166 -131.5 -158.499s-82 -124 -106 -194s-36 -133.667 -36 -191c0 -58 19 -99 57 -123
c4.66699 -3.33301 8.66699 -6.66602 12 -9.99902zM1173 500.999c-35.333 46 -106.333 69 -213 69c-198 0 -306.333 -119.667 -325 -359c46 -3.33301 78.333 -5 97 -5c83.333 0 175.833 36.167 277.5 108.5s156.167 134.5 163.5 186.5z" />
    <glyph glyph-name="seven" unicode="7" horiz-adv-x="1492" 
d="M1057 1119c-478.667 -21.333 -744 -32.001 -796 -32.001c-26 0 -48.167 10.833 -66.5 32.5s-27.5 45.167 -27.5 70.5c0 26 12.5 51.833 37.5 77.5s51.167 38.5 78.5 38.5c18 0 114 -4 288 -12c58 -2.66699 98 -4 120 -4c149.333 0 288.666 7.33301 417.999 22
c60 7.33301 115.333 11 166 11c64.667 0 97 -29 97 -87c0 -14 -2 -27.5 -6 -40.5s-40.667 -58.833 -110 -137.5c-46.667 -54 -114.167 -148.667 -202.5 -284s-162.166 -268.666 -221.499 -399.999l-5 -10c-35.333 -74 -58.5 -127.667 -69.5 -161s-16.5 -67 -16.5 -101
c0 -36 -11.333 -66.667 -34 -92s-53.667 -38 -93 -38c-38 0 -69.333 16.667 -94 50s-37 69 -37 107c0 48 63 189.5 189 424.5s254.333 423.5 385 565.5z" />
    <glyph glyph-name="eight" unicode="8" horiz-adv-x="1492" 
d="M1084 760l-125.998 -85.001l-29 -20c-8 -5.33301 -12.667 -8.66602 -14 -9.99902c75.333 -34.667 141.666 -85.167 198.999 -151.5s86 -125.5 86 -177.5c0 -68 -12.167 -124.5 -36.5 -169.5s-93.333 -84.333 -207 -118s-210.5 -50.5 -290.5 -50.5
c-52 0 -121.333 11 -208 33s-141.667 52.167 -165 90.5s-35 82.166 -35 131.499c0 63.333 29.833 127 89.5 191s123.167 114.667 190.5 152c14.667 8 30 18.667 46 32c-94 50 -155.333 87.333 -184 112s-55.5 59.167 -80.5 103.5s-37.5 78.5 -37.5 102.5
c0 98 75 188.333 225 271c40.667 22 80 44.333 118 67c63.333 37.333 138.666 56 225.999 56c29.333 0 72.333 -12.833 129 -38.5s94.5 -48.167 113.5 -67.5s33.5 -53.333 43.5 -102l2 -30l8 9c4.66699 5.33301 10 11 16 17l22 25c58.667 -15.333 88 -56.333 88 -123
c0 -23.333 -20.5 -61.166 -61.5 -113.499s-83.5 -97.833 -127.5 -136.5zM615.002 823.999c9.33301 -4.66699 20.667 -11.334 34 -20.001c58 -40.667 95.667 -65.667 113 -75c100 82.667 161.833 139 185.5 169s35.5 55.333 35.5 76c0 40.667 -16 74.834 -48 102.501
s-69 41.5 -111 41.5c-26.667 0 -70 -14 -130 -42s-103 -55.833 -129 -83.5s-39 -45.5 -39 -53.5c0 -34 29.667 -72.333 89 -115zM971.003 307.999c0 30 -21.168 66.999 -63.501 110.999s-91.166 79.667 -146.499 107c-70.667 -50 -131.5 -102.833 -182.5 -158.5
s-76.5 -101.167 -76.5 -136.5c0 -17.333 14 -31.166 42 -41.499s52.333 -15.5 73 -15.5c42.667 0 93.5 3.33301 152.5 10s96.5 13 112.5 19s43.333 24 82 54c4.66699 6 7 16.333 7 31v20z" />
    <glyph glyph-name="nine" unicode="9" horiz-adv-x="1492" 
d="M1314 1087c0 -21.333 -8.66406 -53.0029 -25.9971 -95.0029c-56.667 -135.333 -110.334 -298.666 -161.001 -489.999s-76 -311 -76 -359c0 -115.333 -34.333 -173 -103 -173c-58 0 -96 24.5 -114 73.5s-27 87.5 -27 115.5c0 28.667 18.667 100 56 214l76 242
c-87.333 -50.667 -162.5 -85.167 -225.5 -103.5s-133.833 -27.5 -212.5 -27.5c-64.667 0 -123.334 26.333 -176.001 79s-79 114 -79 184c0 62 15.5 122.333 46.5 181s83.167 118.334 156.5 179.001s126 101.667 158 123s92.167 43.833 180.5 67.5s151.5 35.5 189.5 35.5
c45.333 0 83.166 -7 113.499 -21s62.5 -36 96.5 -66l81 -71c20.667 -17.333 35.667 -44.666 45 -81.999zM1067 1066c-18.667 36 -59.999 54 -123.999 54c-76.667 0 -143.834 -14.833 -201.501 -44.5s-115 -76.834 -172 -141.501s-85.5 -117 -85.5 -157
c0 -33.333 10 -60.666 30 -81.999s46 -32 78 -32c52 0 130.833 26.5 236.5 79.5s165.5 100.833 179.5 143.5z" />
    <glyph glyph-name="colon" unicode=":" horiz-adv-x="606" 
d="M480 882c0 -36.667 -18.832 -71.001 -56.499 -103.001s-82.834 -48 -135.501 -48c-31.333 0 -59.333 20.333 -84 61v-1c-22 35.333 -33 65 -33 89c0 13.333 8.5 34.333 25.5 63s34.833 50.334 53.5 65.001l-1 -1c20 14.667 48.667 22 86 22c12.667 0 35 -9 67 -27
c6 -4 9.66699 -6.33301 11 -7c33.333 -24 52.833 -40.833 58.5 -50.5s8.5 -27.5 8.5 -53.5v-9zM284.001 18.999c-46 0 -79.333 9.66797 -100 29.001s-31 67.666 -31 144.999c0 32 4.5 55.5 13.5 70.5s27 30.667 54 47s50.833 24.5 71.5 24.5
c44.667 0 83.167 -9.66699 115.5 -29s48.5 -45 48.5 -77c0 -60 -23.167 -110 -69.5 -150s-80.5 -60 -102.5 -60z" />
    <glyph glyph-name="semicolon" unicode=";" horiz-adv-x="672" 
d="M282 1018l0.000976562 -1c13.333 9.33301 30.666 14 51.999 14c11.333 0 35.333 -8.66699 72 -26h-1c46.667 -17.333 75.167 -36.333 85.5 -57s15.5 -42.667 15.5 -66c0 -34 -20.5 -65 -61.5 -93s-85.167 -42 -132.5 -42c-27.333 0 -51.333 14 -72 42s-31 55.667 -31 83
c0 16 8.16699 41.5 24.5 76.5s32.5 58.167 48.5 69.5zM-6.99902 -116c29.333 6.66699 70.668 20.667 124.001 42s90.5 53.833 111.5 97.5s31.5 69.834 31.5 78.501c0 66 -6 107.667 -18 125c-12.667 17.333 -19 34.333 -19 51c0 22.667 8.33301 44.667 25 66
s37.334 32 62.001 32c29.333 0 55.666 -4.83301 78.999 -14.5s39 -19.834 47 -30.501s18.167 -39.667 30.5 -87s18.5 -86.333 18.5 -117c0 -16 -13.167 -54.5 -39.5 -115.5s-57 -102.5 -92 -124.5s-85.333 -48.333 -151 -79s-120.834 -46 -165.501 -46
c-42.667 0 -64 22.667 -64 68c0 16.667 6.66699 34.667 20 54z" />
    <glyph glyph-name="less" unicode="&#x3c;" horiz-adv-x="1094" 
d="M367 653c19.333 -12 39.335 -22.334 60.002 -31.001c33.333 -15.333 62 -31.333 86 -48c26 -19.333 44.333 -31.333 55 -36l262 -114c76 -34 123.333 -59.167 142 -75.5s28 -40.833 28 -73.5c0 -24.667 -12.833 -49.834 -38.5 -75.501s-53.167 -38.5 -82.5 -38.5
c-10.667 0 -37.667 12 -81 36c-124.667 70 -230.334 122.333 -317.001 157c-67.333 26.667 -149.333 71.334 -246 134.001s-145 107.334 -145 134.001c0 30 12 59 36 87s58 60 102 96c39.333 32 76.666 66.667 111.999 104c59.333 62 138.333 129.667 237 203
c91.333 68.667 143 111 155 127c32 42 69.667 63 113 63c28 0 52.667 -8.16699 74 -24.5s32 -37.5 32 -63.5c0 -57.333 -128 -182.333 -384 -375c-17.333 -13.333 -42.333 -36 -75 -68z" />
    <glyph glyph-name="equal" unicode="=" horiz-adv-x="1278" 
d="M1122 903c0 -74 -36.999 -110.999 -110.999 -110.999c-20.667 0 -45.667 6.33301 -75 19c-22 8 -37 12 -45 12c-6 0 -18 -1.66699 -36 -5c-18.667 -4 -35.334 -6 -50.001 -6l-182 12l-371 -28c-83.333 -6 -125 27.333 -125 100c0 88 96.333 132 289 132l126 -8
c12.667 -0.666992 53.167 0 121.5 2s128.833 7.66699 181.5 17c4.66699 2 16.667 3 36 3h50c40 0 81.333 -11.333 124 -34s65 -57.334 67 -104.001v-1zM1137 433.001c0 -26.667 -8.99902 -51.5 -26.999 -74.5s-36 -34.5 -54 -34.5c-23.333 0 -57 4 -101 12
c-40 6.66699 -72 10 -96 10l-603 -8c-20 0 -43.5 15.833 -70.5 47.5s-40.5 58.5 -40.5 80.5c0 34 27 57.333 81 70s99.333 19 136 19c53.333 0 129.666 -1.66699 228.999 -5c16 -0.666992 68.667 3.33301 158 12c84 8 169.333 1.33301 256 -20s130.667 -57.333 132 -108v-1z
" />
    <glyph glyph-name="greater" unicode="&#x3e;" horiz-adv-x="1170" 
d="M773 686c-29.333 36 -59.001 61.3311 -89.001 75.998c-43.333 22 -123.666 66 -240.999 132l-31 16c-6.66699 5.33301 -16.334 10 -29.001 14c-46.667 18.667 -98.167 53.834 -154.5 105.501s-84.5 104.5 -84.5 158.5c0 50.667 28.333 76 85 76
c18.667 0 35.834 -4.33301 51.501 -13s42.834 -28.667 81.501 -60c38 -28.667 122.833 -84.167 254.5 -166.5s219.5 -135.166 263.5 -158.499c94 -48.667 151 -81.667 171 -99s30 -42.666 30 -75.999c0 -29.333 -57.333 -82.333 -172 -159
c-35.333 -24 -64.333 -45.667 -87 -65c-9.33301 -8.66699 -17 -15.334 -23 -20.001c-6.66699 -4.66699 -36.5 -36 -89.5 -94l-151.5 -162c-32 -36 -60.167 -63.667 -84.5 -83s-51.5 -29 -81.5 -29c-29.333 0 -56.5 11.5 -81.5 34.5s-37.5 45.833 -37.5 68.5
c0 28.667 23 60.667 69 96c11.333 8.66699 21.333 17 30 25c102 120 198.333 216 289 288c53.333 42 90.666 73.667 111.999 95z" />
    <glyph glyph-name="question" unicode="?" horiz-adv-x="1051" 
d="M1073 1143c0 -99.333 -19.999 -180.5 -59.999 -243.5s-86.667 -107 -140 -132s-163.666 -66.5 -330.999 -124.5c-18 -46.667 -33.667 -102.667 -47 -168c-6.66699 -34.667 -22 -60.334 -46 -77.001s-64.667 -25 -122 -25c-18.667 0 -33.334 13.5 -44.001 40.5
s-16 55.167 -16 84.5c0 31.333 4.83301 60.5 14.5 87.5s34.834 81.833 75.501 164.5c36.667 30.667 70.167 54 100.5 70s88.166 40.667 173.499 74l135 53c23.333 10 43 31.333 59 64s24 65 24 97c0 22.667 -5.16699 53.334 -15.5 92.001s-19.833 62.834 -28.5 72.501
s-25.334 18.5 -50.001 26.5s-49.334 12 -74.001 12c-72 0 -120.833 -9 -146.5 -27s-40.167 -35.667 -43.5 -53c-8.66699 -59.333 -60 -89 -154 -89c-61.333 0 -92 29.333 -92 88c0 35.333 19.5 75.833 58.5 121.5s88.167 84.5 147.5 116.5h-1
c50 30.667 102.667 46.667 158 48c38.667 0.666992 77.334 1.66699 116.001 3c74.667 3.33301 134 -10.334 178 -41.001c72.667 -48.667 119 -94 139 -136s30.667 -108 32 -198v-1zM489.001 106c0 -41.333 -23.167 -76.834 -69.5 -106.501s-89.5 -44.5 -129.5 -44.5
c-42 0 -77.333 12.333 -106 37s-43 55.667 -43 93c0 30.667 26.667 64.334 80 101.001c10 6.66699 18 12.667 24 18c17.333 14 41.333 21 72 21c21.333 0 48.333 -11.333 81 -34c60.667 -4 91 -32.333 91 -85z" />
    <glyph glyph-name="at" unicode="@" horiz-adv-x="1682" 
d="M1014 479c-44 -29.333 -98.6689 -56.5049 -164.002 -81.5049s-116.333 -37.5 -153 -37.5c-56 0 -107.833 21.833 -155.5 65.5s-71.5 87.834 -71.5 132.501c0 104 49.833 217.667 149.5 341s190.834 185 273.501 185c78 0 136.333 -12.667 175 -38s58 -50.666 58 -75.999
v-10c6.66699 2.66699 14.667 4 24 4c61.333 0 92 -26.667 92 -80c0 -16.667 -16 -61 -48 -133c-18 -44 -27 -83.333 -27 -118c0 -10 8.66699 -15 26 -15c40 0 83 25.833 129 77.5s69 106.5 69 164.5c0 66 -23.333 139.333 -70 220
c-16.667 28.667 -29.334 51.334 -38.001 68.001c-29.333 53.333 -74.166 96.166 -134.499 128.499s-106.166 48.5 -137.499 48.5c-98.667 0 -213.667 -46.167 -345 -138.5s-226.333 -214.166 -285 -365.499s-88 -266 -88 -344c0 -77.333 51.833 -153.166 155.5 -227.499
s226.167 -111.5 367.5 -111.5c70.667 0 159.334 15.167 266.001 45.5s196.667 67.833 270 112.5c49.333 45.333 86.333 68 111 68c23.333 0 44.333 -7.83301 63 -23.5s28 -30.167 28 -43.5c0 -37.333 -7.33301 -70.333 -22 -99
c-72.667 -73.333 -185.334 -130.666 -338.001 -171.999s-300.667 -62 -444 -62c-164 0 -315.167 47.667 -453.5 143s-207.5 218 -207.5 368c0 85.333 34.667 217.5 104 396.5s179.5 327.833 330.5 446.5s310.167 178 477.5 178c110.667 0 213 -35 307 -105
s162.833 -154.833 206.5 -254.5s65.5 -189.167 65.5 -268.5c0 -91.333 -25.5 -178.333 -76.5 -261s-113.167 -136.667 -186.5 -162s-120.333 -38 -141 -38c-57.333 0 -111.333 24 -162 72zM980.998 870.995c-5.33301 3.33301 -10.335 7.66797 -15.002 13.001
c-5.33301 5.33301 -11 9.66602 -17 12.999c-59.333 -7.33301 -116.333 -52.5 -171 -135.5s-82 -140.5 -82 -172.5c0 -17.333 5.33301 -28.333 16 -33s27.334 -7 50.001 -7c22 0 57.833 14.5 107.5 43.5s74.5 51.833 74.5 68.5l-5 95
c-1.33301 19.333 4.83398 43.333 18.501 72s21.5 43 23.5 43z" />
    <glyph glyph-name="A" unicode="A" horiz-adv-x="1588" 
d="M404 323c-11.333 -28 -46.168 -89.8369 -104.501 -185.504s-98.833 -149 -121.5 -160s-42.667 -16.5 -60 -16.5c-24 0 -52.833 13.167 -86.5 39.5s-50.5 53.5 -50.5 81.5c0 26 83.667 166.333 251 421c91.333 139.333 174.666 277.333 249.999 414
c151.333 276 243.833 436.5 277.5 481.5s68.167 67.5 103.5 67.5c56.667 0 97.667 -14.667 123 -44c12.667 -9.33301 19 -31.666 19 -66.999c0 -26 -2.33301 -47 -7 -63c122 -372 217.5 -635.167 286.5 -789.5s138.167 -266.166 207.5 -335.499
c34.667 -34.667 55.834 -58 63.501 -70s11.5 -28 11.5 -48c0 -36.667 -13.333 -67.5 -40 -92.5s-58.334 -37.5 -95.001 -37.5c-50.667 0 -102.167 29.333 -154.5 88s-101.666 139.334 -147.999 242.001s-69.5 160.334 -69.5 173.001c0 2.66699 -1.66699 4 -5 4
c-36 0 -116.167 -12.667 -240.5 -38s-224.166 -50 -299.499 -74c-19.333 -6 -36.333 -9 -51 -9c-26 0 -46 6 -60 18zM979.998 628.996c-16 39.333 -63.332 179.333 -141.999 420c-7.33301 22 -12.333 36 -15 42l-284 -540c42 7.33301 85 14 129 20
c29.333 3.33301 104 17.333 224 42c29.333 6 58.666 11.333 87.999 16z" />
    <glyph glyph-name="B" unicode="B" horiz-adv-x="1500" 
d="M1099 813c124.667 -44 205.498 -96.6689 242.498 -158.002s55.5 -121.666 55.5 -180.999c0 -127.333 -81.667 -258.166 -245 -392.499s-334.666 -201.5 -513.999 -201.5c-100 0 -150 30.333 -150 91c0 100 69.667 150 209 150h49c65.333 0 147.666 37.833 246.999 113.5
s149 152.5 149 230.5c0 47.333 -20.333 89.5 -61 126.5s-95 55.5 -163 55.5c-5.33301 0 -31.666 -10.333 -78.999 -31c-48 -20.667 -83.333 -31 -106 -31c-62.667 0 -103.5 7.66699 -122.5 23s-28.5 46.333 -28.5 93c0 32.667 68 76.667 204 132
c77.333 30.667 154.666 83.167 231.999 157.5s116 137.166 116 188.499c0 66 -48 99 -144 99c-90 0 -178.333 -10 -265 -30s-134.667 -44.667 -144 -74s-34 -182 -74 -458s-60 -435.333 -60 -478l-10 -135c-5.33301 -68 -21 -111.833 -47 -131.5s-55.667 -29.5 -89 -29.5
c-89.333 0 -134 57.667 -134 173c0 18 5.66699 50.333 17 97c29.333 120.667 57.833 288.667 85.5 504s41.5 331.333 41.5 348c0 33.333 -6.66699 50 -20 50l-27 -2c-20 -2 -37.667 4.16699 -53 18.5s-25.333 27.833 -30 40.5s-7 24.334 -7 35.001
c0 66 92.667 128.667 278 188s380 89 584 89c108.667 0 196.834 -28.833 264.501 -86.5s101.5 -124.5 101.5 -200.5c0 -54.667 -21.667 -110.167 -65 -166.5s-122.666 -128.5 -237.999 -216.5z" />
    <glyph glyph-name="C" unicode="C" horiz-adv-x="1428" 
d="M1159 347c50.667 0 76 -24.6709 76 -74.0039c0 -61.333 -73.5 -136.833 -220.5 -226.5s-289.167 -134.5 -426.5 -134.5c-121.333 0 -233 39.667 -335 119s-153 195 -153 347c0 154.667 53.333 326.334 160 515.001s238.834 342.334 396.501 461.001s311.5 178 461.5 178
c89.333 0 160.666 -26.667 213.999 -80s80 -115.666 80 -186.999c0 -77.333 -6 -132.833 -18 -166.5s-37.667 -62.5 -77 -86.5s-71.333 -36 -96 -36c-25.333 0 -47.333 9 -66 27s-28 42.333 -28 73c0 21.333 5.66699 52.333 17 93c10.667 40.667 16 74.667 16 102
c0 46 -15.667 69 -47 69c-96 0 -203.667 -51.333 -323 -154s-221.5 -230.167 -306.5 -382.5s-127.5 -286.833 -127.5 -403.5c0 -77.333 22.333 -142.666 67 -195.999s110 -80 196 -80c50.667 0 114.5 13.667 191.5 41s148.167 64.333 213.5 111c66 47.333 111 71 135 71z
" />
    <glyph glyph-name="D" unicode="D" horiz-adv-x="1623" 
d="M192 161c7.33301 32.667 13.002 91.333 17.002 176c15.333 232 44 474.667 86 728c10.667 53.333 16 94 16 122c0 12 -5.33301 19.333 -16 22c-70.667 18 -106 49 -106 93c0 32 14.5 62.167 43.5 90.5s59.833 42.5 92.5 42.5l135 -4c61.333 0 145.666 4.33301 252.999 13
c91.333 8 165.666 12 222.999 12c186 0 336.5 -52.167 451.5 -156.5s172.5 -242.5 172.5 -414.5c0 -192 -88.667 -365.5 -266 -520.5s-392 -260.833 -644 -317.5c-66.667 -14.667 -113.667 -27.334 -141 -38.001s-59.333 -27.667 -96 -51c-45.333 -31.333 -90 -47 -134 -47
c-34 0 -64.333 16.333 -91 49s-40 59.334 -40 80.001c0 14 7 34.333 21 61zM453.002 210.999c35.333 0 136.499 25.833 303.499 77.5s302.5 131.167 406.5 238.5s156 229.666 156 366.999c0 110 -38.5 197.5 -115.5 262.5s-177.833 97.5 -302.5 97.5
c-85.333 0 -188 -8 -308 -24c-15.333 -2 -27.666 -3.33301 -36.999 -4c-72.667 -445.333 -109 -759.666 -109 -942.999c0 -34 2 -58 6 -72z" />
    <glyph glyph-name="E" unicode="E" horiz-adv-x="1397" 
d="M1279 1240l-308.001 -16.002c-107.333 -6 -199.666 -15.5 -276.999 -28.5s-119.166 -23 -125.499 -30s-10.833 -27.5 -13.5 -61.5c-3.33301 -33.333 -15.333 -92 -36 -176c-16.667 -64 -26.667 -116.333 -30 -157c42.667 0 104 4.33301 184 13s136.667 17 170 25
c96 23.333 170.333 35 223 35c105.333 0 158 -31.333 158 -94c0 -46 -14.667 -77.833 -44 -95.5s-75.333 -29.834 -138 -36.501c-38.667 -4 -82 -10 -130 -18c-25.333 -4 -57 -8 -95 -12c-184.667 -21.333 -293.667 -38 -327 -50h-1c-11.333 -3.33301 -19.833 -11 -25.5 -23
s-15.834 -61.5 -30.501 -148.5s-22 -147.833 -22 -182.5c3.33301 -24.667 18.666 -37 45.999 -37c32 0 116.167 8.83301 252.5 26.5s220.833 29.834 253.5 36.501c91.333 19.333 151 29 179 29c84.667 -12 127 -51.333 127 -118c0 -30.667 -10 -54 -30 -70
c-66.667 -30 -159 -48.667 -277 -56c-91.333 -5.33301 -202 -16.666 -332 -33.999c-116 -24.667 -225.333 -37 -328 -37c-54 0 -93 11.5 -117 34.5s-38.333 58.833 -43 107.5l-3 33c-0.666992 5.33301 5 25.666 17 60.999c26.667 82 59.334 264.333 98.001 547
s58 440 58 472c0 0.666992 -2 3.33398 -6 8.00098c-4.66699 4 -12.5 16.833 -23.5 38.5s-16.5 43.834 -16.5 66.501c0 12 1.33301 21.667 4 29c2.66699 14 17 28 43 42s50.333 21 73 21c31.333 0 63 -2 95 -6c55.333 0 235.333 20 540 60c101.333 13.333 154.333 20 159 20
l14 1c120 8.66699 180 -30 180 -116c0 -16 -10.833 -35.833 -32.5 -59.5s-42.5 -38.167 -62.5 -43.5z" />
    <glyph glyph-name="F" unicode="F" horiz-adv-x="1210" 
d="M1229 1248c-16 -10.667 -35.332 -15.9971 -57.999 -15.9971c-13.333 0 -25 1.33301 -35 4c-17.333 3.33301 -46 5 -86 5c-82.667 0 -177.167 -6 -283.5 -18s-179.166 -26 -218.499 -42c-42 -126.667 -68 -277.667 -78 -453c27.333 4 55 7.66699 83 11
c103.333 10.667 199.666 24.334 288.999 41.001c74.667 13.333 134.667 20 180 20c101.333 0 152 -35.333 152 -106c0 -12.667 -9.83301 -29.834 -29.5 -51.501s-40.834 -37.167 -63.501 -46.5s-64.667 -18.333 -126 -27l-268 -33
c-102.667 -12.667 -178.667 -25.334 -228 -38.001c-7.33301 -3.33301 -12.833 -9.5 -16.5 -18.5s-8.33398 -49.333 -14.001 -121s-8.5 -137.834 -8.5 -198.501l4 -127c0 -78.667 -36.667 -118 -110 -118c-37.333 0 -72.833 13.667 -106.5 41s-50.5 64.333 -50.5 111
c0 86.667 10 211 30 373c1.33301 7.33301 36 253.666 104 738.999c0 22.667 -3.33301 42 -10 58c-10 28.667 -15 51.667 -15 69c0 24 14.167 49.167 42.5 75.5s54.5 39.5 78.5 39.5c16 0 32.667 -2 50 -6c24.667 -5.33301 50.334 -8 77.001 -8c26 0 132.667 10.667 320 32
c122 13.333 213 20 273 20c63.333 0 112.5 -9.83301 147.5 -29.5s52.5 -37.5 52.5 -53.5c0 -56 -26 -99 -78 -129v1z" />
    <glyph glyph-name="G" unicode="G" horiz-adv-x="1585" 
d="M1369 494h1c-16 -54.667 -32 -128.167 -48 -220.5s-24 -159.166 -24 -200.499c0 -76.667 -0.5 -129.667 -1.5 -159s-7.16699 -53.333 -18.5 -72s-26 -33.167 -44 -43.5s-38.333 -15.5 -61 -15.5c-36 0 -69.167 12.667 -99.5 38s-45.5 55 -45.5 89
c0 11.333 9.33301 60 28 146c16.667 76.667 30 142.334 40 197.001c-223.333 -165.333 -423.333 -248 -600 -248c-119.333 0 -214.166 34.667 -284.499 104s-105.5 164.333 -105.5 285c0 190.667 57.333 373.667 172 549v-1c122 182.667 266.167 326.667 432.5 432
s332.5 158 498.5 158c86 0 154 -15.833 204 -47.5s75 -71.834 75 -120.501c0 -40.667 -17.167 -85.667 -51.5 -135s-68.833 -74 -103.5 -74c-22 0 -38.333 4.5 -49 13.5s-21.667 26.833 -33 53.5c-12.667 30 -27.167 51.167 -43.5 63.5s-40.166 18.5 -71.499 18.5
c-101.333 0 -217.166 -49.833 -347.499 -149.5s-236 -217.667 -317 -354s-121.5 -266.5 -121.5 -390.5c0 -130.667 56 -196 168 -196c58 0 127.333 15 208 45s166.667 77 258 141s146.166 122.333 164.499 175s32.166 110.667 41.499 174
c5.33301 37.333 19.166 62.166 41.499 74.499s52.5 18.5 90.5 18.5c87.333 0 131 -29.667 131 -89c0 -23.333 -11.333 -61.333 -34 -114c-18 -40 -34.667 -88.333 -50 -145z" />
    <glyph glyph-name="H" unicode="H" horiz-adv-x="1646" 
d="M459 562c-17.333 -36 -30.001 -135.337 -38.001 -298.004c-3.33301 -95.333 -16.5 -175 -39.5 -239s-53.167 -96 -90.5 -96c-42 0 -77.167 13.167 -105.5 39.5s-42.5 64.5 -42.5 114.5c0 44 9.66699 104.667 29 182c43.333 174.667 91.333 540.334 144 1097
c3.33301 22.667 16.833 44.5 40.5 65.5s48.5 31.5 74.5 31.5c88 0 132 -54.667 132 -164c0 -49.333 -10 -127.666 -30 -234.999c-23.333 -123.333 -35 -213.333 -35 -270c5.33301 -6.66699 29.333 -10 72 -10c93.333 0 225.666 7.33301 396.999 22s263.5 33.667 276.5 57
s26.667 90.833 41 202.5s21.5 230.5 21.5 356.5c0 18.667 14 41.167 42 67.5s58 39.5 90 39.5c36.667 0 67.167 -11.667 91.5 -35s36.5 -52.333 36.5 -87c0 -50 -12.333 -140.667 -37 -272c-28 -147.333 -51.5 -336.333 -70.5 -567s-28.5 -384 -28.5 -460
c0 -36 -17.333 -71.667 -52 -107s-65.667 -53 -93 -53c-29.333 0 -57.666 11 -84.999 33s-41 50.333 -41 85c0 22.667 9 100.334 27 233.001c18 132 27 222.667 27 272c0 32 -6.33301 48 -19 48c-31.333 0 -93.333 -3.66699 -186 -11c-93.333 -8 -157 -12 -191 -12
c-24.667 0 -89.167 -3.66699 -193.5 -11s-159.166 -13.666 -164.499 -18.999z" />
    <glyph glyph-name="I" unicode="I" horiz-adv-x="645" 
d="M495 992c-14.667 -60.667 -24 -109 -28 -145c0 -19.333 -6.66699 -69 -20 -149c-22 -142.667 -33 -240 -33 -292c0 -88 5.33301 -174.667 16 -260c8 -62 -4.66699 -107.167 -38 -135.5s-66.666 -42.5 -99.999 -42.5c-47.333 0 -81 20.5 -101 61.5s-30 112.167 -30 213.5
c0 62.667 15.667 212 47 448l55 391c11.333 57.333 19.666 110.666 24.999 159.999c8 72.667 17.833 117.5 29.5 134.5s32.5 35 62.5 54s52.667 28.5 68 28.5c38.667 0 68.167 -15.667 88.5 -47s30.5 -69.666 30.5 -114.999z" />
    <glyph glyph-name="J" unicode="J" horiz-adv-x="1216" 
d="M996 1507c29.333 0 55.834 -9.83398 79.501 -29.501s35.5 -42.167 35.5 -67.5c0 -153.333 -18.167 -362.666 -54.5 -627.999s-97.833 -464 -184.5 -596s-207 -198 -361 -198c-118 0 -237.333 41.667 -358 125s-181 155.333 -181 216c0 34 12.167 61.333 36.5 82
s56.5 31 96.5 31c34.667 0 70.667 -19 108 -57c111.333 -115.333 211.666 -173 300.999 -173c70 0 129.167 42 177.5 126s89 233.333 122 448s49.5 418.667 49.5 612c0 28.667 15.167 54 45.5 76s59.5 33 87.5 33z" />
    <glyph glyph-name="K" unicode="K" horiz-adv-x="1520" 
d="M1058 980l-377.998 -333.999l418 -316c34 -26 67 -49 99 -69l47 -31c36 -21.333 110 -36 222 -44c8 -26 12 -45 12 -57c0 -46 -13.333 -83.833 -40 -113.5s-66 -44.5 -118 -44.5c-68 0 -158.667 41.333 -272 124l-388 284c-88 66 -152.667 108 -194 126
c-30 -8.66699 -54.333 -121 -73 -337c-8 -86 -22 -148.833 -42 -188.5s-53 -59.5 -99 -59.5c-38.667 0 -68.334 11.5 -89.001 34.5s-31 52.833 -31 89.5c0 16 3.33301 38.667 10 68c15.333 65.333 42.666 297.333 81.999 696c35.333 336 64.833 528.833 88.5 578.5
s60.5 74.5 110.5 74.5c84 0 126 -46.667 126 -140c-42 -172 -72.333 -369.667 -91 -593c94.667 71.333 162.667 129.666 204 174.999l60 58l147 142c51.333 50.667 89 97.334 113 140.001c34 61.333 61.667 104.5 83 129.5s44.333 37.5 69 37.5c28 0 59.167 -14 93.5 -42
s51.5 -59.333 51.5 -94c0 -26 -18 -64.833 -54 -116.5s-91.667 -110.834 -167 -177.501z" />
    <glyph glyph-name="L" unicode="L" horiz-adv-x="1285" 
d="M1107 48c-16 0 -43.667 1.99707 -83 5.99707c-39.333 3.33301 -68.333 5 -87 5c-182 0 -358.667 -27 -530 -81c-70.667 -22.667 -121 -34 -151 -34c-40.667 0 -72.334 16 -95.001 48s-34 62.667 -34 92c0 12 6 42.667 18 92c15.333 61.333 27.666 131.333 36.999 210
l90 829c7.33301 78.667 13.833 129.667 19.5 153s20.167 44.333 43.5 63s55 28 95 28c32 0 60 -12 84 -36s36 -50 36 -78c0 -25.333 -6 -70.666 -18 -135.999c-17.333 -93.333 -41.666 -272.666 -72.999 -537.999s-47 -405.666 -47 -420.999c0 -19.333 3.33301 -29 10 -29
c25.333 0 95 9 209 27c53.333 8.66699 107.333 14.334 162 17.001c156 7.33301 265.333 18.666 328 33.999c20 4.66699 34.667 7 44 7c36.667 0 65.334 -10.833 86.001 -32.5s31 -47.5 31 -77.5c0 -44.667 -17.833 -80.5 -53.5 -107.5s-76.167 -40.5 -121.5 -40.5z" />
    <glyph glyph-name="M" unicode="M" horiz-adv-x="1934" 
d="M1551 1101l-332.999 -450.002c-154 -215.333 -272.667 -323 -356 -323c-38.667 0 -73 22.167 -103 66.5s-60.667 111.833 -92 202.5s-53.333 159.334 -66 206.001c-28.667 108 -48 169.333 -58 184l-51 -260c-16 -84 -32.333 -161.167 -49 -231.5
s-34.834 -154.833 -54.501 -253.5s-31.834 -173 -36.501 -223c-1.33301 -16.667 -17.166 -34.667 -47.499 -54s-53.5 -29 -69.5 -29c-32 0 -61.833 14.833 -89.5 44.5s-41.5 58.167 -41.5 85.5c0 64 13.333 145.333 40 244c110 404 172.833 658.333 188.5 763
s23.5 191.667 23.5 261c0 36 15.667 63.667 47 83s72.333 29 123 29c27.333 0 54.666 -18 81.999 -54s45.333 -69.333 54 -100l-1 2l139 -389c55.333 -155.333 92.333 -254 111 -296c72 78 178.667 213.667 320 407c141.333 192.667 238 316.667 290 372s88.667 83 110 83
c32.667 0 69 -13.667 109 -41s60 -50.666 60 -69.999c0 -14.667 -13 -115 -39 -301c-18 -131.333 -34.333 -278.333 -49 -441s-22 -258.667 -22 -288c0 -36 4.66699 -73 14 -111c6.66699 -29.333 10 -57 10 -83c0 -66 -11.5 -111 -34.5 -135s-58.5 -36 -106.5 -36
c-87.333 0 -131 65.667 -131 197c0 124 11.333 275.5 34 454.5s43.334 316.5 62.001 412.5c6.66699 34.667 11 58.667 13 72z" />
    <glyph glyph-name="N" unicode="N" horiz-adv-x="1651" 
d="M176 329l73.001 336.996c56 266.667 85.333 452.667 88 558c2 50.667 5.83301 85.167 11.5 103.5s21 36 46 53s53.5 25.5 85.5 25.5c20.667 0 44.334 -6.66699 71.001 -20s49 -55.666 67 -126.999c28 -115.333 100.333 -268.666 217 -459.999
s221.667 -344.666 315 -459.999c25.333 114.667 53 263.667 83 447c21.333 130.667 41.333 244 60 340c15.333 80 24.666 151 27.999 213c3.33301 58.667 20.833 98 52.5 118s63.5 30 95.5 30c27.333 0 50.833 -15.167 70.5 -45.5s29.5 -68.166 29.5 -113.499
c0 -36 -9.66699 -87 -29 -153c-42 -152.667 -83 -349.667 -123 -591s-60 -379 -60 -413v-34c0 -38.667 -3.33301 -67.334 -10 -86.001s-22.834 -36.167 -48.501 -52.5s-59.167 -24.5 -100.5 -24.5c-24.667 0 -42.5 2.33301 -53.5 7s-25.833 18.167 -44.5 40.5
s-38.334 51.833 -59.001 88.5c-32 55.333 -55.667 93 -71 113c-159.333 202.667 -312.666 439 -459.999 709c-20 -82.667 -50.667 -276 -92 -580l-12 -90c-5.33301 -31.333 -10 -76.666 -14 -135.999c-4.66699 -71.333 -21.834 -122.666 -51.501 -153.999
s-58.167 -47 -85.5 -47c-43.333 0 -74.166 11.167 -92.499 33.5s-27.5 67.166 -27.5 134.499c0 53.333 13.333 130 40 230z" />
    <glyph glyph-name="O" unicode="O" horiz-adv-x="1642" 
d="M532 -69c-112.667 0 -212.666 54.1699 -299.999 162.503s-131 220.166 -131 335.499c0 136 41.667 288.667 125 458s190.833 307.666 322.5 414.999s269.167 161 412.5 161c111.333 0 203.166 -13.333 275.499 -40s139 -65.834 200 -117.501s101.667 -105 122 -160
s30.5 -130.5 30.5 -226.5c0 -84.667 -27.167 -187.5 -81.5 -308.5s-133.333 -235.167 -237 -342.5s-209.167 -190.333 -316.5 -249s-248 -88 -422 -88zM354.001 438.003c0 -82 24.3311 -150.335 72.998 -205.002s104.667 -82 168 -82
c178.667 0 346.334 85.833 503.001 257.5s235 353.834 235 546.501c0 68 -13 122.833 -39 164.5s-70.167 76.334 -132.5 104.001s-129.166 41.5 -200.499 41.5c-128.667 0 -262 -93 -400 -279s-207 -368.667 -207 -548z" />
    <glyph glyph-name="P" unicode="P" horiz-adv-x="1443" 
d="M458 453c-16.667 -154.667 -25.001 -278.665 -25.001 -371.998c0 -36.667 -11 -69.334 -33 -98.001s-52 -43 -90 -43c-82 0 -123 47.667 -123 143c0 52.667 19.333 230.667 58 534c31.333 245.333 47 391.666 47 438.999c0 54 -2.33301 84.667 -7 92
c-43.333 22 -65 61.667 -65 119c0 56 90.333 104.833 271 146.5s335.334 62.5 464.001 62.5c150.667 0 270.667 -31 360 -93s134 -145.667 134 -251c0 -152 -82 -285.5 -246 -400.5s-363.333 -196.5 -598 -244.5c-86 -18 -135 -29.333 -147 -34zM546.999 1204l-59 -526
c192 32 360.667 88.833 506 170.5s218 169.167 218 262.5c0 111.333 -88 167 -264 167c-122 0 -255.667 -24.667 -401 -74z" />
    <glyph glyph-name="Q" unicode="Q" horiz-adv-x="1653" 
d="M1268 1310c83.333 -78 150.335 -167.5 201.002 -268.5s76 -195.833 76 -284.5c0 -102.667 -34.167 -209.334 -102.5 -320.001s-158.833 -208 -271.5 -292c124 -146 198.167 -237 222.5 -273s36.5 -60.667 36.5 -74c0 -25.333 -20.333 -52.5 -61 -81.5
s-69.334 -43.5 -86.001 -43.5c-34.667 0 -67.667 16.667 -99 50c-27.333 56.667 -69.5 123.834 -126.5 201.501s-86.5 116.5 -88.5 116.5c-8 0 -22.667 -2.66699 -44 -8c-114 -30.667 -219.667 -46 -317 -46c-142.667 0 -264.334 38.833 -365.001 116.5
s-151 182.5 -151 314.5c0 148 53 307.5 159 478.5s239.5 315.5 400.5 433.5s305.833 177 434.5 177c41.333 0 82 -21.167 122 -63.5s60 -86.833 60 -133.5zM806.002 212c-10 16 -21.999 32.001 -35.999 48.001c-58 62.667 -87 100.334 -87 113.001c0 24.667 20.5 52 61.5 82
s84.167 45 129.5 45c39.333 0 64.333 -22.333 75 -67c7.33301 -30.667 20.666 -59.334 39.999 -86.001s34.333 -40 45 -40c52.667 0 112.834 48.5 180.501 145.5s101.5 190.5 101.5 280.5c0 128.667 -41.833 249.167 -125.5 361.5s-148.167 168.5 -193.5 168.5
c-82.667 0 -176.334 -46.167 -281.001 -138.5s-192.834 -205.5 -264.501 -339.5s-107.5 -251 -107.5 -351c0 -78.667 24.833 -139.334 74.5 -182.001s109.834 -64 180.501 -64c61.333 0 130.333 8 207 24z" />
    <glyph glyph-name="R" unicode="R" horiz-adv-x="1489" 
d="M278 1205l-13.001 23.002c-21.333 33.333 -32 58 -32 74c0 32 16.333 59.833 49 83.5s62.334 35.5 89.001 35.5c12 0 27.333 -1 46 -3c18.667 -2.66699 30 -4 34 -4c196.667 30.667 334.667 46 414 46c148.667 0 266.167 -35.167 352.5 -105.5
s129.5 -157.166 129.5 -260.499c0 -98.667 -42.5 -192.334 -127.5 -281.001s-198.833 -161.334 -341.5 -218.001c237.333 -192 417.333 -324 540 -396c43.333 -26 65 -59.333 65 -100c0 -26.667 -15.167 -53.334 -45.5 -80.001s-58.833 -40 -85.5 -40
c-38.667 0 -82.667 16.667 -132 50s-119 85.833 -209 157.5s-142 114.5 -156 128.5c-126.667 106 -218 176.333 -274 211c-70.667 0 -106 35 -106 105c0 32.667 15.667 60.834 47 84.501s67 35.5 107 35.5c11.333 0 23.666 -1.66699 36.999 -5c12.667 -4 21.667 -6 27 -6
c42.667 0 121.667 35.667 237 107s173 153.666 173 246.999c0 46.667 -24.167 86.667 -72.5 120s-109.833 50 -184.5 50c-88.667 0 -160.167 -5.33301 -214.5 -16s-84 -18.167 -89 -22.5s-11 -14.833 -18 -31.5s-21.667 -85.167 -44 -205.5s-42.833 -252.333 -61.5 -396
s-28 -249.5 -28 -317.5c0 -43.333 3.33301 -82.333 10 -117c6 -34.667 9 -64.667 9 -90c0 -24 -14.167 -49.833 -42.5 -77.5s-59.166 -41.5 -92.499 -41.5c-92.667 0 -139 64 -139 192c0 104 11.5 249.667 34.5 437s50.167 352 81.5 494c4.66699 22.667 8.66699 43 12 61z
" />
    <glyph glyph-name="S" unicode="S" horiz-adv-x="1304" 
d="M1059 1075c0 66 -17 111.831 -51 137.498s-84 38.5 -150 38.5c-112.667 0 -217.167 -27.5 -313.5 -82.5s-144.5 -115.5 -144.5 -181.5c0 -42 18.167 -77.833 54.5 -107.5s130.166 -66.5 281.499 -110.5c158.667 -46 276.5 -96.5 353.5 -151.5
s115.5 -121.167 115.5 -198.5c0 -128.667 -98 -246.5 -294 -353.5s-399.667 -160.5 -611 -160.5c-68.667 0 -123.667 14.333 -165 43s-62 64 -62 106c0 33.333 9.33301 64.333 28 93s41 43 67 43c16 0 30.667 -2.66699 44 -8c70 -30 135.333 -45 196 -45
c104 0 220.833 29.167 350.5 87.5s194.5 115.5 194.5 171.5c0 23.333 -16.167 45.833 -48.5 67.5s-98.166 48.834 -197.499 81.501c-144.667 47.333 -253.5 86.333 -326.5 117s-128.333 70.834 -166 120.501s-56.5 109.5 -56.5 179.5c0 124.667 72.667 240.667 218 348
s316 161 512 161c112.667 0 201.5 -22.333 266.5 -67s97.5 -95.667 97.5 -153c0 -117.333 -64.333 -176 -193 -176z" />
    <glyph glyph-name="T" unicode="T" horiz-adv-x="1372" 
d="M901 1186c-6 -5.33301 -11.3291 -20.3301 -15.9961 -44.9971s-18.167 -139.334 -40.5 -344.001s-33.5 -368.334 -33.5 -491.001c0 -50.667 6 -107.334 18 -170.001c3.33301 -9.33301 5 -20 5 -32c0 -36 -10.5 -68.333 -31.5 -97s-47.833 -43 -80.5 -43
c-22 0 -49.833 10.833 -83.5 32.5s-53.834 58.5 -60.501 110.5s-10 119.667 -10 203c0 114 13.333 283.667 40 509s42.667 340.333 48 345c-18.667 0 -93.334 -5 -224.001 -15c-131.333 -10 -207.666 -15 -228.999 -15c-68.667 0 -116.334 8.83301 -143.001 26.5
s-40 45.5 -40 83.5c0 34 14.167 60 42.5 78s100.166 27 215.499 27c192 0 380.333 12.667 565 38c208 32 365.667 48 473 48c120 0 193 -14.167 219 -42.5s39 -56.5 39 -84.5c0 -64.667 -28.667 -97 -86 -97c-18.667 0 -48.667 2 -90 6c-42 3.33301 -91 5 -147 5
c-168.667 0 -285.334 -12 -350.001 -36z" />
    <glyph glyph-name="U" unicode="U" horiz-adv-x="1583" 
d="M715 -67c-68.667 0 -151.833 22.333 -249.5 67s-172.167 120.5 -223.5 227.5s-77 222.5 -77 346.5c0 63.333 9.33301 147 28 251l32 185c4.66699 31.333 9.66699 62 15 92c8 46 15 90.333 21 133c9.33301 73.333 25.666 128.5 48.999 165.5s59.333 55.5 108 55.5
c24 0 48.5 -18.833 73.5 -56.5s37.5 -66.5 37.5 -86.5c0 -14 -16 -87.333 -48 -220c-8 -33.333 -21.833 -114.833 -41.5 -244.5s-29.5 -217.5 -29.5 -263.5c0 -170 37.167 -284.667 111.5 -344s137.166 -89 188.499 -89c169.333 0 286.333 36.167 351 108.5
s106 190.5 124 354.5c3.33301 30 7.33301 58.333 12 85c6.66699 68 12.334 133 17.001 195c16 235.333 39.167 382.666 69.5 441.999s73.5 89 129.5 89c69.333 0 104 -45 104 -135c0 -53.333 -13 -152.666 -39 -297.999c-15.333 -87.333 -25.666 -173 -30.999 -257
c-12 -202 -39.667 -350 -83 -444s-121.833 -177.333 -235.5 -250s-251.5 -109 -413.5 -109z" />
    <glyph glyph-name="V" unicode="V" horiz-adv-x="1465" 
d="M1620 1373c1.33301 -6.66699 -23.3311 -45.9961 -73.998 -117.996c-77.333 -108.667 -138.833 -200 -184.5 -274l-255.5 -424c-76 -126.667 -125.333 -207.334 -148 -242.001c-62.667 -92.667 -100.334 -164 -113.001 -214c-10 -32 -33.167 -58 -69.5 -78
s-79.5 -30 -129.5 -30c-22 0 -42.833 16.667 -62.5 50s-46.167 96.333 -79.5 189l-173 446c-154 384.667 -231 583.667 -231 597c0 24 11.5 56.333 34.5 97s55.5 61 97.5 61c33.333 0 63 -12.167 89 -36.5s49.667 -90.5 71 -198.5
c14.667 -76.667 62.167 -217.834 142.5 -423.501s143.166 -357.834 188.499 -456.501c10 14.667 32.667 54 68 118c8 14 13.333 23 16 27c92 147.333 168.667 279.666 230 396.999c112 214.667 206.167 374.667 282.5 480s139.833 158 190.5 158c74 0 111 -36.667 111 -110
v-8c0 -2.66699 -0.333008 -5 -1 -7z" />
    <glyph glyph-name="W" unicode="W" horiz-adv-x="2070" 
d="M1598 39c-10 -16 -27.4961 -29.835 -52.4961 -41.502s-45.833 -17.5 -62.5 -17.5c-44.667 0 -85.167 22.667 -121.5 68s-89.833 160.5 -160.5 345.5s-109.667 293.833 -117 326.5l-247 -445c-136.667 -246 -227.667 -369 -273 -369c-32.667 0 -60.667 7.83301 -84 23.5
s-45.5 46.5 -66.5 92.5s-49.5 148.5 -85.5 307.5s-68.5 319.667 -97.5 482s-48.167 262.5 -57.5 300.5c-6 25.333 -11.667 45.666 -17 60.999c-17.333 53.333 -26 92 -26 116c0 29.333 13 57.833 39 85.5s56.333 41.5 91 41.5c63.333 0 107.666 -50.5 132.999 -151.5
s39.666 -172.5 42.999 -214.5l26 -169c8 -56.667 18.333 -117.667 31 -183c13.333 -68 24 -126 32 -174c26.667 -160.667 44 -249.334 52 -266.001c124.667 198.667 207 334.167 247 406.5s99.333 192.5 178 360.5c9.33301 16.667 24.5 31.834 45.5 45.501
s42.5 20.5 64.5 20.5c28.667 0 52.667 -14.667 72 -44s52.333 -104.666 99 -225.999c2 -7.33301 5.33301 -16.333 10 -27l81 -214c72 -191.333 111.667 -289.333 119 -294c190.667 360.667 305 730 343 1108c0 26 11.5 46.5 34.5 61.5s49.5 22.5 79.5 22.5
c41.333 0 70.666 -12.833 87.999 -38.5s26 -54.5 26 -86.5c0 -66 -18 -170.167 -54 -312.5s-89.333 -296.166 -160 -461.499l-29 -69c-7.33301 -19.333 -61 -132 -161 -338c-30.667 -63.333 -51.334 -107.666 -62.001 -132.999z" />
    <glyph glyph-name="X" unicode="X" horiz-adv-x="1498" 
d="M750 909c1.33301 0 9.33203 9.33496 23.999 28.002c260.667 286.667 414.834 450.334 462.501 491.001s80.5 61 98.5 61c25.333 0 54 -13.333 86 -40s48 -53.334 48 -80.001c0 -23.333 -35.333 -65.333 -106 -126c-59.333 -52.667 -128.333 -120.334 -207 -203.001
l-40 -39c-162 -152.667 -243 -240.667 -243 -264c0 -12 49.5 -76 148.5 -192s173.5 -189 223.5 -219c52 -32 93.167 -67.5 123.5 -106.5s45.5 -64.833 45.5 -77.5c0 -25.333 -11.167 -48.833 -33.5 -70.5s-48.5 -32.5 -78.5 -32.5c-60 0 -118.333 23.167 -175 69.5
s-133 132.166 -229 257.499c-80.667 104 -139.667 177.667 -177 221c-17.333 -20 -59 -64.667 -125 -134c-182 -191.333 -283.333 -318 -304 -380c-24.667 -66 -42.834 -108.667 -54.501 -128s-30.5 -35.5 -56.5 -48.5s-58 -19.5 -96 -19.5c-74 0 -111 34.667 -111 104
c0 50.667 39.833 126.5 119.5 227.5s201.167 233.833 364.5 398.5l111 116c12 12 20.667 21.667 26 29c-11.333 19.333 -28 42 -50 68c-42.667 49.333 -112.667 140.833 -210 274.5s-146 215.167 -146 244.5c0 34 12.167 67.667 36.5 101s49.5 50 75.5 50
c28.667 0 54.334 -8 77.001 -24s47.334 -51 74.001 -105c73.333 -147.333 172.666 -298 297.999 -452z" />
    <glyph glyph-name="Y" unicode="Y" horiz-adv-x="1370" 
d="M874 664l-0.00195312 0.998047c-20.667 -56 -44.334 -240.333 -71.001 -553c-4.66699 -69.333 -12.167 -109.666 -22.5 -120.999s-29.666 -22.166 -57.999 -32.499s-49.833 -15.5 -64.5 -15.5c-74 0 -111 50 -111 150c0 44.667 10 129 30 253
c20 123.333 30 209.666 30 258.999c0 28.667 -4 55.334 -12 80.001c-55.333 59.333 -122.666 142.666 -201.999 249.999c-92 122.667 -157.667 198.667 -197 228c-78.667 56.667 -128.5 100.167 -149.5 130.5s-31.5 57.833 -31.5 82.5c0 15.333 14.5 35 43.5 59
s55.5 36 79.5 36c100.667 0 257.667 -142.667 471 -428c70.667 -96 119.334 -156 146.001 -180c25.333 27.333 51.333 57.333 78 90c26 32.667 52.667 62.667 80 90c161.333 166 270 287.667 326 365c53.333 74.667 112.333 112 177 112c29.333 0 53.333 -12 72 -36
s28 -49 28 -75c0 -39.333 -121.333 -183.666 -364 -432.999c-176 -183.333 -268.667 -287.333 -278 -312z" />
    <glyph glyph-name="Z" unicode="Z" horiz-adv-x="1604" 
d="M1493 1273c-1.33301 -4.66699 -6.67188 -9.99707 -16.0049 -15.9971c-20 -13.333 -39.833 -28 -59.5 -44s-68.5 -70.667 -146.5 -164c-100 -118.667 -190.5 -220.667 -271.5 -306s-220.5 -223.333 -418.5 -414l-104 -101c62.667 5.33301 143.334 13.333 242.001 24
c140.667 15.333 218.667 23 234 23c48 0 87.333 1.33301 118 4c30.667 2 58.334 3 83.001 3c193.333 0 290 -47 290 -141c0 -38 -9.83301 -67.833 -29.5 -89.5s-46.167 -32.5 -79.5 -32.5c-26.667 0 -58 4.66699 -94 14c-57.333 15.333 -130 23 -218 23
c-33.333 0 -131 -5.33301 -293 -16h1c-164.667 -9.33301 -273 -17 -325 -23s-111.333 -18 -178 -36c-52 -14.667 -85.333 -22 -100 -22c-66.667 0 -100 33 -100 99c0 53.333 18 93.333 54 120c88.667 66 204 166.167 346 300.5s275.667 267.166 401 398.499l71 73
c110.667 110.667 191.334 197.667 242.001 261c-10.667 0 -131.667 -13.333 -363 -40c-146 -17.333 -256 -26 -330 -26c-45.333 0 -92 5.66699 -140 17c-70.667 31.333 -106 70.666 -106 117.999c0 22 13.667 47.333 41 76s49.666 43 66.999 43
c12.667 0 29.334 -3.66699 50.001 -11c20.667 -8 36.334 -12 47.001 -12l185 -2c50.667 -0.666992 106.334 1.66602 167.001 6.99902c44.667 4 116 8.33301 214 13c110 5.33301 185.333 11.666 226 18.999c122.667 20.667 200 31 232 31c55.333 0 83 -29.667 83 -89
c0 -33.333 -7.33301 -60.666 -22 -81.999z" />
    <glyph glyph-name="bracketleft" unicode="[" horiz-adv-x="827" 
d="M453 1329l-1.00098 -4v-7l2 -5c1.33301 -6.66699 3 -17 5 -31c2 -17.333 3 -28.666 3 -33.999c0 -34.667 -20.333 -418 -61 -1150c-7.33301 -132 -11 -204.667 -11 -218l6 -128c0 -20 -1.66699 -30 -5 -30c7.33301 -5.33301 20.333 -8 39 -8c40 0 80.333 5 121 15
c44 10.667 68.333 16 73 16c78 0 117 -34.667 117 -104c0 -34.667 -8.83301 -61.5 -26.5 -80.5s-38.667 -31.167 -63 -36.5s-89.166 -14.333 -194.499 -27c-24 -3.33301 -43.333 -7.33301 -58 -12c-55.333 -18.667 -98.666 -28 -129.999 -28c-32 0 -58.5 12 -79.5 36
s-31.5 49.667 -31.5 77l15 163c-1.33301 20 -3 40.333 -5 61c-3.33301 43.333 -5 79.666 -5 108.999c0 60 5 144.333 15 253l5 59c1.33301 18 2.66602 32.333 3.99902 43l28 414c12.667 182 19 310.667 19 386c0 112 -11.667 200.333 -35 265c-10 29.333 -17.333 60 -22 92
c0 49.333 17.5 83.666 52.5 102.999s85.833 29 152.5 29c46.667 0 125 1.66699 235 5c161.333 4.66699 242 -36.666 242 -123.999c0 -26.667 -17 -50.167 -51 -70.5s-79 -30.5 -135 -30.5h-57z" />
    <glyph glyph-name="backslash" unicode="\" horiz-adv-x="1120" 
d="M894 -172l-445 898.999c-86.667 170.667 -155 292.334 -205 365.001l-41 60l1 -1l-37 55l1 -1c-5.33301 7.33301 -10.333 15 -15 23s-10.667 17.667 -18 29c-84.667 130 -127 216 -127 258c0 22.667 15 45.167 45 67.5s61.667 33.5 95 33.5c26.667 0 51 -10.5 73 -31.5
s56.333 -79.167 103 -174.5c6 -13.333 10.667 -22 14 -26c42 -54 97.667 -144.333 167 -271l53 -94l-1 2c35.333 -60 92 -170 170 -330c52.667 -110 91 -186.333 115 -229c98 -175.333 167.333 -303.833 208 -385.5s61 -140.167 61 -175.5c0 -74 -50.333 -111 -151 -111
c-26 0 -48 12.667 -66 38z" />
    <glyph glyph-name="bracketright" unicode="]" horiz-adv-x="854" 
d="M354 -239c15.333 2 26.999 2.99805 34.999 2.99805c0 336.667 5.16699 585.334 15.5 746.001s44.833 417.667 103.5 771c0 1.33301 2 6.33301 6 15c17.333 40 27 65.667 29 77c-75.333 -0.666992 -149.333 -11 -222 -31c-40 -10.667 -73 -16 -99 -16
c-28 0 -58.833 9.16699 -92.5 27.5s-50.5 38.5 -50.5 60.5c0 28 15.667 60.833 47 98.5s62 56.5 92 56.5c14.667 0 37.334 -2 68.001 -6c14 -2 66.333 3.33301 157 16c126 18 201.667 27 227 27c32 0 61.667 -13.5 89 -40.5s41 -53.5 41 -79.5
c0 -40 -11.667 -80.667 -35 -122c-6 -10.667 -12.667 -31.167 -20 -61.5s-24 -121.166 -50 -272.499l-52 -313c-8.66699 -58 -15.167 -129.333 -19.5 -214s-6.83301 -173.334 -7.5 -266.001l-17 -442c0 -11.333 2.33301 -37.333 7 -78c6 -35.333 9 -63.666 9 -84.999
c0 -73.333 -41 -110 -123 -110l-159 17c-14 1.33301 -58.333 -2.66699 -133 -12c-66 -7.33301 -109.667 -11 -131 -11c-26.667 0 -52 8.33301 -76 25s-36 33.667 -36 51c0 106.667 38.333 160 115 160c18.667 0 42.667 -1 72 -3c28.667 -2.66699 47.667 -4 57 -4z" />
    <glyph glyph-name="asciicircum" unicode="^" horiz-adv-x="1174" 
d="M590 1079c-18 -19.333 -34.3389 -39.335 -49.0059 -60.002l-49 -65c-51.333 -65.333 -88.666 -120 -111.999 -164c-5.33301 -13.333 -26.666 -50.666 -63.999 -111.999l-21 -35c-17.333 -29.333 -34.833 -52.833 -52.5 -70.5s-41.167 -26.5 -70.5 -26.5
c-33.333 0 -60.5 12.667 -81.5 38s-31.5 52 -31.5 80c0 26 36 82 108 168c19.333 22.667 37.666 48.334 54.999 77.001c14.667 25.333 62.334 93.666 143.001 204.999c28.667 40 44.334 62.667 47.001 68c2 2.66699 3.66699 5.33398 5 8.00098
c18 36.667 43.333 74.334 76 113.001s69.667 58 111 58c24.667 0 43.667 -5.83301 57 -17.5s30.333 -34.5 51 -68.5c64 -108.667 140 -211.667 228 -309c50.667 -55.333 95.834 -114.833 135.501 -178.5s59.5 -110.834 59.5 -141.501c0 -20 -11 -43.5 -33 -70.5
s-44.333 -40.5 -67 -40.5c-21.333 0 -43.666 10.833 -66.999 32.5s-42.333 47.167 -57 76.5c-15.333 28 -67.666 102 -156.999 222s-144 191 -164 213z" />
    <glyph glyph-name="underscore" unicode="_" horiz-adv-x="850" 
d="M852 -205c-16 0 -50.6709 3 -104.004 9c-53.333 5.33301 -88.333 8 -105 8c-37.333 0 -117 -4 -239 -12c-122 -8.66699 -202 -13 -240 -13c-11.333 0 -39 1.33301 -83 4s-71.667 4 -83 4c-40.667 0 -61 22 -61 66c0 16 5.83301 29.833 17.5 41.5s26.167 17.5 43.5 17.5
l154 10c24.667 0 58.334 -1.33301 101.001 -4s83.334 -4 122.001 -4c30.667 0 75.334 3 134.001 9c60 5.33301 106 8 138 8c10.667 0 44.334 -3 101.001 -9c57.333 -6.66699 92 -10 104 -10c40.667 0 61 -24.667 61 -74c0 -20 -4.16699 -33.5 -12.5 -40.5
s-24.5 -10.5 -48.5 -10.5z" />
    <glyph glyph-name="grave" unicode="`" horiz-adv-x="639" 
d="M330 1179l-46.999 30.998c-28 17.333 -81 56.333 -159 117s-117 110.334 -117 149.001c0 18 14 38.333 42 61s55.333 34 82 34c13.333 0 30.666 -7.66699 51.999 -23s66 -53.666 134 -114.999l219 -194c46 -40.667 69 -77 69 -109c0 -62 -33.667 -93 -101 -93
c-21.333 0 -79.333 47.333 -174 142z" />
    <glyph glyph-name="a" unicode="a" horiz-adv-x="1198" 
d="M798 335c-175.333 -231.333 -344.668 -346.998 -508.001 -346.998c-60 0 -111.667 23.667 -155 71s-65 107.666 -65 180.999c0 176.667 78.667 364.834 236 564.501s316 299.5 476 299.5c81.333 0 134.666 -41 159.999 -123c76.667 0 115 -29.333 115 -88
c0 -28 -7.33301 -78.667 -22 -152c-26.667 -137.333 -40 -247 -40 -329c0 -85.333 5.83301 -145.333 17.5 -180s20.167 -57.334 25.5 -68.001s21.333 -22 48 -34c26.667 -12.667 40 -30.334 40 -53.001c0 -34 -17.167 -62.333 -51.5 -85s-70.166 -34 -107.499 -34
c-125.333 0 -181.666 125.667 -168.999 377zM737.998 890.002c-67.333 0 -154.833 -74.501 -262.5 -223.501s-161.5 -275.5 -161.5 -379.5c0 -54.667 11.333 -82 34 -82c78.667 0 175.5 69.833 290.5 209.5s172.5 261.834 172.5 366.501c0 33.333 -7.5 59.833 -22.5 79.5
s-31.833 29.5 -50.5 29.5z" />
    <glyph glyph-name="b" unicode="b" horiz-adv-x="1188" 
d="M213 971c64.667 383.333 111.165 610.334 139.498 681.001s77.833 106 148.5 106c54.667 0 82 -48.333 82 -145c0 -66 -27.333 -203 -82 -411c-28.667 -102.667 -63.334 -258 -104.001 -466c82.667 110 172.834 199 270.501 267s184.834 102 261.501 102
c62.667 0 114.834 -26.833 156.501 -80.5s62.5 -116.834 62.5 -189.501c0 -205.333 -78.833 -398.333 -236.5 -579s-325.167 -271 -502.5 -271c-53.333 0 -103 14.5 -149 43.5s-72 66.167 -78 111.5c-2.66699 24.667 -7.66699 41 -15 49l-23 26c-19.333 20 -29 48 -29 84
c0 41.333 10.333 127.333 31 258zM330.998 261.001c28 -46.667 59.334 -70.001 94.001 -70.001c62.667 0 132.167 28.833 208.5 86.5s142.666 138.834 198.999 243.501s84.5 191.667 84.5 261c0 66 -10.333 99 -31 99c-106 0 -225 -77.5 -357 -232.5
s-198 -284.167 -198 -387.5z" />
    <glyph glyph-name="c" unicode="c" horiz-adv-x="1034" 
d="M408 -55c-110 0 -193.665 29.999 -250.998 89.999s-86 143.333 -86 250c0 168 68.333 349.667 205 545s270.667 293 402 293c63.333 0 117.333 -31.5 162 -94.5s67 -128.5 67 -196.5c0 -64 -11.833 -107.167 -35.5 -129.5s-46.5 -33.5 -68.5 -33.5
c-64.667 0 -102.334 44.667 -113.001 134c-8 65.333 -24.333 98 -49 98c-52 0 -120.667 -74 -206 -222s-128 -277.667 -128 -389c0 -90 48.667 -135 146 -135c107.333 0 215.666 38 324.999 114c51.333 36.667 92 55 122 55c36.667 0 55 -18.333 55 -55
c0 -51.333 -58.833 -118.166 -176.5 -200.499s-241.167 -123.5 -370.5 -123.5z" />
    <glyph glyph-name="d" unicode="d" horiz-adv-x="1350" 
d="M820 334c-172.667 -244.667 -346.333 -366.998 -521 -366.998c-70.667 0 -127.667 27.833 -171 83.5s-65 126.5 -65 212.5c0 174 71.167 347 213.5 519s286.5 258 432.5 258c84 0 143.667 -22 179 -66c50 218.667 79.667 355.334 89 410.001
c20 101.333 36.667 168.666 50 201.999s33.666 59.166 60.999 77.499s51 27.5 71 27.5c34 0 60 -14 78 -42s27 -63.333 27 -106c0 -18.667 -14.667 -72.334 -44 -161.001c-48 -144 -92.5 -318 -133.5 -522s-61.5 -366.333 -61.5 -487c0 -115.333 25.333 -173 76 -173
c26 0 53.667 7 83 21c29.333 13.333 50 20 62 20c32.667 0 49 -19 49 -57c0 -46 -33.167 -91.833 -99.5 -137.5s-129.166 -68.5 -188.499 -68.5c-64 0 -113.333 34.333 -148 103s-47.667 153 -39 253zM709.001 847.002c-87.333 0 -178.5 -66.667 -273.5 -200
s-142.5 -255.333 -142.5 -366c0 -64.667 24 -97 72 -97c81.333 0 178.333 72.333 291 217s169 259 169 343c0 25.333 -10.667 48.833 -32 70.5s-49.333 32.5 -84 32.5z" />
    <glyph glyph-name="e" unicode="e" horiz-adv-x="1061" 
d="M1008 344c0 -69.333 -58.3301 -152.168 -174.997 -248.501s-248.334 -144.5 -395.001 -144.5c-112.667 0 -201.334 35.5 -266.001 106.5s-97 169.833 -97 296.5c0 186.667 66 361.667 198 525s273 245 423 245c74.667 0 134.667 -23.667 180 -71s68 -103.666 68 -168.999
c0 -116 -55.667 -226.5 -167 -331.5s-254 -177.5 -428 -217.5c-20 -4.66699 -30 -16.667 -30 -36c0 -32 14.167 -62.5 42.5 -91.5s66.166 -43.5 113.499 -43.5c134 0 267 69 399 207c25.333 26.667 50 40 74 40c40 0 60 -22.333 60 -67zM337.003 520.998
c105.333 21.333 198.167 66.333 278.5 135s120.5 131 120.5 187c0 22 -6.16699 40.5 -18.5 55.5s-28.166 22.5 -47.499 22.5c-58 0 -122.333 -42.667 -193 -128s-117.334 -176 -140.001 -272z" />
    <glyph glyph-name="f" unicode="f" horiz-adv-x="759" 
d="M387 509l-17.0039 -179.002c-5.33301 -57.333 -8 -114 -8 -170c0 -50.667 4.66699 -109.334 14 -176.001c-6.66699 -23.333 -23.334 -43.333 -50.001 -60s-54.667 -25 -84 -25c-91.333 0 -137 58 -137 174c0 51.333 14.333 174 43 368c20 139.333 30 243 30 311
c0 4 -4 8.66699 -12 14c-46 29.333 -69 57.333 -69 84c0 34.667 25.667 72.334 77 113.001c24.667 19.333 39.834 41.833 45.501 67.5s13.834 66.167 24.501 121.5c36 212.667 91.833 363.834 167.5 453.501s171.834 134.5 288.501 134.5c68 0 125.5 -22.167 172.5 -66.5
s70.5 -99.166 70.5 -164.499c0 -58.667 -13.5 -119.5 -40.5 -182.5s-62.5 -94.5 -106.5 -94.5c-19.333 0 -35.666 6.16699 -48.999 18.5s-20 28.5 -20 48.5l6 87c0 104 -21.667 156 -65 156c-54 0 -104.5 -67.833 -151.5 -203.5s-70.5 -251.167 -70.5 -346.5
c0 -10 6.33301 -15 19 -15c138 0 235.5 0.666992 292.5 2s85.5 -20.667 85.5 -66c0 -44 -34.5 -76.5 -103.5 -97.5s-141.5 -31.5 -217.5 -31.5c-51.333 -4.66699 -84.666 -9 -99.999 -13c-16 -98.667 -27.667 -185.667 -35 -261v-1z" />
    <glyph glyph-name="g" unicode="g" horiz-adv-x="1172" 
d="M798 306c-74 -83.333 -160.167 -151.834 -258.5 -205.501s-183.166 -80.5 -254.499 -80.5c-70.667 0 -125.5 20.667 -164.5 62s-58.5 98.333 -58.5 171c0 103.333 39.167 218.333 117.5 345s187 236.834 326 330.501s264.167 140.5 375.5 140.5
c61.333 0 114.333 -16.667 159 -50c10.667 -8 20 -14.667 28 -20c16 -11.333 30.833 -32.166 44.5 -62.499s20.5 -54.833 20.5 -73.5c0 -12 -12.667 -52.333 -38 -121c-26 -71.333 -44.167 -140.5 -54.5 -207.5s-30.833 -234.167 -61.5 -501.5
c-27.333 -232.667 -92.333 -402.667 -195 -510s-216.667 -161 -342 -161c-131.333 0 -258.833 44.167 -382.5 132.5s-185.5 161.166 -185.5 218.499c0 50.667 24.667 76 74 76c19.333 0 58.666 -19.333 117.999 -58c152 -100 282.333 -150 391 -150
c82.667 0 152 51.833 208 155.5s100.333 293.5 133 569.5zM822 861.999c-49.333 0 -114 -29.502 -194 -88.502s-154 -138.5 -222 -238.5s-102 -183 -102 -249c0 -34.667 12.667 -52 38 -52c86 0 171.333 34.833 256 104.5s153.167 149.834 205.5 240.501
s78.5 159.334 78.5 206.001c0 23.333 -6 42 -18 56s-26 21 -42 21z" />
    <glyph glyph-name="h" unicode="h" horiz-adv-x="1278" 
d="M340 461c110.667 207.333 206.171 348.499 286.504 423.499s161.5 112.5 243.5 112.5c56.667 0 103.834 -19.5 141.501 -58.5s65.167 -140.5 82.5 -304.5c7.33301 -78 16.666 -141 27.999 -189s24 -90.5 38 -127.5s34 -71.833 60 -104.5c20 -26 30 -51 30 -75
s-11.5 -46 -34.5 -66s-49.5 -30 -79.5 -30c-59.333 0 -112 32.333 -158 97s-73.333 154 -82 268c-10.667 139.333 -22.167 228.333 -34.5 267s-32.833 58 -61.5 58c-38.667 0 -113.834 -77.167 -225.501 -231.5s-192.167 -277.833 -241.5 -370.5
c-30.667 -70 -54.334 -115.333 -71.001 -136s-37.334 -31 -62.001 -31c-40.667 0 -73.667 10 -99 30s-38 48.333 -38 85c0 18 9 74.333 27 169c68 358 123.667 739 167 1143c10.667 97.333 31.167 164.5 61.5 201.5s58.166 55.5 83.499 55.5c35.333 0 66 -13.667 92 -41
s39 -65.333 39 -114c0 -74.667 -9 -160.667 -27 -258s-51.667 -252.666 -101 -465.999c-30 -128.667 -51.667 -231 -65 -307z" />
    <glyph glyph-name="i" unicode="i" horiz-adv-x="588" 
d="M667 1486c0 -47.333 -21.334 -88.832 -64.001 -124.499s-79.667 -53.5 -111 -53.5c-40 0 -75.5 16.667 -106.5 50s-46.5 66.666 -46.5 99.999c0 48 15.333 86.833 46 116.5s74.667 44.5 132 44.5c44.667 0 80.834 -13.167 108.501 -39.5s41.5 -57.5 41.5 -93.5z
M183.999 664.001v-0.998047c21.333 121.333 32 190.666 32 207.999c0 49.333 10.833 90.666 32.5 123.999s51.834 50 90.501 50c45.333 0 80.666 -10.667 105.999 -32s38 -45.333 38 -72s-12.333 -81.667 -37 -165l-6 -22c-36.667 -128.667 -58.667 -233.667 -66 -315
s-11 -147 -11 -197c0 -40.667 7 -95 21 -163c2 -12 3 -22 3 -30c0 -15.333 -14.5 -36 -43.5 -62s-60.167 -39 -93.5 -39c-88 0 -132 66.667 -132 200c0 113.333 16 251.333 48 414c6.66699 36 12.667 70 18 102z" />
    <glyph glyph-name="j" unicode="j" horiz-adv-x="656" 
d="M420 1340c-36 0 -65.168 17.5 -87.501 52.5s-33.5 72.167 -33.5 111.5c0 32 19.167 64.5 57.5 97.5s80.833 49.5 127.5 49.5c25.333 0 54.333 -10.5 87 -31.5s49 -41.167 49 -60.5c0 -22.667 -8.33301 -61 -25 -115s-39.167 -84.833 -67.5 -92.5
s-64.166 -11.5 -107.499 -11.5zM9.99902 -609c-84.667 0 -167.001 35.1689 -247.001 105.502s-120 131.166 -120 182.499c0 19.333 9.5 38.5 28.5 57.5s33.5 28.5 43.5 28.5c14 0 40 -15.333 78 -46c75.333 -70.667 140.333 -106 195 -106c56.667 0 101 44.667 133 134
s60.667 378 86 866c6 120 12.833 214.667 20.5 284s25.5 118.5 53.5 147.5s68 43.5 120 43.5c31.333 0 58.5 -10.833 81.5 -32.5s34.5 -47.167 34.5 -76.5c0 -9.33301 -2.33301 -23 -7 -41c-26 -102.667 -47.167 -243.334 -63.5 -422.001s-25.166 -291 -26.499 -337
c-8 -192.667 -25.167 -342.167 -51.5 -448.5s-72.333 -189.5 -138 -249.5s-139.167 -90 -220.5 -90z" />
    <glyph glyph-name="k" unicode="k" horiz-adv-x="1207" 
d="M1041 835l0.996094 -0.000976562l-2 -2c-38.667 -21.333 -70 -40 -94 -56c-44.667 -30 -89.667 -62.333 -135 -97c-52 -40 -91 -73.667 -117 -101c-22 -22.667 -33 -39.334 -33 -50.001c0 -12 39 -58.833 117 -140.5s139.833 -140.167 185.5 -175.5
s90.834 -53 135.501 -53l44 1c16 0 28.833 -4.83301 38.5 -14.5s14.5 -24.167 14.5 -43.5c0 -27.333 -17 -59 -51 -95s-92.333 -54 -175 -54c-48.667 0 -98 17.833 -148 53.5s-126.667 116.167 -230 241.5c-82.667 100.667 -127.667 151 -135 151
c-4.66699 0 -18.667 -12 -42 -36s-38.666 -42.333 -45.999 -55v-1c-11.333 -55.333 -17 -127.666 -17 -216.999c0 -44.667 -13.167 -81 -39.5 -109s-58.5 -42 -96.5 -42c-39.333 0 -70 11.167 -92 33.5s-33 44.833 -33 67.5c0 24 8.33301 76.667 25 158
c32 158 59 367.667 81 629c21.333 208.667 40 371.5 56 488.5s30.333 193.667 43 230s32.334 65.333 59.001 87s55.334 32.5 86.001 32.5c29.333 0 52.833 -12.167 70.5 -36.5s26.5 -53.833 26.5 -88.5c0 -43.333 -28 -212.666 -84 -507.999l-24 -131h1
c-29.333 -192.667 -44.333 -304 -45 -334l307 278c156.667 151.333 271.667 227 345 227c70.667 0 106 -28.333 106 -85c0 -70.667 -34.333 -121.667 -103 -153z" />
    <glyph glyph-name="l" unicode="l" horiz-adv-x="582" 
d="M479 1693c72 0 107.999 -39.3311 107.999 -117.998c0 -36 -5 -74.833 -15 -116.5s-37.333 -144.834 -82 -309.501c-32.667 -119.333 -57.5 -249.5 -74.5 -390.5s-25.5 -251.167 -25.5 -330.5c0 -84.667 6.33301 -185.334 19 -302.001c3.33301 -31.333 5 -51 5 -59
c0 -40 -14.667 -74.333 -44 -103s-61.333 -43 -96 -43c-47.333 0 -80.666 22.333 -99.999 67s-29 121.334 -29 230.001c0 234 27.5 509.667 82.5 827s100 504.666 135 561.999s73.833 86 116.5 86z" />
    <glyph glyph-name="m" unicode="m" horiz-adv-x="2048" 
d="M377 59c-8 -68.667 -46.332 -103.003 -114.999 -103.003c-87.333 0 -131 63 -131 189c0 204 11 378.333 33 523c17.333 112.667 26 223.334 26 332.001c0 26 8.33301 47.833 25 65.5s40 26.5 70 26.5c100 0 150 -60.667 150 -182
c0 -39.333 -17.667 -139.666 -53 -300.999c-21.333 -96 -32 -165.667 -32 -209c190.667 418.667 362.667 628 516 628c62 0 111.833 -24.667 149.5 -74s57.167 -158.666 58.5 -327.999c0.666992 -154.667 8.66699 -232 24 -232c12 0 53.667 75 125 225
c79.333 166 147.166 275.667 203.499 329s115.5 80 177.5 80c74 0 127.667 -31.833 161 -95.5s56.666 -171.167 69.999 -322.5c10 -120 23.5 -210.667 40.5 -272s46.167 -102 87.5 -122c33.333 -16 50 -40 50 -72c0 -28.667 -19 -57.5 -57 -86.5s-76.667 -43.5 -116 -43.5
c-68 0 -121.167 33.5 -159.5 100.5s-64.166 201.5 -77.499 403.5c-7.33301 97.333 -15.166 161.833 -23.499 193.5s-20.833 47.5 -37.5 47.5c-14.667 0 -36 -23.833 -64 -71.5s-76.333 -142.5 -145 -284.5c-60.667 -128 -112.834 -217.333 -156.501 -268
s-90.5 -76 -140.5 -76c-38.667 0 -77.5 16.667 -116.5 50s-60.167 154.333 -63.5 363c-3.33301 186 -15.333 279 -36 279c-28 0 -95.333 -82.667 -202 -248s-187 -313.333 -241 -444z" />
    <glyph glyph-name="n" unicode="n" horiz-adv-x="1354" 
d="M953 146c-32 60 -55.3359 172.001 -70.0029 336.001c-14.667 170.667 -47.334 256 -98.001 256c-48 0 -131 -88.833 -249 -266.5s-190.667 -308.834 -218 -393.501c-6 -25.333 -17.167 -46.333 -33.5 -63s-32.5 -25 -48.5 -25c-101.333 0 -152 46.333 -152 139
c0 31.333 10 102.666 30 213.999c26 144 39 320 39 528c0 31.333 13.667 64.833 41 100.5s56.333 53.5 87 53.5c38.667 0 68.334 -9.66699 89.001 -29s31 -70.666 31 -153.999c0 -63.333 -19 -186 -57 -368c144.667 338.667 306 508 484 508
c154.667 0 245.334 -121.667 272.001 -365c26.667 -248 57.334 -372 92.001 -372c15.333 0 33 3.33301 53 10c24 8 43 12 57 12c32 0 48 -18.667 48 -56c0 -34 -22 -70.167 -66 -108.5s-99.333 -57.5 -166 -57.5c-77.333 0 -132.666 33.667 -165.999 101h1z" />
    <glyph glyph-name="o" unicode="o" horiz-adv-x="1154" 
d="M1058 507c-44.667 -156 -129.499 -287.498 -254.499 -394.498s-249.833 -160.5 -374.5 -160.5c-98.667 0 -180 36.167 -244 108.5s-96 161.166 -96 266.499c0 172 58.667 341.333 176 508s259.666 250 426.999 250c114 0 206.333 -42.167 277 -126.5
s106 -184.833 106 -301.5c0 -50.667 -5.66699 -100.334 -17 -149.001v-1zM538.001 823.002c-46.667 -41.333 -92.333 -107.333 -137 -198s-67 -181.667 -67 -273c0 -55.333 10.167 -101 30.5 -137s47.166 -54 80.499 -54c82.667 0 168.667 49 258 147s134 208 134 330
c0 68.667 -14.5 125.167 -43.5 169.5s-69.5 66.5 -121.5 66.5c-49.333 0 -93.666 -17 -132.999 -51h-1z" />
    <glyph glyph-name="p" unicode="p" horiz-adv-x="1320" 
d="M345 71c-11.333 -46.667 -22.667 -117.336 -34 -212.003l-48 -393c-8 -64 -23.5 -108.333 -46.5 -133s-51.167 -37 -84.5 -37c-30 0 -58.5 11.167 -85.5 33.5s-40.5 47.166 -40.5 74.499c0 54 8.33301 116.333 25 187c99.333 396.667 153.666 808.334 162.999 1235v20
c0 89.333 2.5 148.833 7.5 178.5s19.333 55.834 43 78.501s57.167 34 100.5 34c72.667 0 109 -55.667 109 -167c0 -45.333 -8.33301 -122.333 -25 -231l-10 -69c76 126.667 166.333 231.834 271 315.501s198.334 125.5 281.001 125.5c74.667 0 138.167 -26.667 190.5 -80
s78.5 -120.333 78.5 -201c0 -215.333 -83.5 -411.166 -250.5 -587.499s-332.167 -264.5 -495.5 -264.5c-77.333 0 -127 31 -149 93zM931.999 883.998c-81.333 0 -186.833 -79.332 -316.5 -237.999s-194.5 -283.334 -194.5 -374.001c0 -23.333 11.5 -44.166 34.5 -62.499
s49.833 -27.5 80.5 -27.5c84.667 0 181.834 66.5 291.501 199.5s164.5 261.5 164.5 385.5c0 41.333 -6.33301 71.166 -19 89.499s-26.334 27.5 -41.001 27.5z" />
    <glyph glyph-name="q" unicode="q" horiz-adv-x="1170" 
d="M763 263c-176.667 -180.667 -332.333 -271.001 -467 -271.001c-71.333 0 -127.833 27.833 -169.5 83.5s-62.5 125.5 -62.5 209.5c0 180 83 368.5 249 565.5s337.333 295.5 514 295.5c82.667 0 133.334 -42 152.001 -126c2.66699 -8 5.33398 -12.333 8.00098 -13
c80 -18 120 -60.333 120 -127c0 -37.333 -13.667 -111.666 -41 -222.999c-18 -66.667 -46.333 -200 -85 -400s-62.334 -340.333 -71.001 -421s-14.334 -169.667 -17.001 -267c-1.33301 -58.667 -5 -98.334 -11 -119.001s-20.167 -39.834 -42.5 -57.501
s-52.166 -26.5 -89.499 -26.5c-38 0 -68.167 13 -90.5 39s-33.5 59.333 -33.5 100c0 26 12.833 118.333 38.5 277s47.167 271.334 64.5 338.001c15.333 60.667 26.666 108.334 33.999 143.001zM788.001 567.999c48 88 72 166.333 72 235c0 34.667 -7.83301 63.5 -23.5 86.5
s-36.5 34.5 -62.5 34.5c-80.667 0 -180 -73.167 -298 -219.5s-177 -281.5 -177 -405.5c0 -66 13 -99 39 -99c62.667 0 141 38.833 235 116.5s165.667 161.167 215 250.5v1z" />
    <glyph glyph-name="r" unicode="r" horiz-adv-x="1039" 
d="M363 496l16.998 32.001c80.667 162 167.5 293.5 260.5 394.5s183.833 151.5 272.5 151.5c68 0 123.5 -18.667 166.5 -56s64.5 -81.666 64.5 -132.999c0 -32 -7.33301 -59.5 -22 -82.5s-35 -34.5 -61 -34.5c-41.333 0 -79 17 -113 51c-24 22 -43 33 -57 33
c-50 0 -133.667 -77.667 -251 -233s-188 -330 -212 -524c-7.33301 -56 -23.666 -95.167 -48.999 -117.5s-59.666 -33.5 -102.999 -33.5c-46 0 -78.667 26.167 -98 78.5s-29 137.833 -29 256.5c0 48.667 1.33301 114.334 4 197.001c2.66699 78 10.334 173.333 23.001 286
c3.33301 29.333 5.66602 52.333 6.99902 69c6 65.333 12.833 110.166 20.5 134.499s25.5 47.166 53.5 68.499s59 32 93 32c36 0 63.333 -10.333 82 -31s28 -43.334 28 -68.001c0 -31.333 -15 -96.333 -45 -195c-10.667 -34 -19.667 -74.667 -27 -122z" />
    <glyph glyph-name="s" unicode="s" horiz-adv-x="865" 
d="M584 254c-2.66699 36 -60.0029 80 -172.003 132c-137.333 66 -225 122.833 -263 170.5s-57 99.5 -57 155.5c0 118 66.167 221.167 198.5 309.5s255.833 132.5 370.5 132.5c112.667 0 169 -49 169 -147c0 -26 -12.833 -49.333 -38.5 -70s-47.5 -31 -65.5 -31
c-7.33301 0 -20.333 4.66699 -39 14s-33 14 -43 14c-59.333 0 -124.666 -20 -195.999 -60s-107 -86.667 -107 -140c0 -26 12.667 -51.167 38 -75.5s77 -54.833 155 -91.5c115.333 -54.667 191.333 -104 228 -148s55 -92.667 55 -146c0 -97.333 -65.833 -178.5 -197.5 -243.5
s-279.5 -97.5 -443.5 -97.5c-120.667 0 -181 43.667 -181 131c0 32 12.667 59.333 38 82s53.666 34 84.999 34c12.667 0 32.334 -4.66699 59.001 -14c26.667 -10 51.334 -15 74.001 -15c62.667 0 128.334 10 197.001 30s114 44.667 136 74z" />
    <glyph glyph-name="t" unicode="t" horiz-adv-x="956" 
d="M521 812c-6 0 -24.8311 -74.335 -56.498 -223.002s-47.5 -238.667 -47.5 -270c0 -54.667 5.83301 -92.834 17.5 -114.501s30.834 -32.5 57.501 -32.5c37.333 0 73.166 6.5 107.499 19.5s79.5 42.167 135.5 87.5c34.667 28.667 64 43 88 43
c19.333 0 34.833 -5.5 46.5 -16.5s17.5 -23.833 17.5 -38.5c0 -58.667 -47.333 -125.167 -142 -199.5s-194.667 -111.5 -300 -111.5c-88 0 -155.167 26 -201.5 78s-69.5 126.667 -69.5 224c0 90 33.667 269.667 101 539c-42.667 -4.66699 -72.334 -7 -89.001 -7h-21
c-30.667 0 -61.834 10 -93.501 30s-47.5 52 -47.5 96c0 56 31.667 84 95 84l214 8c28 80.667 57.667 186.334 89 317.001c18.667 81.333 61 122 127 122c36.667 0 65.334 -11.167 86.001 -33.5s31 -47.166 31 -74.499c0 -10.667 -28.333 -113.667 -85 -309
c212 18.667 328.333 28 349 28c35.333 0 58.666 -5.16699 69.999 -15.5s17 -30.166 17 -59.499c0 -59.333 -50.333 -97 -151 -113z" />
    <glyph glyph-name="u" unicode="u" horiz-adv-x="1245" 
d="M817 366c-64 -116.667 -138.17 -209.333 -222.503 -278s-169.833 -103 -256.5 -103c-51.333 0 -103.166 27 -155.499 81s-78.5 137 -78.5 249c0 79.333 20 199 60 359c34.667 132 52 232.333 52 301c26.667 56 68.334 84 125.001 84c38.667 0 69.5 -12.833 92.5 -38.5
s34.5 -51.5 34.5 -77.5c0 -47.333 -16.667 -114.666 -50 -201.999c-19.333 -52 -40.166 -125.5 -62.499 -220.5s-33.5 -155.833 -33.5 -182.5c0 -88.667 18.333 -133 55 -133c58 0 136.333 55.667 235 167s163 225.333 193 342c30 114 56.667 188.667 80 224
s56.333 53 99 53c69.333 0 104 -38.667 104 -116c0 -11.333 -5.66699 -34 -17 -68c-39.333 -118 -59 -251 -59 -399c0 -173.333 29.333 -277 88 -311c19.333 -11.333 29 -25.333 29 -42c0 -24 -17 -46.667 -51 -68s-66.333 -32 -97 -32
c-52.667 0 -93.167 37.167 -121.5 111.5s-42.5 174.166 -42.5 299.499z" />
    <glyph glyph-name="v" unicode="v" horiz-adv-x="1114" 
d="M297 10c0.666992 44 -25.667 138.667 -79 284c-107.333 287.333 -161 492 -161 614c0 109.333 43 164 129 164c84 0 126 -50 126 -150c0 -64 1.5 -109.5 4.5 -136.5s13.333 -76 31 -147s35.167 -130.167 52.5 -177.5c10 -28.667 22 -66 36 -112
c8 -28.667 15 -48.667 21 -60c4 6 18 32 42 78c14 28 61.333 107.5 142 238.5s151.5 235.5 212.5 313.5s106.5 125.667 136.5 143s61.667 26 95 26c34.667 0 63.167 -11.333 85.5 -34s33.5 -50.334 33.5 -83.001c0 -38.667 -28 -76.667 -84 -114
c-54.667 -37.333 -129.167 -122.666 -223.5 -255.999s-195.833 -301 -304.5 -503c-61.333 -115.333 -116.333 -173 -165 -173c-42 0 -85.333 28.333 -130 85z" />
    <glyph glyph-name="w" unicode="w" horiz-adv-x="1801" 
d="M921 629c-6.66699 -10.667 -57.3311 -115.997 -151.998 -315.997c-8 -17.333 -12.667 -27 -14 -29c-113.333 -228.667 -200.666 -343 -261.999 -343c-96 0 -180 119.167 -252 357.5s-108 436.833 -108 595.5c0 57.333 13.5 103.666 40.5 138.999s65.5 53 115.5 53
c31.333 0 59.166 -13.5 83.499 -40.5s36.5 -52.833 36.5 -77.5l-9 -132c-2.66699 -40 -4 -80 -4 -120c0 -70.667 14.667 -164.5 44 -281.5s50 -175.5 62 -175.5c8.66699 0 42.334 59.333 101.001 178c76.667 155.333 138.667 272.666 186 351.999h-1
c66.667 126.667 125.667 209.667 177 249c43.333 -4.66699 78.166 -17.667 104.499 -39s39.5 -46.333 39.5 -75c0 -22.667 -1 -39.334 -3 -50.001c-2.66699 -11.333 -4 -21.666 -4 -30.999c0 -201.333 55.667 -382.333 167 -543c7.33301 -7.33301 13.833 -3 19.5 13
s19.5 65.333 41.5 148c40.667 153.333 86.667 286.833 138 400.5s93.333 184.167 126 211.5s69.667 41 111 41c26 0 48.5 -9.83301 67.5 -29.5s28.5 -41.167 28.5 -64.5c0 -28 -6 -50 -18 -66c-86 -114.667 -162.333 -273.334 -229 -476.001
c-68.667 -210 -116.334 -338.333 -143.001 -385s-49.334 -70 -68.001 -70c-62 0 -112.833 11.5 -152.5 34.5s-78 65.833 -115 128.5s-70.5 141.667 -100.5 237s-48 164 -54 206z" />
    <glyph glyph-name="x" unicode="x" horiz-adv-x="1099" 
d="M472 343c-118.667 -111.333 -203 -227 -253 -347c-21.333 -50 -44 -88 -68 -114c-58 3.33301 -100.667 15.166 -128 35.499s-41 53.833 -41 100.5c0 41.333 17.833 92.5 53.5 153.5s124.167 156.5 265.5 286.5l54 52c-127.333 186.667 -191 332.334 -191 437.001
c0 110 48.333 165 145 165c67.333 0 103.333 -49.333 108 -148c4 -101.333 41.333 -206.333 112 -315c34.667 31.333 71.667 68.333 111 111l32 33c84 88.667 144.333 167.334 181 236.001c24 43.333 43.833 71.333 59.5 84s38.834 19 69.501 19c34 0 63.333 -12 88 -36
s37 -53.333 37 -88c0 -72.667 -155 -249 -465 -529c105.333 -129.333 217.666 -227 336.999 -293c14.667 -8.66699 28.667 -19 42 -31c5.33301 -12.667 8 -26.334 8 -41.001c0 -34 -13.667 -63.833 -41 -89.5s-60.666 -38.5 -99.999 -38.5
c-98.667 0 -237.334 119 -416.001 357z" />
    <glyph glyph-name="y" unicode="y" horiz-adv-x="1206" 
d="M1078 589c-10.667 -162 -29.5 -319.168 -56.5 -471.501s-66.667 -290.5 -119 -414.5s-108.666 -208.5 -168.999 -253.5s-132.166 -67.5 -215.499 -67.5c-89.333 0 -175 17 -257 51h1c-70.667 29.333 -132.167 68.666 -184.5 117.999s-78.5 91 -78.5 125
c0 31.333 7.83301 56.333 23.5 75s36.167 28 61.5 28c22 0 40.333 -9.33301 55 -28c85.333 -110 209.333 -165 372 -165c66 0 129.667 69 191 207s100 303.667 116 497c-206 -162.667 -364.667 -244 -476 -244c-72 0 -129 28.667 -171 86s-63 126.333 -63 207
s18.833 197.834 56.5 351.501s69.667 249 96 286s69.166 55.5 128.499 55.5c32 0 56.667 -13.833 74 -41.5s26 -58.167 26 -91.5c0 -10 -24 -66.333 -72 -169c-58.667 -125.333 -88 -233.333 -88 -324c0 -46.667 6.5 -82.167 19.5 -106.5s26.5 -36.5 40.5 -36.5
c32 0 70.833 9.66699 116.5 29s99.334 52.833 161.001 100.5s101.5 83.834 119.5 108.501s32.333 56.5 43 95.5s19 124.833 25 257.5c3.33301 77.333 7.16602 126 11.499 146s16.166 38.333 35.499 55s45.333 25 78 25c44 0 75.167 -9.33301 93.5 -28
s27.5 -62.667 27.5 -132z" />
    <glyph glyph-name="z" unicode="z" horiz-adv-x="1025" 
d="M807 282c152 0 227.998 -44.999 227.998 -134.999c0 -52.667 -22 -101 -66 -145c-25.333 10.667 -47.666 21.334 -66.999 32.001c-54 28 -127 42 -219 42c-54 0 -142.5 -10.333 -265.5 -31s-207.5 -51.334 -253.5 -92.001c-38 -34 -80.667 -51 -128 -51
c-38.667 0 -72 9.66699 -100 29s-42.667 43.333 -44 72c33.333 38 76.666 84 129.999 138c432 438.667 654 671.667 666 699c-26.667 0 -60.667 -2.66699 -102 -8c-116 -16 -203.333 -24 -262 -24c-166 0 -249 41.333 -249 124c0 71.333 42 107 126 107
c7.33301 0 15.333 -1.66699 24 -5c48.667 -18.667 102.334 -28 161.001 -28c104 0 228.667 11.333 374 34c38.667 6.66699 70.334 10 95.001 10c39.333 0 71.5 -9.16699 96.5 -27.5s37.5 -42.166 37.5 -71.499c0 -22.667 -24.667 -65.667 -74 -129l1 1
c-23.333 -44.667 -204.666 -240.667 -543.999 -588c-14.667 -14.667 -23.667 -24.334 -27 -29.001c1.33301 0.666992 6.33301 2 15 4c8.66699 1.33301 19 3.66602 31 6.99902l39 9c14 2.66699 27 5.66699 39 9c28 6.66699 43.667 10 47 10
c123.333 24.667 217.666 37 282.999 37h8z" />
    <glyph glyph-name="braceleft" unicode="{" horiz-adv-x="862" 
d="M865 -355l-1.00098 -0.99707c-9.33301 -14 -16.666 -25.667 -21.999 -35c-16.667 -27.333 -47.834 -46.5 -93.501 -57.5s-83.834 -16.5 -114.501 -16.5c-58.667 0 -106.167 5.66699 -142.5 17s-74.5 38.666 -114.5 81.999s-68.333 92.833 -85 148.5
s-25 126.834 -25 213.501v196c-0.666992 65.333 -5 110.833 -13 136.5s-15.667 38.5 -23 38.5c0 -0.666992 -4.33301 -2.66699 -13 -6l-63 -24c-29.333 -10 -47.333 -15 -54 -15c-22.667 0 -46.5 12.167 -71.5 36.5s-37.5 48.166 -37.5 71.499c0 25.333 17 54.166 51 86.499
s73.333 55.166 118 68.499c50.667 14.667 95.167 41 133.5 79s57.5 67 57.5 87c0 10.667 -1.66699 24 -5 40s-6 34.667 -8 56c-2.66699 30.667 -6 54 -10 70c-18 74.667 -27 141 -27 199c0 81.333 20.833 158.5 62.5 231.5s101.5 126.167 179.5 159.5s126.333 50 145 50
c40 0 74.167 -8.66699 102.5 -26s42.5 -39 42.5 -65c0 -34.667 -7.16699 -66.667 -21.5 -96s-35.833 -44 -64.5 -44c-4 0 -27.667 3.33301 -71 10c-26.667 4 -50.667 -4.83301 -72 -26.5s-39.166 -41 -53.499 -58s-21.5 -71.833 -21.5 -164.5c0 -14 5 -47.333 15 -100
c9.33301 -52.667 14 -83.667 14 -93c0 -142 -17.167 -237.5 -51.5 -286.5s-72.166 -80.5 -113.499 -94.5c58 -36 87 -103.667 87 -203c0 -25.333 -3.33301 -123 -10 -293c-7.33301 -184 35 -276 127 -276c38.667 0 84.667 10.667 138 32c15.333 6 28 9 38 9
c78.667 0 118 -24.667 118 -74c0 -14.667 -9 -35.667 -27 -63z" />
    <glyph glyph-name="bar" unicode="|" horiz-adv-x="658" 
d="M421 239v-240.002l2 -503c0.666992 -179.333 -2 -290.5 -8 -333.5s-19.167 -76.333 -39.5 -100s-43.166 -35.5 -68.499 -35.5c-26.667 0 -51 10.333 -73 31s-33 43.334 -33 68.001l15 1554l16 1031c0 14 -1.66699 47.333 -5 100c-3.33301 52 -5 84 -5 96
c0 52.667 12.333 90.334 37 113.001c31.333 22.667 56.666 34 75.999 34c67.333 0 101 -48.667 101 -146z" />
    <glyph glyph-name="braceright" unicode="}" horiz-adv-x="821" 
d="M576 442c-13.333 -24 -19.999 -42.999 -19.999 -56.999c0 -11.333 11 -76.666 33 -195.999v1c26.667 -106.667 40 -196.667 40 -270c0 -116 -28.333 -212.833 -85 -290.5s-144.667 -116.5 -264 -116.5c-74.667 0 -125.334 12.667 -152.001 38h1c-32 26 -48 53.667 -48 83
c0 27.333 19.667 51 59 71s75 30 107 30c7.33301 0 29.666 -2.33301 66.999 -7c51.333 25.333 77 103.333 77 234c0 44.667 -8.66699 120 -26 226c-15.333 90 -23 155.667 -23 197c0 48 22.667 88 68 120l-18 7c-9.33301 2.66699 -14.666 4.66699 -15.999 6
c-70 51.333 -105 112.666 -105 183.999c0 54.667 8.33301 106.334 25 155.001v-1l87 273c12.667 38.667 19 85 19 139c0 31.333 -12.833 57.666 -38.5 78.999s-54.5 32 -86.5 32c-82.667 0 -140.334 -16.333 -173.001 -49c-25.333 -20.667 -45.666 -31 -60.999 -31
c-43.333 0 -65 17 -65 51c0 154 118.333 231 355 231c65.333 0 130 -27.5 194 -82.5s96 -136.5 96 -244.5c0 -56 -13.667 -125 -41 -207s-43.333 -127.667 -48 -137c-30.667 -79.333 -46 -159 -46 -239c16.667 -18 32 -27 46 -27c8.66699 0 32 1.66699 70 5
c38.667 3.33301 64 5 76 5c47.333 0 84.333 -10.667 111 -32s40 -49.333 40 -84c0 -24.667 -13.5 -49.334 -40.5 -74.001s-56.167 -37 -87.5 -37c-50.667 0 -93 5 -127 15z" />
    <glyph glyph-name="asciitilde" unicode="~" horiz-adv-x="1589" 
d="M346 628l1 1.00195c-52.667 -106.667 -99.334 -160 -140.001 -160c-32 0 -60.167 9.5 -84.5 28.5s-36.5 42.833 -36.5 71.5c0 46 4.33301 85.667 13 119s28 62.666 58 87.999l24 25c38.667 43.333 68.667 71 90 83h-1c38 26 83.833 51 137.5 75s92.5 36 116.5 36
c28 0 63.667 -6 107 -18s114.333 -57.667 213 -137l127 -101c20 -18 42.667 -27 68 -27c21.333 0 55 5.33301 101 16l25 5c18 3.33301 42 38.666 72 105.999c61.333 114.667 126.333 172 195 172c28 0 51.333 -7.5 70 -22.5s28 -34.833 28 -59.5
c0 -54 -47.833 -137.167 -143.5 -249.5s-228.167 -168.5 -397.5 -168.5c-29.333 0 -60 7.5 -92 22.5s-80.333 53.833 -145 116.5c-56 54.667 -97.667 90 -125 106s-56.666 24 -87.999 24l-43 6c-14.667 0 -38.167 -15.167 -70.5 -45.5s-58.833 -67.833 -79.5 -112.5z" />
    <glyph glyph-name="uni00A0" unicode="&#xa0;" horiz-adv-x="801" 
 />
    <glyph glyph-name="exclamdown" unicode="&#xa1;" horiz-adv-x="582" 
d="M499 1152l2 -42c0 -15.333 -7.33301 -33.333 -22 -54s-36.334 -38.334 -65.001 -53.001s-57.667 -22 -87 -22c-68 0 -102 58.333 -102 175c0 7.33301 11.5 25.333 34.5 54s41.667 46.667 56 54s39.5 11 75.5 11c50.667 0 82.834 -7.16699 96.501 -21.5
s20.5 -36.833 20.5 -67.5c0 -7.33301 -1 -13.666 -3 -18.999c-2.66699 -6 -4.66699 -11 -6 -15zM176 466c0 4.66699 2.33203 14.667 6.99902 30c4.66699 14.667 10 32.667 16 54c30.667 102.667 55.5 167.167 74.5 193.5s51.833 39.5 98.5 39.5
c30 0 50.167 -9.83301 60.5 -29.5s15.5 -56.167 15.5 -109.5c0 -48 -11 -132.333 -33 -253c-32 -176 -48 -274.333 -48 -295c-7.33301 -147.333 -18.166 -263 -32.499 -347s-32 -134.5 -53 -151.5s-43.833 -25.5 -68.5 -25.5c-26.667 0 -54.167 17.167 -82.5 51.5
s-42.5 64.833 -42.5 91.5c0 25.333 8 82 24 170c7.33301 40 11 63.667 11 71c0 91.333 17.667 261.333 53 510z" />
    <glyph glyph-name="cent" unicode="&#xa2;" horiz-adv-x="1038" 
d="M721 896c-12 -46 -25.001 -114.668 -39.001 -206.001s-21 -140.333 -21 -147c10 2 47.667 19.667 113 53c26 13.333 48.667 20 68 20c26 0 46.833 -7.16699 62.5 -21.5s23.5 -28.5 23.5 -42.5c0 -78.667 -57.333 -131.334 -172 -158.001
c-54 -13.333 -86.333 -23.666 -97 -30.999s-19.167 -26.333 -25.5 -57s-10.166 -69.334 -11.499 -116.001c-3.33301 -72.667 -11.666 -124.167 -24.999 -154.5s-40.333 -45.5 -81 -45.5c-32.667 0 -60.834 13.333 -84.501 40s-35.5 55 -35.5 85
c0 20.667 13 84.334 39 191.001c2 9.33301 3 14.666 3 15.999c-36 0 -72.667 3.66699 -110 11c-10.667 2 -18.667 3.33301 -24 4c-49.333 10 -96.5 46.167 -141.5 108.5s-67.5 117.166 -67.5 164.499c0 62 8.16699 112.167 24.5 150.5s30.333 69 42 92s47.167 54 106.5 93
s101.5 63.333 126.5 73s60.5 17.834 106.5 24.501l20 7c14 4 22 6 24 6c16.667 111.333 25 197.333 25 258c0 60 39 90 117 90c28.667 0 52.834 -11.167 72.501 -33.5s29.5 -46.166 29.5 -71.499c0 -16.667 -1.33301 -32.667 -4 -48c-2.66699 -16 -4 -24.667 -4 -26
c-2 -14.667 -8 -41.334 -18 -80.001c-6 -25.333 -10 -44.666 -12 -57.999c12 -6 29 -14 51 -24c105.333 -43.333 158 -90.666 158 -141.999c0 -38.667 -7.5 -64.5 -22.5 -77.5s-41.5 -19.5 -79.5 -19.5c-26.667 0 -60.334 16.667 -101.001 50
c-14.667 12 -26.667 19.333 -36 22zM522.999 873.999c-156.667 -63.333 -235 -151.667 -235 -265c0 -20 13.5 -43.833 40.5 -71.5s48.833 -41.5 65.5 -41.5c47.333 0 72 10.667 74 32c6 52 17 122.667 33 212c6.66699 35.333 14 80 22 134z" />
    <glyph glyph-name="sterling" unicode="&#xa3;" horiz-adv-x="1366" 
d="M369 147c-118 -82 -186.664 -123.002 -205.997 -123.002c-32 0 -60.833 8.83301 -86.5 26.5s-38.5 37.167 -38.5 58.5c0 20.667 11 47.334 33 80.001h-1c27.333 42 53.333 74 78 96s43 35 55 39s28.333 6 49 6c46.667 59.333 90.667 130 132 212h-75
c-53.333 0 -101.666 9.33301 -144.999 28s-65 41.334 -65 68.001c0 74.667 33 112 99 112c12.667 0 44 -5.66699 94 -17c10 -2.66699 17.333 -4 22 -4c73.333 0 110 4.66699 110 14c6.66699 108 11.834 177 15.501 207s16.834 76.167 39.501 138.5s57 115 103 158
s93.167 75 141.5 96s93.166 31.5 134.499 31.5c56.667 0 109.834 -17.333 159.501 -52s74.5 -75 74.5 -121c0 -13.333 -8 -36.333 -24 -69s-50.667 -49 -104 -49c-37.333 0 -76.333 25 -117 75c-8 9.33301 -15.667 14 -23 14c-36 0 -76.333 -37.833 -121 -113.5
s-67 -162.5 -67 -260.5v-6c16.667 5.33301 35.667 10.333 57 15s41.666 9.66699 60.999 15h-1c51.333 11.333 93.666 22.333 126.999 33c48.667 14.667 90 22 124 22c29.333 0 57.5 -8 84.5 -24s40.5 -33.333 40.5 -52c0 -45.333 -18 -77.333 -54 -96h1
c-28.667 -15.333 -99.334 -32.333 -212.001 -51l1 1c-114 -22 -192.333 -42 -235 -60c1.33301 0 -1.83398 -20 -9.50098 -60s-41.5 -100 -101.5 -180c-12.667 -17.333 -24 -34 -34 -50c15.333 -2.66699 68.666 -19 159.999 -49h-1c22.667 -5.33301 72.334 -23 149.001 -53
h-1c88.667 -35.333 164 -53 226 -53c18 0 36.167 6.16699 54.5 18.5s27.5 29.833 27.5 52.5l-1 19c-1.33301 26 7.66699 50 27 72s47.666 33 84.999 33c42 0 73 -22.667 93 -68c10.667 -16 16 -41 16 -75c0 -69.333 -39.333 -127.5 -118 -174.5s-157 -70.5 -235 -70.5
c-76 0 -206.667 37.667 -392 113c-100.667 43.333 -169.334 69 -206.001 77z" />
    <glyph glyph-name="currency" unicode="&#xa4;" horiz-adv-x="1489" 
d="M1212 1033c31.333 -57.333 46.998 -147.001 46.998 -269.001c0 -127.333 -36.667 -248.333 -110 -363c34 -75.333 62 -120 84 -134h-1c12.667 -8.66699 25.667 -16.667 39 -24c48.667 -26.667 73 -56 73 -88c2.66699 -9.33301 6 -18.666 10 -27.999
c4 -10 6 -20.333 6 -31c-11.333 -54 -41 -91.667 -89 -113c-70.667 4 -160.667 73 -270 207c-26.667 34.667 -48.667 54.667 -66 60c-10 -3.33301 -22.667 -6.33301 -38 -9c-16 -2.66699 -34.667 -6.66699 -56 -12c-60 -12.667 -100.333 -19 -121 -19
c-69.333 0 -139.666 16.667 -210.999 50c-31.333 -7.33301 -89.333 -47 -174 -119c-61.333 -52 -100.5 -83.5 -117.5 -94.5s-34.5 -16.5 -52.5 -16.5c-26.667 0 -51.667 14.167 -75 42.5s-35 55.166 -35 80.499c0 24 15.667 47.667 47 71c8 6 15.333 12.333 22 19
c4.66699 4.66699 41.667 31.334 111 80.001c62.667 44.667 94 72.334 94 83.001v15c0 3.33301 0.333008 6.66602 1 9.99902c-47.333 90 -71 194.333 -71 313c0 113.333 27 203.666 81 270.999c-26 84.667 -66.333 146.5 -121 185.5s-82 73.167 -82 102.5
c0 24.667 15 47.667 45 69s58 32 84 32c33.333 0 63.333 -14.333 90 -43s55.667 -70 87 -124c17.333 -30 36.666 -58.667 57.999 -86c56.667 36.667 99.834 59.834 129.501 69.501s80.834 14.5 153.501 14.5c68.667 0 152.667 -19.333 252 -58c10 8.66699 40.667 42 92 100
c76 98.667 137 148 183 148c24 0 48.833 -11.167 74.5 -33.5s38.5 -43.5 38.5 -63.5c0 -29.333 -31.667 -78.333 -95 -147c-66.667 -72 -105.667 -121.333 -117 -148zM725.998 1043c-54 0 -104 -38.834 -150 -116.501s-69 -152.167 -69 -223.5
c0 -18.667 2.83301 -44.167 8.5 -76.5s12 -58.666 19 -78.999s38.667 -45.166 95 -74.499s92.833 -44 109.5 -44c90.667 0 158.167 29.167 202.5 87.5s66.5 152.833 66.5 283.5c0 75.333 -7.33301 125.666 -22 150.999s-48.5 47 -101.5 65s-105.833 27 -158.5 27z" />
    <glyph glyph-name="yen" unicode="&#xa5;" horiz-adv-x="1321" 
d="M763 766c-1.33301 -1.33301 -2.66113 -3.99609 -3.99414 -7.99609s-3.33301 -8.33301 -6 -13c97.333 9.33301 190.333 32 279 68c16 6.66699 24.333 10 25 10c26.667 0 51.167 -15.667 73.5 -47s33.5 -59 33.5 -83c0 -21.333 -15.5 -39 -46.5 -53s-100.5 -30 -208.5 -48
c-34.667 -6 -91.334 -17.667 -170.001 -35c-4.66699 -24.667 -7 -54 -7 -88c0 -8.66699 2 -21 6 -37c26 9.33301 64.667 17 116 23c14.667 1.33301 37 5 67 11c42.667 10.667 75.667 16 99 16c31.333 0 58.666 -8 81.999 -24s35 -36 35 -60
c0 -20.667 -8 -42.834 -24 -66.501s-77.5 -42 -184.5 -55s-167.5 -19.5 -181.5 -19.5c-3.33301 0 -5 -3.33301 -5 -10c0 -66.667 13 -116 39 -148c-26 -66 -76 -99 -150 -99c-31.333 0 -57.333 13.167 -78 39.5s-32 86.166 -34 179.499
c-12.667 -2 -30.334 -5.66699 -53.001 -11c-104.667 -24.667 -180.334 -37 -227.001 -37c-30.667 0 -56.834 12.167 -78.501 36.5s-32.5 49.166 -32.5 74.499c0 24.667 12.167 45.834 36.5 63.501s53.5 26.5 87.5 26.5c30 0 81 4.33301 153 13s108.667 16.167 110 22.5
s2.33301 28.333 3 66s-0.333008 59.167 -3 64.5c-39.333 0 -110.666 -5.66699 -213.999 -17c-20.667 -2.66699 -34.667 -4 -42 -4c-46 0 -80.333 7.83301 -103 23.5s-34 46.5 -34 92.5c0 62 39 93 117 93c10.667 0 37.334 -3.33301 80.001 -10
c42 -6.66699 64.667 -10 68 -10c49.333 0 84.333 1.66699 105 5c0 20 -11.333 41.333 -34 64c-30 33.333 -55 63.333 -75 90c-20.667 26 -40.667 46.333 -60 61c-30.667 28.667 -66.334 70 -107.001 124c-42 54.667 -71.333 89.667 -88 105
c-27.333 24.667 -46.5 52.167 -57.5 82.5s-16.5 53.166 -16.5 68.499c0 62.667 42.333 94 127 94c19.333 0 36.666 -7.16699 51.999 -21.5s46.666 -58.5 93.999 -132.5c8.66699 -14.667 14.667 -23.667 18 -27c57.333 -78 121 -154 191 -228l17 -17
c24.667 -28.667 50 -55.334 76 -80.001c8.66699 7.33301 20 19 34 35c68 78 110.333 122.667 127 134c24.667 16 56 45 94 87c92 102.667 159.333 165.667 202 189s81.667 35 117 35c22.667 0 43.5 -10.833 62.5 -32.5s28.5 -41.834 28.5 -60.501
c0 -25.333 -14.333 -49.666 -43 -72.999c-273.333 -200 -436 -347.333 -488 -442z" />
    <glyph glyph-name="brokenbar" unicode="&#xa6;" horiz-adv-x="658" 
d="M229 1827l-1.00098 72c-0.666992 54 8.33301 90.167 27 108.5s37.334 27.5 56.001 27.5c34.667 0 64.667 -12.5 90 -37.5s38 -51.5 38 -79.5l-7 -870l-1 -165c-0.666992 -56 -3.5 -92.5 -8.5 -109.5s-15.167 -31.667 -30.5 -44s-34.333 -18.5 -57 -18.5
c-27.333 0 -52 8.5 -74 25.5s-33 37.5 -33 61.5l6 583zM429.999 228c0 -51.333 -0.998047 -157.667 -2.99805 -319l-10 -719c-1.33301 -78.667 -7.33301 -128.334 -18 -149.001s-23.334 -35 -38.001 -43s-32.334 -12 -53.001 -12c-33.333 0 -59.5 10 -78.5 30
s-28.5 42.667 -28.5 68l25 735c2.66699 78.667 4 167.334 4 266.001c0 43.333 -2 92.333 -6 147c-7.33301 85.333 26.667 128 102 128c69.333 0 104 -43.667 104 -131v-1z" />
    <glyph glyph-name="section" unicode="&#xa7;" horiz-adv-x="854" 
d="M601 524c6.66699 -5.33301 11.6689 -8.66699 15.002 -10c56 -38 92.5 -74.5 109.5 -109.5s25.5 -77.833 25.5 -128.5c0 -94 -34.833 -167.5 -104.5 -220.5s-162.834 -79.5 -279.501 -79.5c-127.333 0 -218.333 48.667 -273 146v-1c-18 33.333 -27 62.666 -27 87.999
c0 82.667 22.667 124 68 124c44 0 76.5 -7.83301 97.5 -23.5s38.5 -47.5 52.5 -95.5c13.333 -47.333 47.333 -71 102 -71c40 0 78 11.833 114 35.5s54 47.5 54 71.5c0 56.667 -38 102.334 -114 137.001c-86.667 40 -161 84.333 -223 133s-101 88.667 -117 120
s-24 74 -24 128c0 39.333 12.333 79.666 37 120.999s56 75 94 101c12.667 6.66699 31 18.667 55 36c21.333 15.333 38.666 25.333 51.999 30c-56.667 46.667 -93.667 84.334 -111 113.001v-1c-16.667 30 -25 67 -25 111c0 5.33301 9.83301 38.666 29.5 99.999
s63.834 101.833 132.501 121.5s127 29.5 175 29.5c59.333 0 118.666 -15.5 177.999 -46.5s89 -69.5 89 -115.5c0 -31.333 -13.667 -62.666 -41 -93.999s-57.666 -47 -90.999 -47c-26.667 0 -48.334 19.333 -65.001 58c-17.333 56.667 -47.666 85 -90.999 85
c-18.667 0 -41.5 -6.83301 -68.5 -20.5s-40.5 -28.834 -40.5 -45.501c0 -54 6.83301 -88.5 20.5 -103.5s62.167 -47.5 145.5 -97.5c67.333 -41.333 122.333 -91.166 165 -149.499s64 -119.833 64 -184.5c0 -38.667 -17.833 -82.5 -53.5 -131.5
s-77.834 -86.833 -126.501 -113.5zM501.002 899.999l-32 15.002c-6 2 -9.66699 3.66699 -11 5c-44 0 -81.167 -13.333 -111.5 -40s-45.5 -59.334 -45.5 -98.001c0 -40.667 8.83301 -72 26.5 -94s55.834 -47.667 114.501 -77c4.66699 4 13.334 10 26.001 18
c25.333 15.333 48.666 35.666 69.999 60.999s32 50 32 74c0 28 -6.83301 56.167 -20.5 84.5s-29.834 45.5 -48.501 51.5z" />
    <glyph glyph-name="dieresis" unicode="&#xa8;" horiz-adv-x="717" 
d="M527 1209c-33.333 0 -62.499 11.501 -87.499 34.501s-37.5 49.833 -37.5 80.5c0 38 10.167 64.167 30.5 78.5s54.166 27.166 101.499 38.499l17 5c28 8 54.833 3.5 80.5 -13.5s38.5 -46.167 38.5 -87.5c0 -90.667 -47.667 -136 -143 -136zM168.001 1183
c-28.667 0 -59.834 8.33301 -93.501 25s-50.5 35 -50.5 55c0 99.333 34.667 149 104 149c52.667 0 94.834 -13.667 126.501 -41s47.5 -66 47.5 -116c0 -48 -44.667 -72 -134 -72z" />
    <glyph glyph-name="copyright" unicode="&#xa9;" horiz-adv-x="1954" 
d="M1251 1268c18.667 -1.33301 73.5 -9.49902 164.5 -24.499s162.5 -33.833 214.5 -56.5s97.167 -47.5 135.5 -74.5s66 -51.5 83 -73.5s33.833 -55.167 50.5 -99.5s25 -70.833 25 -79.5c0 -94 -49 -195 -147 -303s-275.833 -213.833 -533.5 -317.5
s-467.167 -155.5 -628.5 -155.5c-32 0 -90 11.333 -174 34s-141 44.5 -171 65.5s-60.167 61.5 -90.5 121.5s-45.5 103 -45.5 129c0 42.667 16.833 131.667 50.5 267s99 271 196 407s208.5 234.167 334.5 294.5s225.333 90.5 298 90.5c48 0 102 -21.5 162 -64.5
s90 -81.833 90 -116.5c0 -8.66699 -4.66699 -23.334 -14 -44.001zM1067 1133l-2.00195 0.999023c-38 8 -60.5 17 -67.5 27s-8.5 37.667 -4.5 83c30.667 13.333 58.334 21 83.001 23c-10 18 -18 28.833 -24 32.5s-19 5.5 -39 5.5c-43.333 0 -116.5 -30 -219.5 -90
s-202.833 -175.167 -299.5 -345.5s-145 -312.166 -145 -425.499c0 -48 30.167 -90.333 90.5 -127s120.833 -55 181.5 -55c173.333 0 370.833 49.833 592.5 149.5s364.667 193 429 280s96.5 149.167 96.5 186.5c0 29.333 -44.667 74.5 -134 135.5
s-268.666 100.833 -537.999 119.5zM760.998 967l-0.999023 0.000976562c104 81.333 195.333 122 274 122c49.333 0 93.666 -18.667 132.999 -56s59 -80 59 -128c0 -19.333 -3.5 -34.833 -10.5 -46.5s-24.5 -24.334 -52.5 -38.001s-51.333 -20.5 -70 -20.5
c-45.333 0 -70.666 33 -75.999 99c-6.66699 3.33301 -13 5 -19 5c-20 0 -58.167 -24.5 -114.5 -73.5s-84.5 -110.833 -84.5 -185.5c0 -48 26 -72 78 -72c70.667 0 148 17 232 51s139 73 165 117c12.667 20.667 37 31 73 31c38 0 57 -18 57 -54
c0 -42.667 -36.333 -92.667 -109 -150s-148.334 -97.333 -227.001 -120l-66 -19c-70 -22 -124 -33 -162 -33c-68 0 -125.5 24.667 -172.5 74s-70.5 104.333 -70.5 165c0 56.667 16 117 48 181s70.667 114.333 116 151z" />
    <glyph glyph-name="ordfeminine" unicode="&#xaa;" horiz-adv-x="969" 
d="M588 877c-120.667 -125.333 -227.001 -188 -319.001 -188c-48 0 -88.833 18.167 -122.5 54.5s-50.5 82.5 -50.5 138.5c0 120 55 252.333 165 397s226 217 348 217c52.667 0 94.334 -28.667 125.001 -86c58 -6 87 -32 87 -78c0 -15.333 -4.66699 -48 -14 -98
c-19.333 -78.667 -29 -156.667 -29 -234c0 -92 12 -144.333 36 -157c36 -20 54 -44.667 54 -74c0 -22.667 -14.833 -45.167 -44.5 -67.5s-58.5 -33.5 -86.5 -33.5c-83.333 0 -133 69.667 -149 209zM578.999 1312c-57.333 0 -118.499 -48.5 -183.499 -145.5
s-97.5 -178.5 -97.5 -244.5c0 -11.333 1.66699 -21.833 5 -31.5s5.66602 -14.5 6.99902 -14.5c23.333 0 61.333 20.5 114 61.5s97.167 93 133.5 156s54.5 118.167 54.5 165.5c0 35.333 -11 53 -33 53z" />
    <glyph glyph-name="guillemotleft" unicode="&#xab;" horiz-adv-x="1493" 
d="M779 1002c0 -40 -42.6699 -85.667 -128.003 -137c-11.333 -11.333 -27.333 -23.333 -48 -36c-25.333 -14.667 -45.333 -27.667 -60 -39c-57.333 -50 -116.666 -82.333 -177.999 -97c-6 -1.33301 -11 -3.66602 -15 -6.99902c247.333 -166 381.666 -282.667 402.999 -350
c0 -20.667 -9.5 -41.167 -28.5 -61.5s-39.5 -30.5 -61.5 -30.5c-28 0 -77 28 -147 84c-19.333 14.667 -39.666 29.334 -60.999 44.001c-62.667 43.333 -112.667 79.333 -150 108c-40 31.333 -91 62.666 -153 93.999c-43.333 22 -66.333 35 -69 39
c-28 21.333 -42 51.666 -42 90.999c0 28 7.33301 49.333 22 64s47.334 26 98.001 34c55.333 10 133 50.667 233 122c176 124.667 271.667 187 287 187c25.333 0 47.333 -10.333 66 -31s29.334 -43.667 32.001 -69v-9zM1460 1000
c0 -63.333 -40.668 -109.666 -122.001 -138.999c-45.333 -16.667 -174.666 -85.334 -387.999 -206.001c8 -5.33301 18 -11.666 30 -18.999c14 -8.66699 69.167 -47.5 165.5 -116.5s154.666 -114.5 174.999 -136.5s30.5 -43 30.5 -63c0 -22 -10.333 -41.833 -31 -59.5
s-42.667 -26.5 -66 -26.5c-26 0 -60 18 -102 54c-53.333 39.333 -176.666 122.333 -369.999 249c-81.333 43.333 -122 83.666 -122 120.999c0 19.333 4.33301 35 13 47s45 39.167 109 81.5s189.667 104.833 377 187.5c1.33301 0 23.333 17.667 66 53
c50 41.333 91.333 62 124 62c25.333 0 49 -9 71 -27s35 -37.333 39 -58z" />
    <glyph glyph-name="logicalnot" unicode="&#xac;" horiz-adv-x="1471" 
d="M1075 272l-1.00195 14c-1.33301 18 2.33398 75.667 11.001 173c7.33301 83.333 11 129 11 137c0 16.667 -4 26.334 -12 29.001c-60 0 -110.667 -2.66699 -152 -8c-110 -14 -252 -21 -426 -21l-248 5h-103c-26 0 -44.667 6.16699 -56 18.5s-17 39.5 -17 81.5
c0 11.333 6.16699 25.166 18.5 41.499s24.333 27.833 36 34.5s36.167 12 73.5 16s93.666 6 168.999 6c29.333 0 62.333 -3 99 -9c36 -5.33301 64 -8 84 -8c10.667 0 45.667 3.33301 105 10c58.667 6 95.667 9 111 9c16 0 38 1.33301 66 4c140 13.333 225.667 20 257 20
c19.333 0 50 -3.5 92 -10.5s70.667 -16.5 86 -28.5s23 -31.667 23 -59l-6 -216c-2 -76 -4.66699 -137.333 -8 -184s-8.66602 -75.667 -15.999 -87s-21.166 -22.5 -41.499 -33.5s-38.5 -16.5 -54.5 -16.5c-20 0 -40.5 9 -61.5 27s-34.167 36.333 -39.5 55z" />
    <glyph glyph-name="uni00AD" unicode="&#xad;" horiz-adv-x="1309" 
d="M517 682c154 0 264.333 4.33203 331 12.999c28 4 57.667 6 89 6c15.333 0 46.333 -8.33301 93 -25s74.667 -34.167 84 -52.5s14 -35.166 14 -50.499c0 -62 -38.667 -93 -116 -93c-8.66699 0 -41.667 7 -99 21c-11.333 2.66699 -19.333 4 -24 4l-91 -6
c-14 0 -65 3.33301 -153 10c-27.333 2 -110.333 -0.666992 -249 -8c-78.667 -4 -131.5 0.333008 -158.5 13s-40.5 36 -40.5 70c0 36 24.167 63.167 72.5 81.5s106.5 27.5 174.5 27.5c16 0 40.333 -3.66699 73 -11z" />
    <glyph glyph-name="registered" unicode="&#xae;" horiz-adv-x="1911" 
d="M741 1300c0 80 10.665 128.831 31.998 146.498s57.833 32.334 109.5 44.001s99.167 17.5 142.5 17.5c97.333 0 186.333 -12.667 267 -38s140.5 -52.166 179.5 -80.499s91.333 -80.166 157 -155.499s114.334 -142 146.001 -200s47.5 -103.667 47.5 -137
c0 -75.333 -8.66699 -140 -26 -194c-12.667 -40 -45.334 -94.833 -98.001 -164.5s-105.667 -124.167 -159 -163.5c-40.667 -30 -137.667 -80.667 -291 -152c-66 -31.333 -175.667 -65.666 -329 -102.999c-76 -18.667 -169 -28 -279 -28l-122 8
c-65.333 4 -145 41.667 -239 113s-151 137.166 -171 197.499s-30 108.166 -30 143.499c0 38.667 13.167 88.5 39.5 149.5s65.333 128 117 201s91.334 120.667 119.001 143s104.834 72.833 231.501 151.5c90 55.333 142 89 156 101zM1068 1345
c3.33301 -2.66699 7.00391 -5.33398 11.0039 -8.00098c86.667 -58 130 -110 130 -156c0 -15.333 -15.667 -48 -47 -98c-66.667 50.667 -106.334 77.5 -119.001 80.5s-39 4.5 -79 4.5c-42 0 -114.333 -25 -217 -75s-204.5 -126.333 -305.5 -229s-151.5 -189 -151.5 -259
c0 -91.333 14.167 -155.166 42.5 -191.499s77.666 -67.5 147.999 -93.5s137.833 -39 202.5 -39c148 0 277.667 21.5 389 64.5s210.166 84 296.499 123s151.166 94.833 194.499 167.5s65 146 65 220c0 120 -68.167 231.5 -204.5 334.5s-254.833 154.5 -355.5 154.5z
M932.002 630.998c0 -5.33301 0.333984 -23.832 1.00098 -55.499s-4.83301 -59.334 -16.5 -83.001s-24.5 -41.834 -38.5 -54.501s-30 -19 -48 -19c-22.667 0 -45.167 9.33301 -67.5 28s-36.166 40.667 -41.499 66v306c0 21.333 -6 37.666 -18 48.999
c-26 24.667 -39 47.334 -39 68.001c0 14.667 8.16699 31 24.5 49s33.666 29.5 51.999 34.5s62.166 10.833 131.499 17.5s115.333 10 138 10c67.333 0 126.5 -27 177.5 -81s76.5 -94.333 76.5 -121c0 -17.333 -11.833 -36.5 -35.5 -57.5s-54.5 -37.833 -92.5 -50.5
c13.333 -4 24 -7.66699 32 -11c8 -4 18 -8.33301 30 -13c97.333 -35.333 158 -60.666 182 -75.999s36 -35.333 36 -60c0 -15.333 -12.667 -32.166 -38 -50.499s-49 -27.5 -71 -27.5c-28.667 0 -53.667 4.16699 -75 12.5s-70.666 31.166 -147.999 68.499
c-76.667 36 -127.334 53 -152.001 51zM903.003 866.999c0 -35.333 1.33398 -67.667 4.00098 -97c25.333 14 78.666 39.667 159.999 77c0 30.667 -25 46 -75 46c-2 0 -16.667 -3.83301 -44 -11.5s-42.333 -12.5 -45 -14.5z" />
    <glyph glyph-name="uni00AF" unicode="&#xaf;" horiz-adv-x="850" 
d="M851 1750c-16 0 -50.6709 3 -104.004 9c-53.333 5.33301 -88.333 8 -105 8c-37.333 0 -117 -4 -239 -12c-122 -8.66699 -202 -13 -240 -13c-11.333 0 -39 1.33301 -83 4s-71.667 4 -83 4c-40.667 0 -61 22 -61 66c0 16 5.83301 29.833 17.5 41.5s26.167 17.5 43.5 17.5
l154 10c24.667 0 58.334 -1.33301 101.001 -4s83.334 -4 122.001 -4c30.667 0 75.334 3 134.001 9c60 5.33301 106 8 138 8c10.667 0 44.334 -3 101.001 -9c57.333 -6.66699 92 -10 104 -10c40.667 0 61 -24.667 61 -74c0 -20 -4.16699 -33.5 -12.5 -40.5
s-24.5 -10.5 -48.5 -10.5z" />
    <glyph glyph-name="degree" unicode="&#xb0;" horiz-adv-x="1034" 
d="M497 775c-96 0 -174.998 27.668 -236.998 83.001s-93 126.666 -93 213.999c0 52.667 33.667 123.5 101 212.5s134 133.5 200 133.5l137 12c23.333 0 61.666 -7.33301 114.999 -22s98.166 -59.167 134.499 -133.5s54.5 -126.5 54.5 -156.5
c0 -89.333 -40 -168.833 -120 -238.5s-177.333 -104.5 -292 -104.5zM727.002 1095c0 42.667 -6.99707 81.332 -20.9971 115.999s-29.333 52 -46 52c-10.667 0 -25.334 -5.66699 -44.001 -17s-31.334 -17 -38.001 -17c-10.667 0 -25.667 2 -45 6c-19.333 3.33301 -33 5 -41 5
c-30.667 0 -58.5 -19.667 -83.5 -59s-37.5 -78.666 -37.5 -117.999c0 -31.333 16 -59.5 48 -84.5s62.667 -37.5 92 -37.5c41.333 0 78.666 4.5 111.999 13.5s59 32 77 69s27 60.5 27 70.5v1z" />
    <glyph glyph-name="plusminus" unicode="&#xb1;" horiz-adv-x="1165" 
d="M679 689c-5.33301 -24.667 -7.99902 -44.665 -7.99902 -59.998c0 -44.667 1.66699 -92 5 -142c2 -38.667 3 -67.667 3 -87c0 -23.333 -13.833 -45.333 -41.5 -66s-54.167 -31 -79.5 -31c-22.667 0 -43.667 8.83301 -63 26.5s-29 34.5 -29 50.5c0 14 3 39 9 75
c12.667 76.667 16.334 155 11.001 235h-1c-20.667 0 -65 -2 -133 -6c-68.667 -4.66699 -108.334 -7 -119.001 -7h-53c-55.333 0 -89.5 7.16699 -102.5 21.5s-20.833 56.166 -23.5 125.499c26.667 32.667 88.667 49 186 49l255 4c6 21.333 9 53 9 95l-6 74
c4 32 6 59.667 6 83c0 45.333 5.5 75.333 16.5 90s36.5 22 76.5 22c48.667 0 80.667 -9.33301 96 -28s23 -47.334 23 -86.001c0 -32 -8 -120 -24 -264c23.333 0 56.666 -1 99.999 -3c42.667 -2.66699 72 -4 88 -4c4 0 19.667 3 47 9c26.667 5.33301 46.667 8 60 8
c28.667 0 53.167 -9.33301 73.5 -28s30.5 -40.334 30.5 -65.001c0 -21.333 -8.16699 -43.166 -24.5 -65.499s-35.833 -33.5 -58.5 -33.5l-126 9h-127zM1076 76.002c0 -22.667 -11.001 -43.832 -33.001 -63.499s-79 -29.5 -171 -29.5c-19.333 0 -62.333 3 -129 9
c-67.333 5.33301 -114.666 8 -141.999 8l-254 -4c-106.667 0 -172 1.66699 -196 5s-43.333 14.166 -58 32.499s-22 34.833 -22 49.5c0 22.667 9.5 45 28.5 67s42.167 33 69.5 33c8.66699 0 33 3.33301 73 10s67 10 81 10c58.667 0 167.334 -6 326.001 -18
c30 -2.66699 54 -4 72 -4l163 4c85.333 0 138.666 -8.66699 159.999 -26s32 -44.333 32 -81v-2z" />
    <glyph glyph-name="twosuperior" unicode="&#xb2;" horiz-adv-x="897" 
d="M498 1270c-32 -4 -75.667 -17.667 -131 -41c-5.33301 -3.33301 -11.333 -6.33301 -18 -9c-30 -12 -45.667 -22 -47 -30c-17.333 -25.333 -38.333 -38 -63 -38c-28 0 -50.333 11.5 -67 34.5s-25 50.5 -25 82.5c0 28 6 49.5 18 64.5s47.333 31.167 106 48.5
c35.333 11.333 68.333 23.666 99 36.999c24.667 10.667 56.167 20.334 94.5 29.001s63.5 13 75.5 13c42.667 0 79.667 -15 111 -45s47 -62.667 47 -98c0 -16.667 -6.33301 -45.167 -19 -85.5s-26.834 -69.166 -42.501 -86.499s-63.167 -74 -142.5 -170l-131 -160
c-13.333 -16 -20.333 -24.667 -21 -26c19.333 10 65.333 21 138 33l221 35c52 11.333 84.667 17 98 17c33.333 0 60.833 -11.667 82.5 -35s32.5 -52 32.5 -86c0 -24.667 -11.333 -47.334 -34 -68.001s-51 -31 -85 -31c-12 0 -33.667 4.33301 -65 13
c-52.667 13.333 -207 -19.334 -463 -98.001c-56 -17.333 -98 -26 -126 -26c-36 0 -65.5 9.33301 -88.5 28s-34.5 42.667 -34.5 72c0 39.333 33.667 99 101 179s161 182.333 281 307c50.667 50.667 83.334 97.334 98.001 140.001z" />
    <glyph glyph-name="threesuperior" unicode="&#xb3;" horiz-adv-x="791" 
d="M491 651l1.00293 0.00292969c-158.667 -67.333 -284 -101 -376 -101c-22.667 0 -43.5 10.5 -62.5 31.5s-28.5 41.833 -28.5 62.5c0 48.667 14 84 42 106h-2c23.333 17.333 61.666 26 114.999 26c12.667 0 23.334 -2.33301 32.001 -7c22 0 52.667 5.33301 92 16h-1
c5.33301 2 14.666 4.33301 27.999 7c44 7.33301 98.333 32.666 163 75.999s97 76.666 97 99.999c0 3.33301 -8.66699 5 -26 5c-12.667 0 -45.667 -3.83301 -99 -11.5s-88 -14.167 -104 -19.5c-18.667 -8 -37 -12 -55 -12c-30.667 0 -56.167 8.33301 -76.5 25
s-30.5 40 -30.5 70c0 19.333 12.5 42.166 37.5 68.499s48.167 39.5 69.5 39.5c9.33301 0 19 -1.66699 29 -5c8 -2.66699 40.833 15.5 98.5 54.5s90.5 72.167 98.5 99.5c-32.667 0 -60.834 -3.66699 -84.501 -11s-59.5 -25 -107.5 -53c-45.333 -26.667 -85.333 -40 -120 -40
c-25.333 0 -47.5 12 -66.5 36s-28.5 45.667 -28.5 65c0 50.667 57.667 88.667 173 114c34 7.33301 63 15 87 23c88.667 30 153 45 193 45c49.333 0 88.666 -11.833 117.999 -35.5s44 -56.167 44 -97.5c0 -51.333 -34.333 -111 -103 -179c106.667 -22 160 -73 160 -153
c0 -53.333 -33.167 -117 -99.5 -191s-135.5 -125.333 -207.5 -154z" />
    <glyph glyph-name="acute" unicode="&#xb4;" horiz-adv-x="758" 
d="M423 1195h1.00098c-15.333 -15.333 -70 -55.333 -164 -120c-34.667 -24 -55.334 -38.667 -62.001 -44c-5.33301 -5.33301 -14.333 -8 -27 -8c-26 0 -46.667 8.16699 -62 24.5s-23 36.5 -23 60.5c0 39.333 47.667 95.333 143 168h-1l70 55c116.667 94 190.5 151 221.5 171
s53.833 30 68.5 30c17.333 0 36.833 -16.333 58.5 -49s32.5 -57.334 32.5 -74.001c0 -14.667 -9.33301 -33.167 -28 -55.5s-41.667 -40.166 -69 -53.499c-30.667 -13.333 -83.667 -48.333 -159 -105z" />
    <glyph glyph-name="uni00B5" unicode="&#xb5;" horiz-adv-x="1514" 
d="M995 303c-69.333 -78 -139.501 -140.5 -210.501 -187.5s-126.5 -70.5 -166.5 -70.5c-88.667 0 -150.334 24.333 -185.001 73l-40 -279c-8.66699 -62 -18.334 -113.667 -29.001 -155v2c-14 -53.333 -46 -80 -96 -80c-38 0 -67.333 15.833 -88 47.5s-31 69.167 -31 112.5
c0 40.667 22.333 171 67 391c16.667 84.667 31.667 167.667 45 249c48.667 298.667 84.334 480.334 107.001 545.001s68 97 136 97c70 0 105 -47 105 -141c0 -22.667 -13.667 -75 -41 -157c-43.333 -127.333 -65 -250.333 -65 -369c0 -10 9 -31.333 27 -64
s28.333 -49 31 -49c48.667 0 100.5 14.667 155.5 44s102.833 66.5 143.5 111.5s70.334 85.333 89.001 121s39.334 113.167 62.001 232.5c3.33301 17.333 6.66602 32.666 9.99902 45.999c2.66699 13.333 4.66699 24.666 6 33.999c20 99.333 52.667 149 98 149
c27.333 0 62.166 -7.16699 104.499 -21.5s63.5 -34.166 63.5 -59.499c0 -13.333 -2.33301 -29 -7 -47c-5.33301 -18.667 -11.666 -42.667 -18.999 -72c-1.33301 -8.66699 -4 -20 -8 -34c-36 -115.333 -54 -197.333 -54 -246c0 -48 5.16699 -108 15.5 -180
s20.5 -108 30.5 -108c13.333 0 33 5.66699 59 17c30.667 13.333 50.334 20 59.001 20c22.667 0 41.667 -8.66699 57 -26s23 -36.333 23 -57c0 -29.333 -19.833 -64 -59.5 -104s-103.5 -60 -191.5 -60c-82 0 -144.333 72.667 -187 218c-6 20 -9.66699 31.333 -11 34
c-1.33301 3.33301 -3 11 -5 23z" />
    <glyph glyph-name="paragraph" unicode="&#xb6;" horiz-adv-x="1366" 
d="M1197 -51c-10 -16.667 -26.998 -30.8203 -50.998 -42.4873s-44.333 -17.5 -61 -17.5c-64.667 0 -109.167 61.833 -133.5 185.5s-36.5 230.834 -36.5 321.501c0 161.333 20 355.666 60 582.999c26.667 149.333 40 231.666 40 246.999c0 4 -9.66699 6 -29 6
c-34 0 -102.333 -6.33301 -205 -19s-193.667 -39.334 -273 -80.001s-130.333 -80.667 -153 -120s-34 -73 -34 -101c0 -39.333 27.167 -80.5 81.5 -123.5s95.5 -64.5 123.5 -64.5c1.33301 5.33301 2.66602 12.666 3.99902 21.999c7.33301 51.333 11 117 11 197
c0 55.333 9 94.5 27 117.5s46.667 34.5 86 34.5c54.667 0 82 -29.667 82 -89c0 -49.333 -5.33301 -143 -16 -281c9.33301 2.66699 20 4 32 4c70.667 0 106 -30.333 106 -91c0 -28.667 -6.5 -48.5 -19.5 -59.5s-35.5 -19.5 -67.5 -25.5c-24 -4.66699 -38 -13.667 -42 -27v1
c-10 -32.667 -15 -106 -15 -220v-74c0 -88.667 3.33301 -166.334 10 -233.001c6 -48 9 -79 9 -93c0 -25.333 -12 -48 -36 -68s-48.667 -30 -74 -30c-34.667 0 -65 41.667 -91 125s-39 172 -39 266c0 76.667 3.33301 140 10 190c6 65.333 5.5 103.166 -1.5 113.499
s-32.833 19.833 -77.5 28.5c-40 7.33301 -102.833 48.166 -188.5 122.499s-128.5 157.166 -128.5 248.499c0 55.333 14.167 114.166 42.5 176.499s61.166 107.833 98.499 136.5s104 63.167 200 103.5s193.667 68.166 293 83.499l47 8c84 14 155.667 21 215 21
c56 0 114 -16.833 174 -50.5s90 -72.834 90 -117.501c0 -26 -17.667 -48.667 -53 -68c-11.333 -6.66699 -17 -31.334 -17 -74.001c-2 -38 -13.333 -129.333 -34 -274c-21.333 -144 -33.166 -234.333 -35.499 -271s-3.5 -87.667 -3.5 -153
c0 -114.667 5.66699 -204.334 17 -269.001s27.666 -126.334 48.999 -185.001z" />
    <glyph glyph-name="uni00B7" unicode="&#xb7;" horiz-adv-x="520" 
d="M396 555c-19.333 -21.333 -60.665 -31.999 -123.998 -31.999c-26 0 -60.167 13.333 -102.5 40s-63.5 51.667 -63.5 75c0 19.333 11.167 47.666 33.5 84.999s43.166 60.5 62.499 69.5s55.666 13.5 108.999 13.5c37.333 0 65.5 -23.5 84.5 -70.5s28.5 -83.833 28.5 -110.5
c0 -18 -9.33301 -41.333 -28 -70z" />
    <glyph glyph-name="cedilla" unicode="&#xb8;" horiz-adv-x="633" 
d="M496 -518l1.00098 1c-64 -42.667 -135.333 -64 -214 -64c-61.333 0 -120 12.833 -176 38.5s-84 57.5 -84 95.5c0 22 11 45.333 33 70s45.333 37 70 37c16.667 0 42 -14.333 76 -43s56 -43 66 -43c41.333 0 70.5 3.5 87.5 10.5s32.833 22 47.5 45s22 42.5 22 58.5
c0 14.667 -8.5 28.667 -25.5 42s-33.167 20 -48.5 20c-0.666992 0 -4.66699 -1 -12 -3c-38.667 -12.667 -65.334 -19 -80.001 -19c-61.333 0 -92 27 -92 81l100 254c6.66699 32 40.334 48 101.001 48c19.333 0 37.166 -10 53.499 -30s24.5 -42 24.5 -66
c0 -8.66699 -5.66699 -23.334 -17 -44.001c-23.333 -41.333 -35.333 -70.333 -36 -87c3.33301 -2.66699 12.666 -1.33398 27.999 3.99902c9.33301 3.33301 18 5 26 5c33.333 0 64.5 -6.66699 93.5 -20s51.833 -36.166 68.5 -68.499s25 -82.166 25 -149.499
c0 -24 -14.167 -53.333 -42.5 -88s-60.166 -63 -95.499 -85z" />
    <glyph glyph-name="onesuperior" unicode="&#xb9;" horiz-adv-x="606" 
d="M477 1395c-50 -261.333 -75.665 -449.332 -76.998 -563.999c-2 -86 -14.333 -142.167 -37 -168.5s-52.334 -39.5 -89.001 -39.5c-26 0 -50.5 8.16699 -73.5 24.5s-34.5 35.5 -34.5 57.5c0 57.333 7.33301 148.5 22 273.5s34 234 58 327s49.5 153.667 76.5 182
s58.833 42.5 95.5 42.5c21.333 0 39.666 -9.16699 54.999 -27.5s23 -37.5 23 -57.5c0 -8.66699 -6.33301 -25.334 -19 -50.001z" />
    <glyph glyph-name="ordmasculine" unicode="&#xba;" horiz-adv-x="891" 
d="M758 1331l-0.998047 0.998047c39.333 -57.333 59 -128.666 59 -213.999c0 -37.333 -11.5 -91.166 -34.5 -161.499s-89.833 -133.333 -200.5 -189s-200.667 -83.5 -270 -83.5c-146 0 -219 79.667 -219 239c0 82.667 34 183 102 301l16 30
c42.667 85.333 91.167 145.5 145.5 180.5s122.166 52.5 203.499 52.5c33.333 0 57.5 -5.66699 72.5 -17s30.5 -33 46.5 -65c5.33301 -10 14.666 -20 27.999 -30c30.667 -20 48 -34.667 52 -44zM574.002 1211c-24 16.667 -37.334 29.999 -40.001 39.999
c-1.33301 6.66699 -3 13.667 -5 21c-1.33301 5.33301 -2.5 13.166 -3.5 23.499s-5.5 15.5 -13.5 15.5c-25.333 0 -69.5 -41.333 -132.5 -124s-94.5 -166 -94.5 -250c0 -15.333 0.833008 -27.166 2.5 -35.499s12.334 -17.666 32.001 -27.999s31.167 -15.5 34.5 -15.5
c14.667 0 51.5 14.667 110.5 44s98.167 58 117.5 86v-1c16.667 34.667 25 75.667 25 123c0 60 -11 93.667 -33 101z" />
    <glyph glyph-name="guillemotright" unicode="&#xbb;" horiz-adv-x="1489" 
d="M1473 636c0 -46 -46.998 -90.668 -140.998 -134.001c-30.667 -17.333 -61.667 -38 -93 -62c-42 -33.333 -73.667 -56.666 -95 -69.999c-69.333 -44.667 -123.5 -85 -162.5 -121s-59.833 -55.667 -62.5 -59c-31.333 -39.333 -64.333 -59 -99 -59
c-30.667 0 -56.834 11.167 -78.501 33.5s-32.5 48.5 -32.5 78.5c0 20 12.167 44 36.5 72s81.166 73.5 170.499 136.5s170.333 116.5 243 160.5l-110 86c-106 82 -172.167 134.5 -198.5 157.5s-39.5 44.5 -39.5 64.5s11.333 44.833 34 74.5s45.667 44.5 69 44.5
c36.667 0 84.667 -31.667 144 -95c108 -114.667 210.667 -188.667 308 -222c42.667 -13.333 71.167 -25.5 85.5 -36.5s21.5 -24.833 21.5 -41.5v-8zM154.002 328.999c14 19.333 87.001 69.333 219.001 150c111.333 68 167 111.333 167 130c0 6.66699 -25.333 29 -76 67
c-172.667 129.333 -264.667 214.333 -276 255c0 26 11.167 50.167 33.5 72.5s48.166 33.5 77.499 33.5c36.667 0 100.667 -45.667 192 -137l102 -100c21.333 -14.667 37.666 -25.334 48.999 -32.001c58 -36 99.5 -65.5 124.5 -88.5s37.5 -45.833 37.5 -68.5
c0 -10 -3.5 -22.833 -10.5 -38.5s-12.5 -24.834 -16.5 -27.501c-15.333 -10.667 -32.666 -24 -51.999 -40s-45 -34.667 -77 -56c-78 -51.333 -142.667 -101.666 -194 -150.999c-22 -22 -54.667 -52 -98 -90s-77.333 -57 -102 -57c-42.667 0 -72.667 6.33301 -90 19
s-26 38 -26 76c0 20.667 5.33301 48.334 16 83.001z" />
    <glyph glyph-name="onequarter" unicode="&#xbc;" horiz-adv-x="1696" 
d="M271 724c-34 0 -62.666 16 -85.999 48s-35 66 -35 102c0 12 10.667 68 32 168c4 20.667 6.66699 36 8 46c1.33301 20 11.666 92.333 30.999 217c4 25.333 6.66699 44.333 8 57c0.666992 31.333 10.5 71.833 29.5 121.5s48.167 74.5 87.5 74.5
c35.333 0 62.833 -11 82.5 -33s29.5 -49.333 29.5 -82c0 -18 -6 -63.333 -18 -136c-39.333 -231.333 -62 -373.333 -68 -426c-6 -64 -17 -106.167 -33 -126.5s-38.667 -30.5 -68 -30.5zM835.001 753c-0.666992 1.33301 -11.334 -14 -32.001 -46l-124 -184.5
c-62 -91 -128.667 -218.167 -200 -381.5c-42.667 -103.333 -78.667 -172.166 -108 -206.499s-59.666 -51.5 -90.999 -51.5c-28 0 -52.333 9.5 -73 28.5s-31 40.833 -31 65.5c0 24 40.833 116.167 122.5 276.5s163.167 298.166 244.5 413.499c57.333 79.333 104 155 140 227
l72 136c57.333 108 96 185.333 116 232c48.667 110 97 186.833 145 230.5s90.667 65.5 128 65.5c27.333 0 52 -9 74 -27s33 -39.667 33 -65c0 -18.667 -37 -73.667 -111 -165c-16 -19.333 -28.667 -35.333 -38 -48c-7.33301 -10 -13.333 -17.333 -18 -22
c-33.333 -40.667 -87.666 -147 -162.999 -319c-28.667 -66 -51.334 -110.667 -68.001 -134c-4.66699 -6 -10.667 -14.333 -18 -25zM1169 234c-14 0 -79.665 -10 -196.998 -30c-40.667 -7.33301 -65.334 -11 -74.001 -11c-30 0 -56 9.16699 -78 27.5s-33 40.833 -33 67.5
c0 24 59.167 99.333 177.5 226s201.166 209.667 248.499 249c30.667 25.333 49.667 44.333 57 57c16 28 30 46.5 42 55.5s34 13.5 66 13.5c17.333 0 34.5 -7.66699 51.5 -23s25.5 -29.333 25.5 -42c0 -42 -10 -111 -30 -207c-20 -94 -30.333 -158 -31 -192
c8 -2.66699 28 -4 60 -4c32 0.666992 67.333 0.666992 106 0s69.5 -7.16699 92.5 -19.5s34.5 -29.833 34.5 -52.5c0 -17.333 -10.833 -37 -32.5 -59s-44.834 -33 -69.501 -33l-94 2c-35.333 0.666992 -63.833 0 -85.5 -2s-32.5 -5.33301 -32.5 -10v-225
c0 -5.33301 2.33301 -17 7 -35c4 -18.667 6 -30 6 -34c0 -22 -11.167 -42.833 -33.5 -62.5s-48.166 -29.5 -77.499 -29.5c-36.667 0 -63.5 14.5 -80.5 43.5s-25.5 82.833 -25.5 161.5v168zM1222 532c-52.667 -50.667 -97.333 -100 -134 -148c20 2 40 3.66699 60 5
c19.333 0.666992 36.333 1.66699 51 3z" />
    <glyph glyph-name="onehalf" unicode="&#xbd;" horiz-adv-x="1743" 
d="M359 728c-10.667 -20 -40 -30.0029 -88 -30.0029c-34 0 -60.5 11 -79.5 33s-28.5 50 -28.5 84c0 14 7.33301 41 22 81l-2 -2c4 14.667 8 33.334 12 56.001c18.667 106.667 30.667 168.334 36 185.001c5.33301 16 12.333 44 21 84c26 118 48.833 192.833 68.5 224.5
s48.5 47.5 86.5 47.5c24.667 0 45.667 -9.5 63 -28.5s26 -40.833 26 -65.5c0 -64 -18 -159 -54 -285c-38.667 -135.333 -58 -233.666 -58 -294.999c0 -16 -8.33301 -45.667 -25 -89zM679 582.997l1.00195 -0.000976562l-144 -169c-50 -58 -87 -115.333 -111 -172
c-65.333 -154 -135.333 -231 -210 -231c-26 0 -48.5 8.5 -67.5 25.5s-28.5 38.167 -28.5 63.5c0 40.667 28 89 84 145c7.33301 9.33301 15.666 23.666 24.999 42.999c44 95.333 119.333 205.333 226 330c4.66699 5.33301 11.667 15 21 29c46.667 70 82 115 106 135
c12 10.667 46.167 45.834 102.5 105.501s89.166 99.834 98.499 120.501c6.66699 15.333 17 32 31 50c85.333 142 152.333 235.667 201 281c3.33301 6 18.666 13.667 45.999 23s49.333 14 66 14c41.333 0 62 -20.667 62 -62c0 -49.333 -33.667 -117.333 -101 -204
c-13.333 -16.667 -54.666 -79 -123.999 -187c-56 -86 -150.667 -199.333 -284 -340zM1506 44.9961l1 -0.00195312c-42.667 8 -82 12 -118 12c-32.667 0 -79.5 -3.5 -140.5 -10.5s-97.167 -11.5 -108.5 -13.5c-85.333 -12 -153.666 -18 -204.999 -18
c-10 0 -34 -3.66699 -72 -11c-38.667 -8 -63.667 -12 -75 -12c-32.667 0 -62.334 12 -89.001 36s-40 48.667 -40 74c0 30.667 37.667 71.834 113 123.501s153.666 91.834 234.999 120.501c18 6.66699 47 22.667 87 48c33.333 12.667 76.833 45.5 130.5 98.5
s80.5 86.5 80.5 100.5c0 3.33301 -6 5 -18 5c-37.333 0 -111.333 -15 -222 -45c-72 -20 -115.333 -30 -130 -30c-26.667 0 -49.5 11.5 -68.5 34.5s-28.5 45.5 -28.5 67.5c0 44.667 69.5 82.5 208.5 113.5s237.5 46.5 295.5 46.5c50.667 0 93.667 -20.333 129 -61
s53 -71 53 -91c0 -55.333 -25.5 -118.166 -76.5 -188.499s-116.167 -130.5 -195.5 -180.5h1c-15.333 -10.667 -54.666 -28.334 -117.999 -53.001l43 8c107.333 20 226.333 30 357 30c8.66699 0 27.334 -1.66699 56.001 -5c25.333 -3.33301 44.666 -8.16602 57.999 -14.499
s28 -22.333 44 -48s24 -49.834 24 -72.501c0 -51.333 -35.333 -77 -106 -77c-25.333 0 -60.333 4.33301 -105 13z" />
    <glyph glyph-name="threequarters" unicode="&#xbe;" horiz-adv-x="1790" 
d="M966 823l0.996094 0.999023c-3.33301 -7.33301 -39.666 -65 -108.999 -173l-240 -378c-30 -49.333 -57 -110.333 -81 -183c-36 -89.333 -78 -134 -126 -134c-29.333 0 -54.166 11.167 -74.499 33.5s-30.5 45.5 -30.5 69.5c0 28 15.333 72 46 132v-1
c22 53.333 120 208 294 464c32.667 48 68.334 104 107.001 168l143 240c26 43.333 60.667 90.333 104 141c98 118.667 159.333 195.334 184 230.001c98.667 141.333 173.334 212 224.001 212c48 0 72 -28 72 -84c0 -30 -64.333 -127 -193 -291
c-152 -194.667 -259 -343.667 -321 -447zM618.996 1221c50 -6.66699 88 -16.999 114 -30.999s39 -38 39 -72c0 -94.667 -104.667 -192.667 -314 -294c-1.33301 0 -14.333 -8.66699 -39 -26c-40.667 -31.333 -77.334 -47 -110.001 -47c-28.667 0 -53.667 11.667 -75 35
s-32 45.333 -32 66c0 33.333 45.667 68.666 137 105.999c90.667 37.333 164.334 78 221.001 122c-108.667 -7.33301 -164 -11 -166 -11c-91.333 0 -137 32.667 -137 98c0 30.667 57 74.667 171 132c54 26.667 95.333 50 124 70c-95.333 -4.66699 -182.333 -20.667 -261 -48
c-65.333 -22.667 -107.666 -34 -126.999 -34c-22 0 -42.5 9.83301 -61.5 29.5s-28.5 40.5 -28.5 62.5c0 30.667 47.667 62.834 143 96.501s211.333 50.5 348 50.5c57.333 0 109.166 -8.83301 155.499 -26.5s69.5 -45.834 69.5 -84.501c0 -62 -57 -126.667 -171 -194z
M1636 442l-74.999 -15c-31.333 -3.33301 -52.333 -44 -63 -122v1c-8 -56 -12 -122.333 -12 -199c-6.66699 -84 -37.334 -126 -92.001 -126c-34 0 -62.333 12.5 -85 37.5s-34 55.167 -34 90.5c0 14 8.33301 65 25 153s28 132 34 132c-18.667 0 -48.667 -4.16699 -90 -12.5
s-66.666 -15.166 -75.999 -20.499c-0.666992 0 -10.334 -9.33301 -29.001 -28c-23.333 -22.667 -50.333 -34 -81 -34s-56.167 10 -76.5 30s-30.5 44.333 -30.5 73c0 22.667 61.5 114.167 184.5 274.5s207.167 240.5 252.5 240.5c1.33301 0 4.33301 2 9 6l27 61
c19.333 38.667 58 58 116 58c16.667 0 35 -8.83301 55 -26.5s30 -33.834 30 -48.501c0 -22.667 -18.333 -65.667 -55 -129c2.66699 -13.333 4 -31 4 -53c0 -18 -2.66699 -48.333 -8 -91c-6.66699 -47.333 -10.334 -79.333 -11.001 -96c26.667 13.333 54.334 20 83.001 20
c20.667 0 38.167 -10.5 52.5 -31.5s21.5 -43.167 21.5 -66.5c0 -42 -25.333 -68 -76 -78zM1407 707c-58.667 -62 -101 -113 -127 -153c27.333 8 50.333 13 69 15c18.667 1.33301 28.667 3 30 5z" />
    <glyph glyph-name="questiondown" unicode="&#xbf;" horiz-adv-x="983" 
d="M673 1009c-27.333 0 -54.834 13.668 -82.501 41.001s-41.5 54.666 -41.5 81.999c0 120 45.333 180 136 180c42 0 72 -13.5 90 -40.5s27 -76.833 27 -149.5c0 -12 -14.167 -33.833 -42.5 -65.5s-57.166 -47.5 -86.499 -47.5zM501.999 383.001
c-14 50 -21.0029 105.667 -21.0029 167c0 168 56 252 168 252c65.333 0 98 -37.333 98 -112c0 -16 -10 -43 -30 -81c-14 -25.333 -21 -68 -21 -128c2 -6.66699 4.66699 -14 8 -22c7.33301 -16 19.333 -47.5 36 -94.5s25 -79.5 25 -97.5c0 -24.667 -13.167 -49.667 -39.5 -75
s-59.5 -38 -99.5 -38c-27.333 0 -56 11.667 -86 35c-69.333 -15.333 -133.666 -54.166 -192.999 -116.499s-89 -128.166 -89 -197.499c0 -88 46 -132 138 -132c55.333 0 122 15 200 45s142.333 68 193 114c30 27.333 67 41 111 41c22.667 0 42.834 -9.5 60.501 -28.5
s26.5 -37.167 26.5 -54.5c0 -18 -13.833 -44.167 -41.5 -78.5s-77.167 -76.333 -148.5 -126s-124.333 -81.334 -159 -95.001s-84.667 -23.167 -150 -28.5c-19.333 -1.33301 -37.666 -3 -54.999 -5c-108 -12 -199.833 11.667 -275.5 71s-113.5 126.666 -113.5 201.999
c0 169.333 41.833 302.833 125.5 400.5s194.5 158.5 332.5 182.5z" />
    <glyph glyph-name="Agrave" unicode="&#xc0;" horiz-adv-x="1588" 
d="M403 323c-11.333 -28 -46.168 -89.8369 -104.501 -185.504s-98.833 -149 -121.5 -160s-42.667 -16.5 -60 -16.5c-24 0 -52.833 13.167 -86.5 39.5s-50.5 53.5 -50.5 81.5c0 26 83.667 166.333 251 421c91.333 139.333 174.666 277.333 249.999 414
c151.333 276 243.833 436.5 277.5 481.5s68.167 67.5 103.5 67.5c56.667 0 97.667 -14.667 123 -44c12.667 -9.33301 19 -31.666 19 -66.999c0 -26 -2.33301 -47 -7 -63c122 -372 217.5 -635.167 286.5 -789.5s138.167 -266.166 207.5 -335.499
c34.667 -34.667 55.834 -58 63.501 -70s11.5 -28 11.5 -48c0 -36.667 -13.333 -67.5 -40 -92.5s-58.334 -37.5 -95.001 -37.5c-50.667 0 -102.167 29.333 -154.5 88s-101.666 139.334 -147.999 242.001s-69.5 160.334 -69.5 173.001c0 2.66699 -1.66699 4 -5 4
c-36 0 -116.167 -12.667 -240.5 -38s-224.166 -50 -299.499 -74c-19.333 -6 -36.333 -9 -51 -9c-26 0 -46 6 -60 18zM978.998 628.996c-16 39.333 -63.332 179.333 -141.999 420c-7.33301 22 -12.333 36 -15 42l-284 -540c42 7.33301 85 14 129 20
c29.333 3.33301 104 17.333 224 42c29.333 6 58.666 11.333 87.999 16zM803.999 1761l-46.999 30.999c-28 17.333 -81 56.333 -159 117s-117 110.334 -117 149.001c0 18 14 38.333 42 61s55.333 34 82 34c13.333 0 30.666 -7.66699 51.999 -23s66 -53.666 134 -115l219 -194
c46 -40.667 69 -77 69 -109c0 -62 -33.667 -93 -101 -93c-21.333 0 -79.333 47.333 -174 142z" />
    <glyph glyph-name="Aacute" unicode="&#xc1;" horiz-adv-x="1588" 
d="M403 323c-11.333 -28 -46.168 -89.8369 -104.501 -185.504s-98.833 -149 -121.5 -160s-42.667 -16.5 -60 -16.5c-24 0 -52.833 13.167 -86.5 39.5s-50.5 53.5 -50.5 81.5c0 26 83.667 166.333 251 421c91.333 139.333 174.666 277.333 249.999 414
c151.333 276 243.833 436.5 277.5 481.5s68.167 67.5 103.5 67.5c56.667 0 97.667 -14.667 123 -44c12.667 -9.33301 19 -31.666 19 -66.999c0 -26 -2.33301 -47 -7 -63c122 -372 217.5 -635.167 286.5 -789.5s138.167 -266.166 207.5 -335.499
c34.667 -34.667 55.834 -58 63.501 -70s11.5 -28 11.5 -48c0 -36.667 -13.333 -67.5 -40 -92.5s-58.334 -37.5 -95.001 -37.5c-50.667 0 -102.167 29.333 -154.5 88s-101.666 139.334 -147.999 242.001s-69.5 160.334 -69.5 173.001c0 2.66699 -1.66699 4 -5 4
c-36 0 -116.167 -12.667 -240.5 -38s-224.166 -50 -299.499 -74c-19.333 -6 -36.333 -9 -51 -9c-26 0 -46 6 -60 18zM978.998 628.996c-16 39.333 -63.332 179.333 -141.999 420c-7.33301 22 -12.333 36 -15 42l-284 -540c42 7.33301 85 14 129 20
c29.333 3.33301 104 17.333 224 42c29.333 6 58.666 11.333 87.999 16zM1115 1836h1.00098c-15.333 -15.333 -70 -55.333 -164 -120c-34.667 -24 -55.334 -38.667 -62.001 -44c-5.33301 -5.33301 -14.333 -8 -27 -8c-26 0 -46.667 8.16699 -62 24.5s-23 36.5 -23 60.5
c0 39.333 47.667 95.333 143 168h-1l70 55c116.667 94 190.5 151 221.5 171s53.833 30 68.5 30c17.333 0 36.833 -16.333 58.5 -49s32.5 -57.334 32.5 -74.001c0 -14.667 -9.33301 -33.167 -28 -55.5s-41.667 -40.166 -69 -53.499
c-30.667 -13.333 -83.667 -48.333 -159 -105z" />
    <glyph glyph-name="Acircumflex" unicode="&#xc2;" horiz-adv-x="1588" 
d="M403 323c-11.333 -28 -46.168 -89.8369 -104.501 -185.504s-98.833 -149 -121.5 -160s-42.667 -16.5 -60 -16.5c-24 0 -52.833 13.167 -86.5 39.5s-50.5 53.5 -50.5 81.5c0 26 83.667 166.333 251 421c91.333 139.333 174.666 277.333 249.999 414
c151.333 276 243.833 436.5 277.5 481.5s68.167 67.5 103.5 67.5c56.667 0 97.667 -14.667 123 -44c12.667 -9.33301 19 -31.666 19 -66.999c0 -26 -2.33301 -47 -7 -63c122 -372 217.5 -635.167 286.5 -789.5s138.167 -266.166 207.5 -335.499
c34.667 -34.667 55.834 -58 63.501 -70s11.5 -28 11.5 -48c0 -36.667 -13.333 -67.5 -40 -92.5s-58.334 -37.5 -95.001 -37.5c-50.667 0 -102.167 29.333 -154.5 88s-101.666 139.334 -147.999 242.001s-69.5 160.334 -69.5 173.001c0 2.66699 -1.66699 4 -5 4
c-36 0 -116.167 -12.667 -240.5 -38s-224.166 -50 -299.499 -74c-19.333 -6 -36.333 -9 -51 -9c-26 0 -46 6 -60 18zM978.998 628.996c-16 39.333 -63.332 179.333 -141.999 420c-7.33301 22 -12.333 36 -15 42l-284 -540c42 7.33301 85 14 129 20
c29.333 3.33301 104 17.333 224 42c29.333 6 58.666 11.333 87.999 16zM911.999 1927c-26 -25.333 -47.999 -48.335 -65.999 -69.002c-18.667 -21.333 -36.334 -40.333 -53.001 -57h1c-7.33301 -10 -24 -26.667 -50 -50c-27.333 -25.333 -62 -60.333 -104 -105
c-24.667 -26 -52.667 -39 -84 -39c-24 0 -42 5.5 -54 16.5s-18 38.833 -18 83.5c0 37.333 21 73.333 63 108c10 8.66699 19 17 27 25l73 71c42.667 40.667 83.334 85 122.001 133c70.667 88 127.334 132 170.001 132c45.333 0 99.666 -64.667 162.999 -194
c17.333 -33.333 35 -60.666 53 -81.999c3.33301 -3.33301 10.666 -13 21.999 -29c24.667 -36 54 -71.333 88 -106c22.667 -23.333 36.834 -41 42.501 -53s8.5 -28 8.5 -48c0 -21.333 -10 -42.5 -30 -63.5s-43.333 -31.5 -70 -31.5c-44 0 -92.667 41 -146 123
c-8.66699 14.667 -30.334 43.334 -65.001 86.001c-48.667 59.333 -79.667 109 -93 149z" />
    <glyph glyph-name="Atilde" unicode="&#xc3;" horiz-adv-x="1588" 
d="M403 323c-11.333 -28 -46.168 -89.8369 -104.501 -185.504s-98.833 -149 -121.5 -160s-42.667 -16.5 -60 -16.5c-24 0 -52.833 13.167 -86.5 39.5s-50.5 53.5 -50.5 81.5c0 26 83.667 166.333 251 421c91.333 139.333 174.666 277.333 249.999 414
c151.333 276 243.833 436.5 277.5 481.5s68.167 67.5 103.5 67.5c56.667 0 97.667 -14.667 123 -44c12.667 -9.33301 19 -31.666 19 -66.999c0 -26 -2.33301 -47 -7 -63c122 -372 217.5 -635.167 286.5 -789.5s138.167 -266.166 207.5 -335.499
c34.667 -34.667 55.834 -58 63.501 -70s11.5 -28 11.5 -48c0 -36.667 -13.333 -67.5 -40 -92.5s-58.334 -37.5 -95.001 -37.5c-50.667 0 -102.167 29.333 -154.5 88s-101.666 139.334 -147.999 242.001s-69.5 160.334 -69.5 173.001c0 2.66699 -1.66699 4 -5 4
c-36 0 -116.167 -12.667 -240.5 -38s-224.166 -50 -299.499 -74c-19.333 -6 -36.333 -9 -51 -9c-26 0 -46 6 -60 18zM978.998 628.996c-16 39.333 -63.332 179.333 -141.999 420c-7.33301 22 -12.333 36 -15 42l-284 -540c42 7.33301 85 14 129 20
c29.333 3.33301 104 17.333 224 42c29.333 6 58.666 11.333 87.999 16zM983.999 1698c-17.333 8 -42.998 27.666 -76.998 58.999l-22 20c-8 6 -16.333 13.667 -25 23c-36.667 36 -64.334 54 -83.001 54c-34 0 -76.667 -30.333 -128 -91l1 1
c-40.667 -56.667 -69 -89.5 -85 -98.5s-34.333 -13.5 -55 -13.5c-54.667 0 -82 26.667 -82 80c0 52 38.833 117.5 116.5 196.5s145.834 118.5 204.501 118.5c49.333 0 87.166 -6.16699 113.499 -18.5s53.166 -32.166 80.499 -59.499c44.667 -44.667 81.667 -75.5 111 -92.5
s46.666 -25.5 51.999 -25.5c22.667 0 49 20.667 79 62c14.667 21.333 26.334 37.333 35.001 48c4 4.66699 7.66699 9.66699 11 15c22.667 28.667 46 43 70 43c51.333 0 77 -28.333 77 -85c0 -31.333 -27.333 -84 -82 -158s-112.667 -111 -174 -111
c-58.667 0 -104.667 11 -138 33z" />
    <glyph glyph-name="Adieresis" unicode="&#xc4;" horiz-adv-x="1588" 
d="M403 323c-11.333 -28 -46.168 -89.8369 -104.501 -185.504s-98.833 -149 -121.5 -160s-42.667 -16.5 -60 -16.5c-24 0 -52.833 13.167 -86.5 39.5s-50.5 53.5 -50.5 81.5c0 26 83.667 166.333 251 421c91.333 139.333 174.666 277.333 249.999 414
c151.333 276 243.833 436.5 277.5 481.5s68.167 67.5 103.5 67.5c56.667 0 97.667 -14.667 123 -44c12.667 -9.33301 19 -31.666 19 -66.999c0 -26 -2.33301 -47 -7 -63c122 -372 217.5 -635.167 286.5 -789.5s138.167 -266.166 207.5 -335.499
c34.667 -34.667 55.834 -58 63.501 -70s11.5 -28 11.5 -48c0 -36.667 -13.333 -67.5 -40 -92.5s-58.334 -37.5 -95.001 -37.5c-50.667 0 -102.167 29.333 -154.5 88s-101.666 139.334 -147.999 242.001s-69.5 160.334 -69.5 173.001c0 2.66699 -1.66699 4 -5 4
c-36 0 -116.167 -12.667 -240.5 -38s-224.166 -50 -299.499 -74c-19.333 -6 -36.333 -9 -51 -9c-26 0 -46 6 -60 18zM978.998 628.996c-16 39.333 -63.332 179.333 -141.999 420c-7.33301 22 -12.333 36 -15 42l-284 -540c42 7.33301 85 14 129 20
c29.333 3.33301 104 17.333 224 42c29.333 6 58.666 11.333 87.999 16zM1092 1655c-33.333 0 -62.499 11.501 -87.499 34.501s-37.5 49.833 -37.5 80.5c0 38 10.167 64.167 30.5 78.5s54.166 27.166 101.499 38.499l17 5c28 8 54.833 3.5 80.5 -13.5
s38.5 -46.167 38.5 -87.5c0 -90.667 -47.667 -136 -143 -136zM733 1629c-28.667 0 -59.834 8.33301 -93.501 25s-50.5 35 -50.5 55c0 99.333 34.667 149 104 149c52.667 0 94.834 -13.667 126.501 -41s47.5 -66 47.5 -116c0 -48 -44.667 -72 -134 -72z" />
    <glyph glyph-name="Aring" unicode="&#xc5;" horiz-adv-x="1588" 
d="M594 370l1 -0.00195312c-54.667 -17.333 -92 -26 -112 -26c-26 0 -46 6 -60 18l-150 -264c-53.333 -94.667 -106.666 -142 -159.999 -142c-24 0 -52.833 13.167 -86.5 39.5s-50.5 53.5 -50.5 81.5c0 26 31.667 85 95 177c192 280.667 335.333 513.334 430 698.001
c104.667 204 181 339.333 229 406c-80 47.333 -120 116 -120 206c0 62 29.667 121.5 89 178.5s139 85.5 239 85.5c26 0 63 -11.167 111 -33.5s79.667 -58.833 95 -109.5s23 -80 23 -88c0 -91.333 -54 -169.666 -162 -234.999c0 -13.333 -1 -25.666 -3 -36.999
c-2.66699 -11.333 -4 -22.333 -4 -33c12 -42.667 58.333 -178.334 139 -407.001s147.334 -392.834 200.001 -492.501s104.667 -175.167 156 -226.5c29.333 -29.333 49.666 -51.833 60.999 -67.5s17 -34.5 17 -56.5c0 -36.667 -13.333 -67.5 -40 -92.5
s-58.334 -37.5 -95.001 -37.5c-80 0 -164.833 82.833 -254.5 248.5s-134.5 263.5 -134.5 293.5c0 6.66699 -49 1.83398 -147 -14.499s-178.667 -33.5 -242 -51.5c-15.333 -4.66699 -29.333 -8.66699 -42 -12zM871 1454c75.333 14 112.998 56.999 112.998 128.999
c0 6 -3.33301 19.667 -10 41c-6.66699 20.667 -10 33.667 -10 39c0 3.33301 -7.83301 7.33301 -23.5 12s-25.167 7 -28.5 7h-12l-38 -4c-17.333 0 -32.166 -12.167 -44.499 -36.5s-18.5 -50.833 -18.5 -79.5c0 -25.333 8.83301 -49.666 26.5 -72.999s32.834 -35 45.501 -35z
M966.998 660.997c-14.667 36 -57.999 166 -129.999 390c-6.66699 20.667 -11.334 34 -14.001 40l-265 -501l61 7c16.667 0 103.334 16 260.001 48c29.333 6 58.666 11.333 87.999 16z" />
    <glyph glyph-name="AE" unicode="&#xc6;" horiz-adv-x="2269" 
d="M1283 1380l20.0068 -0.0078125c7.33301 0 15.666 -0.666992 24.999 -2c23.333 0 108.166 7.83301 254.499 23.5s280.5 34.834 402.5 57.501c20 3.33301 34 5.33301 42 6l16 1c120 7.33301 180 -30.667 180 -114c0 -25.333 -14 -49.166 -42 -71.499
s-53.333 -33.5 -76 -33.5l-96 1c-36.667 -0.666992 -101.334 -4.83398 -194.001 -12.501s-173.834 -17 -243.501 -28s-111.834 -20 -126.501 -27s-24.5 -14.667 -29.5 -23s-8.83301 -26.5 -11.5 -54.5c-3.33301 -33.333 -15.333 -92.666 -36 -177.999
c-16 -65.333 -26 -118.666 -30 -159.999c40 0 101 5.33301 183 16s139 19.667 171 27c90.667 22 165 33 223 33c105.333 0 158 -30.667 158 -92c0 -65.333 -39 -106 -117 -122c-13.333 -5.33301 -62 -12.333 -146 -21c-20 -2 -36.333 -4 -49 -6c-24.667 -4 -56 -8 -94 -12
c-219.333 -25.333 -334.833 -44.5 -346.5 -57.5s-24.667 -67.333 -39 -163s-21.5 -159.5 -21.5 -191.5c2.66699 -21.333 16.334 -32 41.001 -32c41.333 0 81.333 2.66699 120 8l86 11c127.333 14.667 228.666 29.334 303.999 44.001c91.333 19.333 151.333 29 180 29
c84 -11.333 126 -50.666 126 -117.999c0 -31.333 -9.66699 -54.666 -29 -69.999c-70 -32 -162.333 -50.667 -277 -56c-108.667 -6 -219.334 -17.333 -332.001 -34c-129.333 -21.333 -221 -32 -275 -32c-44.667 0 -84.334 2.66699 -119.001 8s-59.5 21.333 -74.5 48
s-22.5 64.667 -22.5 114c0 6 1.66699 13.333 5 22c18.667 49.333 36.667 126 54 230c-45.333 -8 -87 -12 -125 -12c-63.333 0 -105.333 0.333008 -126 1s-56.334 8.33398 -107.001 23.001c-54 15.333 -87 23 -99 23c-22.667 0 -62.334 -36 -119.001 -108
c-59.333 -74 -119.333 -144.5 -180 -211.5s-105.167 -108.167 -133.5 -123.5s-63.166 -23 -104.499 -23c-31.333 0 -60.666 13.5 -87.999 40.5s-41 53.167 -41 78.5c0 20.667 12.333 44.5 37 71.5s49.334 40.5 74.001 40.5c6.66699 0 26.5 14.833 59.5 44.5
s67.5 67.834 103.5 114.501c38 48.667 88.667 103 152 163c150 142 288.5 297.833 415.5 467.5s213.167 334.167 258.5 493.5c50 38 90 57 120 57c26 0 53.167 -4.5 81.5 -13.5s44.166 -22.167 47.499 -39.5zM1176.01 1134.99l-131.001 -191
c-12 -17.333 -20.333 -29 -25 -35l-1 -1l-14 -15c-47.333 -53.333 -98.833 -118 -154.5 -194s-80.167 -123.333 -73.5 -142c20.667 -6 38.334 -9 53.001 -9c17.333 0 57.5 2.5 120.5 7.5s106.833 10.833 131.5 17.5z" />
    <glyph glyph-name="Ccedilla" unicode="&#xc7;" horiz-adv-x="1428" 
d="M500 -87c0 -1.33301 -1.33203 -4.99805 -3.99902 -10.998c-14 -31.333 -21 -48.666 -21 -51.999c34.667 -2 73.167 -5.5 115.5 -10.5s77.333 -23.833 105 -56.5s41.5 -85.334 41.5 -158.001c0 -38 -34.5 -86.667 -103.5 -146s-157.167 -89 -264.5 -89
c-30 0 -63.833 5.16699 -101.5 15.5s-63.167 22.166 -76.5 35.499c-44.667 22 -67 52.333 -67 91c0 22 10 42.5 30 61.5s42.667 28.5 68 28.5c29.333 0 69.666 -21.667 120.999 -65c2 -0.666992 5.33301 -2 10 -4c18.667 -8.66699 31.334 -13 38.001 -13
c42 0 77.167 10.167 105.5 30.5s42.5 49.166 42.5 86.499c0 14.667 -10.667 27.667 -32 39s-39.666 17 -54.999 17c-43.333 -13.333 -74 -20 -92 -20c-61.333 0 -92 27.333 -92 82c17.333 42.667 33.666 79.667 48.999 111c14.667 30.667 25.667 56.667 33 78
c-166.667 82.667 -250 220.667 -250 414c0 264 114.5 522.333 343.5 775s453.833 379 674.5 379c89.333 0 160.666 -26.667 213.999 -80s80 -115.666 80 -186.999c0 -84.667 -7.16699 -142.834 -21.5 -174.501s-40.166 -58.667 -77.499 -81s-68 -33.5 -92 -33.5
c-25.333 0 -47.333 9 -66 27s-28 42.333 -28 73c0 21.333 5.66699 52.333 17 93c10.667 40.667 16 74.667 16 102c0 46 -15.667 69 -47 69c-80 0 -183 -50 -309 -150s-232.167 -224.667 -318.5 -374s-129.5 -288 -129.5 -416c0 -77.333 22.333 -142.666 67 -195.999
s110 -80 196 -80c52.667 0 117 13.5 193 40.5s146.667 63.833 212 110.5c66.667 48 111.667 72 135 72c50.667 0 76 -24.667 76 -74c0 -62 -78.333 -140.333 -235 -235s-323.334 -136.334 -500.001 -125.001z" />
    <glyph glyph-name="Egrave" unicode="&#xc8;" horiz-adv-x="1397" 
d="M1278 1240l-308.001 -16.002c-107.333 -6 -199.666 -15.5 -276.999 -28.5s-119.166 -23 -125.499 -30s-10.833 -27.5 -13.5 -61.5c-3.33301 -33.333 -15.333 -92 -36 -176c-16.667 -64 -26.667 -116.333 -30 -157c42.667 0 104 4.33301 184 13s136.667 17 170 25
c96 23.333 170.333 35 223 35c105.333 0 158 -31.333 158 -94c0 -46 -14.667 -77.833 -44 -95.5s-75.333 -29.834 -138 -36.501c-38.667 -4 -82 -10 -130 -18c-25.333 -4 -57 -8 -95 -12c-184.667 -21.333 -293.667 -38 -327 -50h-1c-11.333 -3.33301 -19.833 -11 -25.5 -23
s-15.834 -61.5 -30.501 -148.5s-22 -147.833 -22 -182.5c3.33301 -24.667 18.666 -37 45.999 -37c32 0 116.167 8.83301 252.5 26.5s220.833 29.834 253.5 36.501c91.333 19.333 151 29 179 29c84.667 -12 127 -51.333 127 -118c0 -30.667 -10 -54 -30 -70
c-66.667 -30 -159 -48.667 -277 -56c-91.333 -5.33301 -202 -16.666 -332 -33.999c-116 -24.667 -225.333 -37 -328 -37c-54 0 -93 11.5 -117 34.5s-38.333 58.833 -43 107.5l-3 33c-0.666992 5.33301 5 25.666 17 60.999c26.667 82 59.334 264.333 98.001 547
s58 440 58 472c0 0.666992 -2 3.33398 -6 8.00098c-4.66699 4 -12.5 16.833 -23.5 38.5s-16.5 43.834 -16.5 66.501c0 12 1.33301 21.667 4 29c2.66699 14 17 28 43 42s50.333 21 73 21c31.333 0 63 -2 95 -6c55.333 0 235.333 20 540 60c101.333 13.333 154.333 20 159 20
l14 1c120 8.66699 180 -30 180 -116c0 -16 -10.833 -35.833 -32.5 -59.5s-42.5 -38.167 -62.5 -43.5zM767.999 1731l-46.999 30.998c-28 17.333 -81 56.333 -159 117s-117 110.334 -117 149.001c0 18 14 38.333 42 61s55.333 34 82 34c13.333 0 30.666 -7.66699 51.999 -23
s66 -53.666 134 -114.999l219 -194c46 -40.667 69 -77 69 -109c0 -62 -33.667 -93 -101 -93c-21.333 0 -79.333 47.333 -174 142z" />
    <glyph glyph-name="Eacute" unicode="&#xc9;" horiz-adv-x="1397" 
d="M1278 1240l-308.001 -16.002c-107.333 -6 -199.666 -15.5 -276.999 -28.5s-119.166 -23 -125.499 -30s-10.833 -27.5 -13.5 -61.5c-3.33301 -33.333 -15.333 -92 -36 -176c-16.667 -64 -26.667 -116.333 -30 -157c42.667 0 104 4.33301 184 13s136.667 17 170 25
c96 23.333 170.333 35 223 35c105.333 0 158 -31.333 158 -94c0 -46 -14.667 -77.833 -44 -95.5s-75.333 -29.834 -138 -36.501c-38.667 -4 -82 -10 -130 -18c-25.333 -4 -57 -8 -95 -12c-184.667 -21.333 -293.667 -38 -327 -50h-1c-11.333 -3.33301 -19.833 -11 -25.5 -23
s-15.834 -61.5 -30.501 -148.5s-22 -147.833 -22 -182.5c3.33301 -24.667 18.666 -37 45.999 -37c32 0 116.167 8.83301 252.5 26.5s220.833 29.834 253.5 36.501c91.333 19.333 151 29 179 29c84.667 -12 127 -51.333 127 -118c0 -30.667 -10 -54 -30 -70
c-66.667 -30 -159 -48.667 -277 -56c-91.333 -5.33301 -202 -16.666 -332 -33.999c-116 -24.667 -225.333 -37 -328 -37c-54 0 -93 11.5 -117 34.5s-38.333 58.833 -43 107.5l-3 33c-0.666992 5.33301 5 25.666 17 60.999c26.667 82 59.334 264.333 98.001 547
s58 440 58 472c0 0.666992 -2 3.33398 -6 8.00098c-4.66699 4 -12.5 16.833 -23.5 38.5s-16.5 43.834 -16.5 66.501c0 12 1.33301 21.667 4 29c2.66699 14 17 28 43 42s50.333 21 73 21c31.333 0 63 -2 95 -6c55.333 0 235.333 20 540 60c101.333 13.333 154.333 20 159 20
l14 1c120 8.66699 180 -30 180 -116c0 -16 -10.833 -35.833 -32.5 -59.5s-42.5 -38.167 -62.5 -43.5zM1082 1755h1.00098c-15.333 -15.333 -70 -55.333 -164 -120c-34.667 -24 -55.334 -38.667 -62.001 -44c-5.33301 -5.33301 -14.333 -8 -27 -8
c-26 0 -46.667 8.16699 -62 24.5s-23 36.5 -23 60.5c0 39.333 47.667 95.333 143 168h-1l70 55c116.667 94 190.5 151 221.5 171s53.833 30 68.5 30c17.333 0 36.833 -16.333 58.5 -49s32.5 -57.334 32.5 -74.001c0 -14.667 -9.33301 -33.167 -28 -55.5
s-41.667 -40.166 -69 -53.499c-30.667 -13.333 -83.667 -48.333 -159 -105z" />
    <glyph glyph-name="Ecircumflex" unicode="&#xca;" horiz-adv-x="1397" 
d="M1278 1240l-308.001 -16.002c-107.333 -6 -199.666 -15.5 -276.999 -28.5s-119.166 -23 -125.499 -30s-10.833 -27.5 -13.5 -61.5c-3.33301 -33.333 -15.333 -92 -36 -176c-16.667 -64 -26.667 -116.333 -30 -157c42.667 0 104 4.33301 184 13s136.667 17 170 25
c96 23.333 170.333 35 223 35c105.333 0 158 -31.333 158 -94c0 -46 -14.667 -77.833 -44 -95.5s-75.333 -29.834 -138 -36.501c-38.667 -4 -82 -10 -130 -18c-25.333 -4 -57 -8 -95 -12c-184.667 -21.333 -293.667 -38 -327 -50h-1c-11.333 -3.33301 -19.833 -11 -25.5 -23
s-15.834 -61.5 -30.501 -148.5s-22 -147.833 -22 -182.5c3.33301 -24.667 18.666 -37 45.999 -37c32 0 116.167 8.83301 252.5 26.5s220.833 29.834 253.5 36.501c91.333 19.333 151 29 179 29c84.667 -12 127 -51.333 127 -118c0 -30.667 -10 -54 -30 -70
c-66.667 -30 -159 -48.667 -277 -56c-91.333 -5.33301 -202 -16.666 -332 -33.999c-116 -24.667 -225.333 -37 -328 -37c-54 0 -93 11.5 -117 34.5s-38.333 58.833 -43 107.5l-3 33c-0.666992 5.33301 5 25.666 17 60.999c26.667 82 59.334 264.333 98.001 547
s58 440 58 472c0 0.666992 -2 3.33398 -6 8.00098c-4.66699 4 -12.5 16.833 -23.5 38.5s-16.5 43.834 -16.5 66.501c0 12 1.33301 21.667 4 29c2.66699 14 17 28 43 42s50.333 21 73 21c31.333 0 63 -2 95 -6c55.333 0 235.333 20 540 60c101.333 13.333 154.333 20 159 20
l14 1c120 8.66699 180 -30 180 -116c0 -16 -10.833 -35.833 -32.5 -59.5s-42.5 -38.167 -62.5 -43.5zM920.999 1946c-26 -25.333 -47.999 -48.335 -65.999 -69.002c-18.667 -21.333 -36.334 -40.333 -53.001 -57h1c-7.33301 -10 -24 -26.667 -50 -50
c-27.333 -25.333 -62 -60.333 -104 -105c-24.667 -26 -52.667 -39 -84 -39c-24 0 -42 5.5 -54 16.5s-18 38.833 -18 83.5c0 37.333 21 73.333 63 108c10 8.66699 19 17 27 25l73 71c42.667 40.667 83.334 85 122.001 133c70.667 88 127.334 132 170.001 132
c45.333 0 99.666 -64.667 162.999 -194c17.333 -33.333 35 -60.666 53 -81.999c3.33301 -3.33301 10.666 -13 21.999 -29c24.667 -36 54 -71.333 88 -106c22.667 -23.333 36.834 -41 42.501 -53s8.5 -28 8.5 -48c0 -21.333 -10 -42.5 -30 -63.5s-43.333 -31.5 -70 -31.5
c-44 0 -92.667 41 -146 123c-8.66699 14.667 -30.334 43.334 -65.001 86.001c-48.667 59.333 -79.667 109 -93 149z" />
    <glyph glyph-name="Edieresis" unicode="&#xcb;" horiz-adv-x="1397" 
d="M1278 1240l-308.001 -16.002c-107.333 -6 -199.666 -15.5 -276.999 -28.5s-119.166 -23 -125.499 -30s-10.833 -27.5 -13.5 -61.5c-3.33301 -33.333 -15.333 -92 -36 -176c-16.667 -64 -26.667 -116.333 -30 -157c42.667 0 104 4.33301 184 13s136.667 17 170 25
c96 23.333 170.333 35 223 35c105.333 0 158 -31.333 158 -94c0 -46 -14.667 -77.833 -44 -95.5s-75.333 -29.834 -138 -36.501c-38.667 -4 -82 -10 -130 -18c-25.333 -4 -57 -8 -95 -12c-184.667 -21.333 -293.667 -38 -327 -50h-1c-11.333 -3.33301 -19.833 -11 -25.5 -23
s-15.834 -61.5 -30.501 -148.5s-22 -147.833 -22 -182.5c3.33301 -24.667 18.666 -37 45.999 -37c32 0 116.167 8.83301 252.5 26.5s220.833 29.834 253.5 36.501c91.333 19.333 151 29 179 29c84.667 -12 127 -51.333 127 -118c0 -30.667 -10 -54 -30 -70
c-66.667 -30 -159 -48.667 -277 -56c-91.333 -5.33301 -202 -16.666 -332 -33.999c-116 -24.667 -225.333 -37 -328 -37c-54 0 -93 11.5 -117 34.5s-38.333 58.833 -43 107.5l-3 33c-0.666992 5.33301 5 25.666 17 60.999c26.667 82 59.334 264.333 98.001 547
s58 440 58 472c0 0.666992 -2 3.33398 -6 8.00098c-4.66699 4 -12.5 16.833 -23.5 38.5s-16.5 43.834 -16.5 66.501c0 12 1.33301 21.667 4 29c2.66699 14 17 28 43 42s50.333 21 73 21c31.333 0 63 -2 95 -6c55.333 0 235.333 20 540 60c101.333 13.333 154.333 20 159 20
l14 1c120 8.66699 180 -30 180 -116c0 -16 -10.833 -35.833 -32.5 -59.5s-42.5 -38.167 -62.5 -43.5zM1097 1629c-33.333 0 -62.499 11.501 -87.499 34.501s-37.5 49.833 -37.5 80.5c0 38 10.167 64.167 30.5 78.5s54.166 27.166 101.499 38.499l17 5
c28 8 54.833 3.5 80.5 -13.5s38.5 -46.167 38.5 -87.5c0 -90.667 -47.667 -136 -143 -136zM738 1603c-28.667 0 -59.834 8.33301 -93.501 25s-50.5 35 -50.5 55c0 99.333 34.667 149 104 149c52.667 0 94.834 -13.667 126.501 -41s47.5 -66 47.5 -116
c0 -48 -44.667 -72 -134 -72z" />
    <glyph glyph-name="Igrave" unicode="&#xcc;" horiz-adv-x="645" 
d="M494 992c-14.667 -60.667 -24 -109 -28 -145c0 -19.333 -6.66699 -69 -20 -149c-22 -142.667 -33 -240 -33 -292c0 -88 5.33301 -174.667 16 -260c8 -62 -4.66699 -107.167 -38 -135.5s-66.666 -42.5 -99.999 -42.5c-47.333 0 -81 20.5 -101 61.5s-30 112.167 -30 213.5
c0 62.667 15.667 212 47 448l55 391c11.333 57.333 19.666 110.666 24.999 159.999c8 72.667 17.833 117.5 29.5 134.5s32.5 35 62.5 54s52.667 28.5 68 28.5c38.667 0 68.167 -15.667 88.5 -47s30.5 -69.666 30.5 -114.999zM464 1802l-46.999 30.999
c-28 17.333 -81 56.333 -159 117s-117 110.334 -117 149.001c0 18 14 38.333 42 61s55.333 34 82 34c13.333 0 30.666 -7.66699 51.999 -23s66 -53.666 134 -115l219 -194c46 -40.667 69 -77 69 -109c0 -62 -33.667 -93 -101 -93c-21.333 0 -79.333 47.333 -174 142z" />
    <glyph glyph-name="Iacute" unicode="&#xcd;" horiz-adv-x="645" 
d="M494 992c-14.667 -60.667 -24 -109 -28 -145c0 -19.333 -6.66699 -69 -20 -149c-22 -142.667 -33 -240 -33 -292c0 -88 5.33301 -174.667 16 -260c8 -62 -4.66699 -107.167 -38 -135.5s-66.666 -42.5 -99.999 -42.5c-47.333 0 -81 20.5 -101 61.5s-30 112.167 -30 213.5
c0 62.667 15.667 212 47 448l55 391c11.333 57.333 19.666 110.666 24.999 159.999c8 72.667 17.833 117.5 29.5 134.5s32.5 35 62.5 54s52.667 28.5 68 28.5c38.667 0 68.167 -15.667 88.5 -47s30.5 -69.666 30.5 -114.999zM655 1828h1.00098
c-15.333 -15.333 -70 -55.333 -164 -120c-34.667 -24 -55.334 -38.667 -62.001 -44c-5.33301 -5.33301 -14.333 -8 -27 -8c-26 0 -46.667 8.16699 -62 24.5s-23 36.5 -23 60.5c0 39.333 47.667 95.333 143 168h-1l70 55c116.667 94 190.5 151 221.5 171s53.833 30 68.5 30
c17.333 0 36.833 -16.333 58.5 -49s32.5 -57.334 32.5 -74.001c0 -14.667 -9.33301 -33.167 -28 -55.5s-41.667 -40.166 -69 -53.499c-30.667 -13.333 -83.667 -48.333 -159 -105z" />
    <glyph glyph-name="Icircumflex" unicode="&#xce;" horiz-adv-x="645" 
d="M493 992c-14.667 -60.667 -24 -109 -28 -145c0 -19.333 -6.66699 -69 -20 -149c-22 -142.667 -33 -240 -33 -292c0 -88 5.33301 -174.667 16 -260c8 -62 -4.66699 -107.167 -38 -135.5s-66.666 -42.5 -99.999 -42.5c-47.333 0 -81 20.5 -101 61.5s-30 112.167 -30 213.5
c0 62.667 15.667 212 47 448l55 391c11.333 57.333 19.666 110.666 24.999 159.999c8 72.667 17.833 117.5 29.5 134.5s32.5 35 62.5 54s52.667 28.5 68 28.5c38.667 0 68.167 -15.667 88.5 -47s30.5 -69.666 30.5 -114.999zM521 1907
c-26 -25.333 -47.999 -48.335 -65.999 -69.002c-18.667 -21.333 -36.334 -40.333 -53.001 -57h1c-7.33301 -10 -24 -26.667 -50 -50c-27.333 -25.333 -62 -60.333 -104 -105c-24.667 -26 -52.667 -39 -84 -39c-24 0 -42 5.5 -54 16.5s-18 38.833 -18 83.5
c0 37.333 21 73.333 63 108c10 8.66699 19 17 27 25l73 71c42.667 40.667 83.334 85 122.001 133c70.667 88 127.334 132 170.001 132c45.333 0 99.666 -64.667 162.999 -194c17.333 -33.333 35 -60.666 53 -81.999c3.33301 -3.33301 10.666 -13 21.999 -29
c24.667 -36 54 -71.333 88 -106c22.667 -23.333 36.834 -41 42.501 -53s8.5 -28 8.5 -48c0 -21.333 -10 -42.5 -30 -63.5s-43.333 -31.5 -70 -31.5c-44 0 -92.667 41 -146 123c-8.66699 14.667 -30.334 43.334 -65.001 86.001c-48.667 59.333 -79.667 109 -93 149z" />
    <glyph glyph-name="Idieresis" unicode="&#xcf;" horiz-adv-x="645" 
d="M494 992c-14.667 -60.667 -24 -109 -28 -145c0 -19.333 -6.66699 -69 -20 -149c-22 -142.667 -33 -240 -33 -292c0 -88 5.33301 -174.667 16 -260c8 -62 -4.66699 -107.167 -38 -135.5s-66.666 -42.5 -99.999 -42.5c-47.333 0 -81 20.5 -101 61.5s-30 112.167 -30 213.5
c0 62.667 15.667 212 47 448l55 391c11.333 57.333 19.666 110.666 24.999 159.999c8 72.667 17.833 117.5 29.5 134.5s32.5 35 62.5 54s52.667 28.5 68 28.5c38.667 0 68.167 -15.667 88.5 -47s30.5 -69.666 30.5 -114.999zM687 1690
c-33.333 0 -62.499 11.501 -87.499 34.501s-37.5 49.833 -37.5 80.5c0 38 10.167 64.167 30.5 78.5s54.166 27.166 101.499 38.499l17 5c28 8 54.833 3.5 80.5 -13.5s38.5 -46.167 38.5 -87.5c0 -90.667 -47.667 -136 -143 -136zM328.001 1664
c-28.667 0 -59.834 8.33301 -93.501 25s-50.5 35 -50.5 55c0 99.333 34.667 149 104 149c52.667 0 94.834 -13.667 126.501 -41s47.5 -66 47.5 -116c0 -48 -44.667 -72 -134 -72z" />
    <glyph glyph-name="Eth" unicode="&#xd0;" horiz-adv-x="1623" 
d="M228 585c-12.667 -4 -22.665 -6.66699 -29.998 -8c-42.667 0 -78.334 9.5 -107.001 28.5s-43 45.833 -43 80.5c0 14 7.83301 32.333 23.5 55s30.5 39.5 44.5 50.5s61.333 25.833 142 44.5l39 261c8 44 12 74 12 90c0 12 -5 19 -15 21
c-71.333 19.333 -107 50.666 -107 93.999c0 32 14.5 62.167 43.5 90.5s59.833 42.5 92.5 42.5l134 -4c53.333 0 138 4.66699 254 14c83.333 7.33301 157.666 11 222.999 11c186 0 336.5 -52.167 451.5 -156.5s172.5 -242.5 172.5 -414.5
c0 -192.667 -88.167 -366 -264.5 -520s-391.5 -260 -645.5 -318c-66.667 -14.667 -113.667 -27.334 -141 -38.001s-59.333 -27.667 -96 -51c-45.333 -31.333 -90 -47 -134 -47c-34 0 -64.333 16.333 -91 49s-40 59.334 -40 80.001c0 16.667 7 37 21 61
c20.667 36 34 114.667 40 236c2.66699 68.667 9.66699 151.334 21 248.001zM451.002 211c35.333 0 136.834 26 304.501 78s303 131.667 406 239s154.5 229.333 154.5 366c0 110 -38.333 197.5 -115 262.5s-177.334 97.5 -302.001 97.5c-104.667 0 -202 -7.33301 -292 -22
c-6 -1.33301 -23.667 -3.33301 -53 -6c-21.333 -128.667 -39 -245 -53 -349c84 10.667 166.667 16 248 16c93.333 0 156.333 -7.83301 189 -23.5s49 -45.167 49 -88.5c0 -34 -14.167 -63.667 -42.5 -89s-69.833 -34 -124.5 -26h1c-58 6 -125.667 9 -203 9
c-22.667 0 -71.667 -5.66699 -147 -17c-17.333 -174 -26 -299 -26 -375c0 -34 2 -58 6 -72z" />
    <glyph glyph-name="Ntilde" unicode="&#xd1;" horiz-adv-x="1651" 
d="M175 329l73.001 336.996c56 266.667 85.333 452.667 88 558c2 50.667 5.83301 85.167 11.5 103.5s21 36 46 53s53.5 25.5 85.5 25.5c20.667 0 44.334 -6.66699 71.001 -20s49 -55.666 67 -126.999c28 -115.333 100.333 -268.666 217 -459.999
s221.667 -344.666 315 -459.999c25.333 114.667 53 263.667 83 447c21.333 130.667 41.333 244 60 340c15.333 80 24.666 151 27.999 213c3.33301 58.667 20.833 98 52.5 118s63.5 30 95.5 30c27.333 0 50.833 -15.167 70.5 -45.5s29.5 -68.166 29.5 -113.499
c0 -36 -9.66699 -87 -29 -153c-42 -152.667 -83 -349.667 -123 -591s-60 -379 -60 -413v-34c0 -38.667 -3.33301 -67.334 -10 -86.001s-22.834 -36.167 -48.501 -52.5s-59.167 -24.5 -100.5 -24.5c-24.667 0 -42.5 2.33301 -53.5 7s-25.833 18.167 -44.5 40.5
s-38.334 51.833 -59.001 88.5c-32 55.333 -55.667 93 -71 113c-159.333 202.667 -312.666 439 -459.999 709c-20 -82.667 -50.667 -276 -92 -580l-12 -90c-5.33301 -31.333 -10 -76.666 -14 -135.999c-4.66699 -71.333 -21.834 -122.666 -51.501 -153.999
s-58.167 -47 -85.5 -47c-43.333 0 -74.166 11.167 -92.499 33.5s-27.5 67.166 -27.5 134.499c0 53.333 13.333 130 40 230zM1083 1706c-17.333 8 -42.998 27.666 -76.998 58.999l-22 20c-8 6 -16.333 13.667 -25 23c-36.667 36 -64.334 54 -83.001 54
c-34 0 -76.667 -30.333 -128 -91l1 1c-40.667 -56.667 -69 -89.5 -85 -98.5s-34.333 -13.5 -55 -13.5c-54.667 0 -82 26.667 -82 80c0 52 38.833 117.5 116.5 196.5s145.834 118.5 204.501 118.5c49.333 0 87.166 -6.16699 113.499 -18.5s53.166 -32.166 80.499 -59.499
c44.667 -44.667 81.667 -75.5 111 -92.5s46.666 -25.5 51.999 -25.5c22.667 0 49 20.667 79 62c14.667 21.333 26.334 37.333 35.001 48c4 4.66699 7.66699 9.66699 11 15c22.667 28.667 46 43 70 43c51.333 0 77 -28.333 77 -85c0 -31.333 -27.333 -84 -82 -158
s-112.667 -111 -174 -111c-58.667 0 -104.667 11 -138 33z" />
    <glyph glyph-name="Ograve" unicode="&#xd2;" horiz-adv-x="1642" 
d="M531 -69c-112.667 0 -212.666 54.1699 -299.999 162.503s-131 220.166 -131 335.499c0 136 41.667 288.667 125 458s190.833 307.666 322.5 414.999s269.167 161 412.5 161c111.333 0 203.166 -13.333 275.499 -40s139 -65.834 200 -117.501s101.667 -105 122 -160
s30.5 -130.5 30.5 -226.5c0 -84.667 -27.167 -187.5 -81.5 -308.5s-133.333 -235.167 -237 -342.5s-209.167 -190.333 -316.5 -249s-248 -88 -422 -88zM353.001 438.003c0 -82 24.3311 -150.335 72.998 -205.002s104.667 -82 168 -82
c178.667 0 346.334 85.833 503.001 257.5s235 353.834 235 546.501c0 68 -13 122.833 -39 164.5s-70.167 76.334 -132.5 104.001s-129.166 41.5 -200.499 41.5c-128.667 0 -262 -93 -400 -279s-207 -368.667 -207 -548zM961.999 1783l-46.999 30.998
c-28 17.333 -81 56.333 -159 117s-117 110.334 -117 149.001c0 18 14 38.333 42 61s55.333 34 82 34c13.333 0 30.666 -7.66699 51.999 -23s66 -53.666 134 -114.999l219 -194c46 -40.667 69 -77 69 -109c0 -62 -33.667 -93 -101 -93c-21.333 0 -79.333 47.333 -174 142z
" />
    <glyph glyph-name="Oacute" unicode="&#xd3;" horiz-adv-x="1642" 
d="M531 -69c-112.667 0 -212.666 54.1699 -299.999 162.503s-131 220.166 -131 335.499c0 136 41.667 288.667 125 458s190.833 307.666 322.5 414.999s269.167 161 412.5 161c111.333 0 203.166 -13.333 275.499 -40s139 -65.834 200 -117.501s101.667 -105 122 -160
s30.5 -130.5 30.5 -226.5c0 -84.667 -27.167 -187.5 -81.5 -308.5s-133.333 -235.167 -237 -342.5s-209.167 -190.333 -316.5 -249s-248 -88 -422 -88zM353.001 438.003c0 -82 24.3311 -150.335 72.998 -205.002s104.667 -82 168 -82
c178.667 0 346.334 85.833 503.001 257.5s235 353.834 235 546.501c0 68 -13 122.833 -39 164.5s-70.167 76.334 -132.5 104.001s-129.166 41.5 -200.499 41.5c-128.667 0 -262 -93 -400 -279s-207 -368.667 -207 -548zM1248 1787h1.00098
c-15.333 -15.333 -70 -55.333 -164 -120c-34.667 -24 -55.334 -38.667 -62.001 -44c-5.33301 -5.33301 -14.333 -8 -27 -8c-26 0 -46.667 8.16699 -62 24.5s-23 36.5 -23 60.5c0 39.333 47.667 95.333 143 168h-1l70 55c116.667 94 190.5 151 221.5 171s53.833 30 68.5 30
c17.333 0 36.833 -16.333 58.5 -49s32.5 -57.334 32.5 -74.001c0 -14.667 -9.33301 -33.167 -28 -55.5s-41.667 -40.166 -69 -53.499c-30.667 -13.333 -83.667 -48.333 -159 -105z" />
    <glyph glyph-name="Ocircumflex" unicode="&#xd4;" horiz-adv-x="1642" 
d="M531 -69c-112.667 0 -212.666 54.1699 -299.999 162.503s-131 220.166 -131 335.499c0 136 41.667 288.667 125 458s190.833 307.666 322.5 414.999s269.167 161 412.5 161c111.333 0 203.166 -13.333 275.499 -40s139 -65.834 200 -117.501s101.667 -105 122 -160
s30.5 -130.5 30.5 -226.5c0 -84.667 -27.167 -187.5 -81.5 -308.5s-133.333 -235.167 -237 -342.5s-209.167 -190.333 -316.5 -249s-248 -88 -422 -88zM353.001 438.003c0 -82 24.3311 -150.335 72.998 -205.002s104.667 -82 168 -82
c178.667 0 346.334 85.833 503.001 257.5s235 353.834 235 546.501c0 68 -13 122.833 -39 164.5s-70.167 76.334 -132.5 104.001s-129.166 41.5 -200.499 41.5c-128.667 0 -262 -93 -400 -279s-207 -368.667 -207 -548zM1097 1925
c-26 -25.333 -47.999 -48.335 -65.999 -69.002c-18.667 -21.333 -36.334 -40.333 -53.001 -57h1c-7.33301 -10 -24 -26.667 -50 -50c-27.333 -25.333 -62 -60.333 -104 -105c-24.667 -26 -52.667 -39 -84 -39c-24 0 -42 5.5 -54 16.5s-18 38.833 -18 83.5
c0 37.333 21 73.333 63 108c10 8.66699 19 17 27 25l73 71c42.667 40.667 83.334 85 122.001 133c70.667 88 127.334 132 170.001 132c45.333 0 99.666 -64.667 162.999 -194c17.333 -33.333 35 -60.666 53 -81.999c3.33301 -3.33301 10.666 -13 21.999 -29
c24.667 -36 54 -71.333 88 -106c22.667 -23.333 36.834 -41 42.501 -53s8.5 -28 8.5 -48c0 -21.333 -10 -42.5 -30 -63.5s-43.333 -31.5 -70 -31.5c-44 0 -92.667 41 -146 123c-8.66699 14.667 -30.334 43.334 -65.001 86.001c-48.667 59.333 -79.667 109 -93 149z" />
    <glyph glyph-name="Otilde" unicode="&#xd5;" horiz-adv-x="1642" 
d="M531 -69c-112.667 0 -212.666 54.1699 -299.999 162.503s-131 220.166 -131 335.499c0 136 41.667 288.667 125 458s190.833 307.666 322.5 414.999s269.167 161 412.5 161c111.333 0 203.166 -13.333 275.499 -40s139 -65.834 200 -117.501s101.667 -105 122 -160
s30.5 -130.5 30.5 -226.5c0 -84.667 -27.167 -187.5 -81.5 -308.5s-133.333 -235.167 -237 -342.5s-209.167 -190.333 -316.5 -249s-248 -88 -422 -88zM353.001 438.003c0 -82 24.3311 -150.335 72.998 -205.002s104.667 -82 168 -82
c178.667 0 346.334 85.833 503.001 257.5s235 353.834 235 546.501c0 68 -13 122.833 -39 164.5s-70.167 76.334 -132.5 104.001s-129.166 41.5 -200.499 41.5c-128.667 0 -262 -93 -400 -279s-207 -368.667 -207 -548zM1130 1695c-17.333 8 -42.998 27.666 -76.998 58.999
l-22 20c-8 6 -16.333 13.667 -25 23c-36.667 36 -64.334 54 -83.001 54c-34 0 -76.667 -30.333 -128 -91l1 1c-40.667 -56.667 -69 -89.5 -85 -98.5s-34.333 -13.5 -55 -13.5c-54.667 0 -82 26.667 -82 80c0 52 38.833 117.5 116.5 196.5s145.834 118.5 204.501 118.5
c49.333 0 87.166 -6.16699 113.499 -18.5s53.166 -32.166 80.499 -59.499c44.667 -44.667 81.667 -75.5 111 -92.5s46.666 -25.5 51.999 -25.5c22.667 0 49 20.667 79 62c14.667 21.333 26.334 37.333 35.001 48c4 4.66699 7.66699 9.66699 11 15c22.667 28.667 46 43 70 43
c51.333 0 77 -28.333 77 -85c0 -31.333 -27.333 -84 -82 -158s-112.667 -111 -174 -111c-58.667 0 -104.667 11 -138 33z" />
    <glyph glyph-name="Odieresis" unicode="&#xd6;" horiz-adv-x="1642" 
d="M531 -69c-112.667 0 -212.666 54.1699 -299.999 162.503s-131 220.166 -131 335.499c0 136 41.667 288.667 125 458s190.833 307.666 322.5 414.999s269.167 161 412.5 161c111.333 0 203.166 -13.333 275.499 -40s139 -65.834 200 -117.501s101.667 -105 122 -160
s30.5 -130.5 30.5 -226.5c0 -84.667 -27.167 -187.5 -81.5 -308.5s-133.333 -235.167 -237 -342.5s-209.167 -190.333 -316.5 -249s-248 -88 -422 -88zM353.001 438.003c0 -82 24.3311 -150.335 72.998 -205.002s104.667 -82 168 -82
c178.667 0 346.334 85.833 503.001 257.5s235 353.834 235 546.501c0 68 -13 122.833 -39 164.5s-70.167 76.334 -132.5 104.001s-129.166 41.5 -200.499 41.5c-128.667 0 -262 -93 -400 -279s-207 -368.667 -207 -548zM1222 1691c-33.333 0 -62.499 11.501 -87.499 34.501
s-37.5 49.833 -37.5 80.5c0 38 10.167 64.167 30.5 78.5s54.166 27.166 101.499 38.499l17 5c28 8 54.833 3.5 80.5 -13.5s38.5 -46.167 38.5 -87.5c0 -90.667 -47.667 -136 -143 -136zM863 1665c-28.667 0 -59.834 8.33301 -93.501 25s-50.5 35 -50.5 55
c0 99.333 34.667 149 104 149c52.667 0 94.834 -13.667 126.501 -41s47.5 -66 47.5 -116c0 -48 -44.667 -72 -134 -72z" />
    <glyph glyph-name="multiply" unicode="&#xd7;" horiz-adv-x="1165" 
d="M838 113l0.996094 0.000976562c-24.667 26.667 -56.667 64.334 -96 113.001c-9.33301 10.667 -15.666 17.667 -18.999 21c-27.333 27.333 -64 72.333 -110 135c-10 12.667 -17.667 21.667 -23 27l-61 -69l-50 -58c-4 -4 -6 -6.33301 -6 -7
c-5.33301 -5.33301 -10.666 -11 -15.999 -17c-23.333 -28 -66.666 -73.667 -129.999 -137h1c-22 -23.333 -45.667 -35 -71 -35c-23.333 0 -46.5 11.5 -69.5 34.5s-34.5 43.5 -34.5 61.5c0 16 6.33301 32.167 19 48.5s47.334 47.833 104.001 94.5
c6 4.66699 22.667 20.667 50 48l153 154c-2.66699 0 -29 25.667 -79 77l-141 139c-44 41.333 -69.5 67.166 -76.5 77.499s-10.5 24.166 -10.5 41.499c0 28 10.667 51 32 69s46.666 27 75.999 27c17.333 0 39.666 -9.5 66.999 -28.5s47 -34 59 -45s45.667 -55.5 101 -133.5
c26 -36.667 56 -73 90 -109c40.667 36.667 92 96 154 178c64.667 85.333 122.667 128 174 128c26 0 49.167 -7.5 69.5 -22.5s30.5 -32.167 30.5 -51.5c0 -26.667 -7.33301 -51 -22 -73s-55 -60 -121 -114c-92.667 -75.333 -148.667 -126.333 -168 -153
c0.666992 0 4 -3 10 -9c5.33301 -6 12 -12.667 20 -20c44.667 -45.333 112.334 -120.333 203.001 -225c56 -42.667 84 -80.667 84 -114c0 -18 -8.16699 -38 -24.5 -60s-36.166 -33 -59.499 -33c-47.333 0 -84 13.333 -110 40z" />
    <glyph glyph-name="Oslash" unicode="&#xd8;" horiz-adv-x="1642" 
d="M465 -62c-50.667 -72.667 -90.333 -109.001 -119 -109.001c-28 0 -53.667 11.833 -77 35.5s-35 46.5 -35 68.5c0 10 12.333 36.333 37 79c5.33301 10 9.33301 18 12 24c-52 50.667 -95.333 113.334 -130 188.001s-52 143 -52 205c0 145.333 37.5 302.166 112.5 470.499
s177.833 304.333 308.5 408s277 155.5 439 155.5c78 0 154.667 -9.33301 230 -28c61.333 79.333 111 119 149 119c24 0 49.167 -14.833 75.5 -44.5s39.5 -54.5 39.5 -74.5c0 -14 -16.667 -48.333 -50 -103c77.333 -62 127.333 -121 150 -177s34 -134.667 34 -236
c0 -95.333 -24.333 -205 -73 -329s-128.5 -239.667 -239.5 -347s-222.167 -186.166 -333.5 -236.499s-248.333 -75.5 -411 -75.5c-26.667 0 -49 2.33301 -67 7zM409.001 258.999c18 31.333 45.334 73.6689 82.001 127.002c44.667 66 78.667 118 102 156
c1.33301 3.33301 5 8.66602 11 15.999c17.333 20 147.666 213.333 390.999 580c8.66699 9.33301 32.334 46 71.001 110c-38.667 7.33301 -76.334 11 -113.001 11c-138 0 -273 -82.833 -405 -248.5s-198 -354.5 -198 -566.5c0 -62.667 19.667 -124.334 59 -185.001z
M583.002 148.002c84 0 166.167 17.001 246.5 51.001s156 81.833 227 143.5s130.333 130 178 205s77 137.5 88 187.5s16.5 118 16.5 204c0 79.333 -23 145.666 -69 198.999c-34.667 -43.333 -63.667 -82 -87 -116l-59 -84l1 1l-495 -718z" />
    <glyph glyph-name="Ugrave" unicode="&#xd9;" horiz-adv-x="1583" 
d="M714 -67c-68.667 0 -151.833 22.333 -249.5 67s-172.167 120.5 -223.5 227.5s-77 222.5 -77 346.5c0 63.333 9.33301 147 28 251l32 185c4.66699 31.333 9.66699 62 15 92c8 46 15 90.333 21 133c9.33301 73.333 25.666 128.5 48.999 165.5s59.333 55.5 108 55.5
c24 0 48.5 -18.833 73.5 -56.5s37.5 -66.5 37.5 -86.5c0 -14 -16 -87.333 -48 -220c-8 -33.333 -21.833 -114.833 -41.5 -244.5s-29.5 -217.5 -29.5 -263.5c0 -170 37.167 -284.667 111.5 -344s137.166 -89 188.499 -89c169.333 0 286.333 36.167 351 108.5
s106 190.5 124 354.5c3.33301 30 7.33301 58.333 12 85c6.66699 68 12.334 133 17.001 195c16 235.333 39.167 382.666 69.5 441.999s73.5 89 129.5 89c69.333 0 104 -45 104 -135c0 -53.333 -13 -152.666 -39 -297.999c-15.333 -87.333 -25.666 -173 -30.999 -257
c-12 -202 -39.667 -350 -83 -444s-121.833 -177.333 -235.5 -250s-251.5 -109 -413.5 -109zM810.001 1771l-46.999 30.999c-28 17.333 -81 56.333 -159 117s-117 110.334 -117 149.001c0 18 14 38.333 42 61s55.333 34 82 34c13.333 0 30.666 -7.66699 51.999 -23
s66 -53.666 134 -115l219 -194c46 -40.667 69 -77 69 -109c0 -62 -33.667 -93 -101 -93c-21.333 0 -79.333 47.333 -174 142z" />
    <glyph glyph-name="Uacute" unicode="&#xda;" horiz-adv-x="1583" 
d="M714 -67c-68.667 0 -151.833 22.333 -249.5 67s-172.167 120.5 -223.5 227.5s-77 222.5 -77 346.5c0 63.333 9.33301 147 28 251l32 185c4.66699 31.333 9.66699 62 15 92c8 46 15 90.333 21 133c9.33301 73.333 25.666 128.5 48.999 165.5s59.333 55.5 108 55.5
c24 0 48.5 -18.833 73.5 -56.5s37.5 -66.5 37.5 -86.5c0 -14 -16 -87.333 -48 -220c-8 -33.333 -21.833 -114.833 -41.5 -244.5s-29.5 -217.5 -29.5 -263.5c0 -170 37.167 -284.667 111.5 -344s137.166 -89 188.499 -89c169.333 0 286.333 36.167 351 108.5
s106 190.5 124 354.5c3.33301 30 7.33301 58.333 12 85c6.66699 68 12.334 133 17.001 195c16 235.333 39.167 382.666 69.5 441.999s73.5 89 129.5 89c69.333 0 104 -45 104 -135c0 -53.333 -13 -152.666 -39 -297.999c-15.333 -87.333 -25.666 -173 -30.999 -257
c-12 -202 -39.667 -350 -83 -444s-121.833 -177.333 -235.5 -250s-251.5 -109 -413.5 -109zM1161 1783h1.00098c-15.333 -15.333 -70 -55.333 -164 -120c-34.667 -24 -55.334 -38.667 -62.001 -44c-5.33301 -5.33301 -14.333 -8 -27 -8c-26 0 -46.667 8.16699 -62 24.5
s-23 36.5 -23 60.5c0 39.333 47.667 95.333 143 168h-1l70 55c116.667 94 190.5 151 221.5 171s53.833 30 68.5 30c17.333 0 36.833 -16.333 58.5 -49s32.5 -57.334 32.5 -74.001c0 -14.667 -9.33301 -33.167 -28 -55.5s-41.667 -40.166 -69 -53.499
c-30.667 -13.333 -83.667 -48.333 -159 -105z" />
    <glyph glyph-name="Ucircumflex" unicode="&#xdb;" horiz-adv-x="1583" 
d="M714 -67c-68.667 0 -151.833 22.333 -249.5 67s-172.167 120.5 -223.5 227.5s-77 222.5 -77 346.5c0 63.333 9.33301 147 28 251l32 185c4.66699 31.333 9.66699 62 15 92c8 46 15 90.333 21 133c9.33301 73.333 25.666 128.5 48.999 165.5s59.333 55.5 108 55.5
c24 0 48.5 -18.833 73.5 -56.5s37.5 -66.5 37.5 -86.5c0 -14 -16 -87.333 -48 -220c-8 -33.333 -21.833 -114.833 -41.5 -244.5s-29.5 -217.5 -29.5 -263.5c0 -170 37.167 -284.667 111.5 -344s137.166 -89 188.499 -89c169.333 0 286.333 36.167 351 108.5
s106 190.5 124 354.5c3.33301 30 7.33301 58.333 12 85c6.66699 68 12.334 133 17.001 195c16 235.333 39.167 382.666 69.5 441.999s73.5 89 129.5 89c69.333 0 104 -45 104 -135c0 -53.333 -13 -152.666 -39 -297.999c-15.333 -87.333 -25.666 -173 -30.999 -257
c-12 -202 -39.667 -350 -83 -444s-121.833 -177.333 -235.5 -250s-251.5 -109 -413.5 -109zM998.001 1960c-26 -25.333 -47.999 -48.335 -65.999 -69.002c-18.667 -21.333 -36.334 -40.333 -53.001 -57h1c-7.33301 -10 -24 -26.667 -50 -50
c-27.333 -25.333 -62 -60.333 -104 -105c-24.667 -26 -52.667 -39 -84 -39c-24 0 -42 5.5 -54 16.5s-18 38.833 -18 83.5c0 37.333 21 73.333 63 108c10 8.66699 19 17 27 25l73 71c42.667 40.667 83.334 85 122.001 133c70.667 88 127.334 132 170.001 132
c45.333 0 99.666 -64.667 162.999 -194c17.333 -33.333 35 -60.666 53 -81.999c3.33301 -3.33301 10.666 -13 21.999 -29c24.667 -36 54 -71.333 88 -106c22.667 -23.333 36.834 -41 42.501 -53s8.5 -28 8.5 -48c0 -21.333 -10 -42.5 -30 -63.5s-43.333 -31.5 -70 -31.5
c-44 0 -92.667 41 -146 123c-8.66699 14.667 -30.334 43.334 -65.001 86.001c-48.667 59.333 -79.667 109 -93 149z" />
    <glyph glyph-name="Udieresis" unicode="&#xdc;" horiz-adv-x="1583" 
d="M714 -67c-68.667 0 -151.833 22.333 -249.5 67s-172.167 120.5 -223.5 227.5s-77 222.5 -77 346.5c0 63.333 9.33301 147 28 251l32 185c4.66699 31.333 9.66699 62 15 92c8 46 15 90.333 21 133c9.33301 73.333 25.666 128.5 48.999 165.5s59.333 55.5 108 55.5
c24 0 48.5 -18.833 73.5 -56.5s37.5 -66.5 37.5 -86.5c0 -14 -16 -87.333 -48 -220c-8 -33.333 -21.833 -114.833 -41.5 -244.5s-29.5 -217.5 -29.5 -263.5c0 -170 37.167 -284.667 111.5 -344s137.166 -89 188.499 -89c169.333 0 286.333 36.167 351 108.5
s106 190.5 124 354.5c3.33301 30 7.33301 58.333 12 85c6.66699 68 12.334 133 17.001 195c16 235.333 39.167 382.666 69.5 441.999s73.5 89 129.5 89c69.333 0 104 -45 104 -135c0 -53.333 -13 -152.666 -39 -297.999c-15.333 -87.333 -25.666 -173 -30.999 -257
c-12 -202 -39.667 -350 -83 -444s-121.833 -177.333 -235.5 -250s-251.5 -109 -413.5 -109zM1138 1693c-33.333 0 -62.499 11.501 -87.499 34.501s-37.5 49.833 -37.5 80.5c0 38 10.167 64.167 30.5 78.5s54.166 27.166 101.499 38.499l17 5c28 8 54.833 3.5 80.5 -13.5
s38.5 -46.167 38.5 -87.5c0 -90.667 -47.667 -136 -143 -136zM779.002 1667c-28.667 0 -59.834 8.33301 -93.501 25s-50.5 35 -50.5 55c0 99.333 34.667 149 104 149c52.667 0 94.834 -13.667 126.501 -41s47.5 -66 47.5 -116c0 -48 -44.667 -72 -134 -72z" />
    <glyph glyph-name="Yacute" unicode="&#xdd;" horiz-adv-x="1370" 
d="M873 664l-0.00195312 0.998047c-20.667 -56 -44.334 -240.333 -71.001 -553c-4.66699 -69.333 -12.167 -109.666 -22.5 -120.999s-29.666 -22.166 -57.999 -32.499s-49.833 -15.5 -64.5 -15.5c-74 0 -111 50 -111 150c0 44.667 10 129 30 253
c20 123.333 30 209.666 30 258.999c0 28.667 -4 55.334 -12 80.001c-55.333 59.333 -122.666 142.666 -201.999 249.999c-92 122.667 -157.667 198.667 -197 228c-78.667 56.667 -128.5 100.167 -149.5 130.5s-31.5 57.833 -31.5 82.5c0 15.333 14.5 35 43.5 59
s55.5 36 79.5 36c100.667 0 257.667 -142.667 471 -428c70.667 -96 119.334 -156 146.001 -180c25.333 27.333 51.333 57.333 78 90c26 32.667 52.667 62.667 80 90c161.333 166 270 287.667 326 365c53.333 74.667 112.333 112 177 112c29.333 0 53.333 -12 72 -36
s28 -49 28 -75c0 -39.333 -121.333 -183.666 -364 -432.999c-176 -183.333 -268.667 -287.333 -278 -312zM1007 1837h1.00098c-15.333 -15.333 -70 -55.333 -164 -120c-34.667 -24 -55.334 -38.667 -62.001 -44c-5.33301 -5.33301 -14.333 -8 -27 -8
c-26 0 -46.667 8.16699 -62 24.5s-23 36.5 -23 60.5c0 39.333 47.667 95.333 143 168h-1l70 55c116.667 94 190.5 151 221.5 171s53.833 30 68.5 30c17.333 0 36.833 -16.333 58.5 -49s32.5 -57.334 32.5 -74.001c0 -14.667 -9.33301 -33.167 -28 -55.5
s-41.667 -40.166 -69 -53.499c-30.667 -13.333 -83.667 -48.333 -159 -105z" />
    <glyph glyph-name="Thorn" unicode="&#xde;" horiz-adv-x="1616" 
d="M1330 578l0.999023 0.00195312c-178.667 -100.667 -338.334 -157 -479.001 -169c-18.667 -2.66699 -67 -14.667 -145 -36l-134 -38c-7.33301 -2.66699 -16.666 -5.33398 -27.999 -8.00098c-52 -12 -85.333 -24 -100 -36c-10.667 -42.667 -16 -74 -16 -94
c0 -4 2.66699 -28.333 8 -73c6 -57.333 9 -87 9 -89c0 -49.333 -8.33301 -81.5 -25 -96.5s-46.334 -22.5 -89.001 -22.5c-44 0 -81.333 19 -112 57s-46 85.333 -46 142c0 22.667 3.66699 63.667 11 123l19 129c10.667 122 22 208 34 258c20 85.333 31.833 143.5 35.5 174.5
s8.16699 87.167 13.5 168.5c6.66699 91.333 21.334 196 44.001 314c14 74 23 135.333 27 184v-1c2.66699 66.667 13.334 108.834 32.001 126.501s52 26.5 100 26.5c38 0 70 -7.66699 96 -23s39 -35.666 39 -60.999c0 -11.333 -4.66699 -40 -14 -86
c-10 -46.667 -15 -75.334 -15 -86.001c0 -6 2.66699 -9 8 -9l215 4c52 0 130.667 -14 236 -42c28.667 -7.33301 56.667 -13.666 84 -18.999c116.667 -24.667 208.667 -51.834 276 -81.501s120.5 -69.834 159.5 -120.501s58.5 -103.334 58.5 -158.001
c0 -126 -101 -245.333 -303 -358zM1371 876.002c16.667 15.333 25.333 26.998 26 34.998c1.33301 66.667 -91.667 123.834 -279 171.501s-358 71.5 -512 71.5c-30.667 0 -48.334 -9.66699 -53.001 -29v1c-10 -41.333 -15 -70.333 -15 -87c0 -68.667 -15 -163 -45 -283
c-26.667 -82 -40 -147 -40 -195c0 -22.667 5 -34 15 -34c52.667 0 132.167 14.333 238.5 43s185.333 47.834 237 57.501s120.834 34 207.501 73s146.667 81.167 180 126.5c9.33301 13.333 24 30.333 44 51z" />
    <glyph glyph-name="germandbls" unicode="&#xdf;" horiz-adv-x="1264" 
d="M578 350c12.667 -28.667 24.9961 -53.3369 36.9961 -74.0039c11.333 -21.333 20 -40 26 -56c11.333 -28 44.333 -42 99 -42c104.667 0 179 80.667 223 242c-0.666992 31.333 -18 64.166 -52 98.499s-76 65.333 -126 93s-78.5 42.834 -85.5 45.501s-35.5 6.66699 -85.5 12
c-50.667 4.66699 -80.667 9.33398 -90 14.001c-20 5.33301 -38.167 24.833 -54.5 58.5s-24.5 59.834 -24.5 78.501c0 31.333 15 59 45 83s65.333 38.333 106 43c33.333 4 69 18.333 107 43l-2 -1c88.667 67.333 133 137.666 133 210.999
c0 48.667 -23.167 88.334 -69.5 119.001s-96.833 46 -151.5 46c-41.333 0 -77.666 -30.333 -108.999 -91s-59.166 -155.667 -83.499 -285s-44.166 -294.666 -59.499 -495.999l-36 -460c-8 -95.333 -17.333 -160 -28 -194l1 2c-14 -78.667 -50 -155.667 -108 -231
s-113.667 -113 -167 -113c-48 0 -82 6.16699 -102 18.5s-30 37.166 -30 74.499c0 22.667 3.83301 39.167 11.5 49.5s29.5 28.833 65.5 55.5h-1c49.333 28.667 83.5 78.334 102.5 149.001s31.167 165 36.5 283c4 102.667 13 238 27 406l8 114
c23.333 305.333 53.833 500.5 91.5 585.5s91.834 158.667 162.501 221s159.334 93.5 266.001 93.5c62 0 128 -15.167 198 -45.5s122.667 -79.5 158 -147.5s53 -129.667 53 -185c0 -164 -117 -276.333 -351 -337c-10.667 -2.66699 -17.667 -4.66699 -21 -6
c116.667 -26 186.5 -42.667 209.5 -50s55 -22 96 -44s72 -46.167 93 -72.5s41.833 -64.166 62.5 -113.499s31 -91 31 -125c0 -118.667 -49.167 -219 -147.5 -301s-215.166 -123 -350.499 -123c-72.667 0 -137.834 17.333 -195.501 52s-90.167 80.667 -97.5 138l-1 20
c-2.66699 48.667 7.16602 83.667 29.499 105s72.5 34.333 150.5 39z" />
    <glyph glyph-name="agrave" unicode="&#xe0;" horiz-adv-x="1198" 
d="M797 335c-175.333 -231.333 -344.668 -346.998 -508.001 -346.998c-60 0 -111.667 23.667 -155 71s-65 107.666 -65 180.999c0 176.667 78.667 364.834 236 564.501s316 299.5 476 299.5c81.333 0 134.666 -41 159.999 -123c76.667 0 115 -29.333 115 -88
c0 -28 -7.33301 -78.667 -22 -152c-26.667 -137.333 -40 -247 -40 -329c0 -85.333 5.83301 -145.333 17.5 -180s20.167 -57.334 25.5 -68.001s21.333 -22 48 -34c26.667 -12.667 40 -30.334 40 -53.001c0 -34 -17.167 -62.333 -51.5 -85s-70.166 -34 -107.499 -34
c-125.333 0 -181.666 125.667 -168.999 377zM736.998 890.002c-67.333 0 -154.833 -74.501 -262.5 -223.501s-161.5 -275.5 -161.5 -379.5c0 -54.667 11.333 -82 34 -82c78.667 0 175.5 69.833 290.5 209.5s172.5 261.834 172.5 366.501c0 33.333 -7.5 59.833 -22.5 79.5
s-31.833 29.5 -50.5 29.5zM628.998 1319l-46.999 30.998c-28 17.333 -81 56.333 -159 117s-117 110.334 -117 149.001c0 18 14 38.333 42 61s55.333 34 82 34c13.333 0 30.666 -7.66699 51.999 -23s66 -53.666 134 -114.999l219 -194c46 -40.667 69 -77 69 -109
c0 -62 -33.667 -93 -101 -93c-21.333 0 -79.333 47.333 -174 142z" />
    <glyph glyph-name="aacute" unicode="&#xe1;" horiz-adv-x="1198" 
d="M797 335c-175.333 -231.333 -344.668 -346.998 -508.001 -346.998c-60 0 -111.667 23.667 -155 71s-65 107.666 -65 180.999c0 176.667 78.667 364.834 236 564.501s316 299.5 476 299.5c81.333 0 134.666 -41 159.999 -123c76.667 0 115 -29.333 115 -88
c0 -28 -7.33301 -78.667 -22 -152c-26.667 -137.333 -40 -247 -40 -329c0 -85.333 5.83301 -145.333 17.5 -180s20.167 -57.334 25.5 -68.001s21.333 -22 48 -34c26.667 -12.667 40 -30.334 40 -53.001c0 -34 -17.167 -62.333 -51.5 -85s-70.166 -34 -107.499 -34
c-125.333 0 -181.666 125.667 -168.999 377zM736.998 890.002c-67.333 0 -154.833 -74.501 -262.5 -223.501s-161.5 -275.5 -161.5 -379.5c0 -54.667 11.333 -82 34 -82c78.667 0 175.5 69.833 290.5 209.5s172.5 261.834 172.5 366.501c0 33.333 -7.5 59.833 -22.5 79.5
s-31.833 29.5 -50.5 29.5zM869.998 1342h1.00098c-15.333 -15.333 -70 -55.333 -164 -120c-34.667 -24 -55.334 -38.667 -62.001 -44c-5.33301 -5.33301 -14.333 -8 -27 -8c-26 0 -46.667 8.16699 -62 24.5s-23 36.5 -23 60.5c0 39.333 47.667 95.333 143 168h-1l70 55
c116.667 94 190.5 151 221.5 171s53.833 30 68.5 30c17.333 0 36.833 -16.333 58.5 -49s32.5 -57.334 32.5 -74.001c0 -14.667 -9.33301 -33.167 -28 -55.5s-41.667 -40.166 -69 -53.499c-30.667 -13.333 -83.667 -48.333 -159 -105z" />
    <glyph glyph-name="acircumflex" unicode="&#xe2;" horiz-adv-x="1198" 
d="M797 335c-175.333 -231.333 -344.668 -346.998 -508.001 -346.998c-60 0 -111.667 23.667 -155 71s-65 107.666 -65 180.999c0 176.667 78.667 364.834 236 564.501s316 299.5 476 299.5c81.333 0 134.666 -41 159.999 -123c76.667 0 115 -29.333 115 -88
c0 -28 -7.33301 -78.667 -22 -152c-26.667 -137.333 -40 -247 -40 -329c0 -85.333 5.83301 -145.333 17.5 -180s20.167 -57.334 25.5 -68.001s21.333 -22 48 -34c26.667 -12.667 40 -30.334 40 -53.001c0 -34 -17.167 -62.333 -51.5 -85s-70.166 -34 -107.499 -34
c-125.333 0 -181.666 125.667 -168.999 377zM736.998 890.002c-67.333 0 -154.833 -74.501 -262.5 -223.501s-161.5 -275.5 -161.5 -379.5c0 -54.667 11.333 -82 34 -82c78.667 0 175.5 69.833 290.5 209.5s172.5 261.834 172.5 366.501c0 33.333 -7.5 59.833 -22.5 79.5
s-31.833 29.5 -50.5 29.5zM809.998 1494c-26 -25.333 -47.999 -48.335 -65.999 -69.002c-18.667 -21.333 -36.334 -40.333 -53.001 -57h1c-7.33301 -10 -24 -26.667 -50 -50c-27.333 -25.333 -62 -60.333 -104 -105c-24.667 -26 -52.667 -39 -84 -39c-24 0 -42 5.5 -54 16.5
s-18 38.833 -18 83.5c0 37.333 21 73.333 63 108c10 8.66699 19 17 27 25l73 71c42.667 40.667 83.334 85 122.001 133c70.667 88 127.334 132 170.001 132c45.333 0 99.666 -64.667 162.999 -194c17.333 -33.333 35 -60.666 53 -81.999
c3.33301 -3.33301 10.666 -13 21.999 -29c24.667 -36 54 -71.333 88 -106c22.667 -23.333 36.834 -41 42.501 -53s8.5 -28 8.5 -48c0 -21.333 -10 -42.5 -30 -63.5s-43.333 -31.5 -70 -31.5c-44 0 -92.667 41 -146 123c-8.66699 14.667 -30.334 43.334 -65.001 86.001
c-48.667 59.333 -79.667 109 -93 149z" />
    <glyph glyph-name="atilde" unicode="&#xe3;" horiz-adv-x="1198" 
d="M797 335c-175.333 -231.333 -344.668 -346.998 -508.001 -346.998c-60 0 -111.667 23.667 -155 71s-65 107.666 -65 180.999c0 176.667 78.667 364.834 236 564.501s316 299.5 476 299.5c81.333 0 134.666 -41 159.999 -123c76.667 0 115 -29.333 115 -88
c0 -28 -7.33301 -78.667 -22 -152c-26.667 -137.333 -40 -247 -40 -329c0 -85.333 5.83301 -145.333 17.5 -180s20.167 -57.334 25.5 -68.001s21.333 -22 48 -34c26.667 -12.667 40 -30.334 40 -53.001c0 -34 -17.167 -62.333 -51.5 -85s-70.166 -34 -107.499 -34
c-125.333 0 -181.666 125.667 -168.999 377zM736.998 890.002c-67.333 0 -154.833 -74.501 -262.5 -223.501s-161.5 -275.5 -161.5 -379.5c0 -54.667 11.333 -82 34 -82c78.667 0 175.5 69.833 290.5 209.5s172.5 261.834 172.5 366.501c0 33.333 -7.5 59.833 -22.5 79.5
s-31.833 29.5 -50.5 29.5zM866.998 1197c-17.333 8 -42.998 27.666 -76.998 58.999l-22 20c-8 6 -16.333 13.667 -25 23c-36.667 36 -64.334 54 -83.001 54c-34 0 -76.667 -30.333 -128 -91l1 1c-40.667 -56.667 -69 -89.5 -85 -98.5s-34.333 -13.5 -55 -13.5
c-54.667 0 -82 26.667 -82 80c0 52 38.833 117.5 116.5 196.5s145.834 118.5 204.501 118.5c49.333 0 87.166 -6.16699 113.499 -18.5s53.166 -32.166 80.499 -59.499c44.667 -44.667 81.667 -75.5 111 -92.5s46.666 -25.5 51.999 -25.5c22.667 0 49 20.667 79 62
c14.667 21.333 26.334 37.333 35.001 48c4 4.66699 7.66699 9.66699 11 15c22.667 28.667 46 43 70 43c51.333 0 77 -28.333 77 -85c0 -31.333 -27.333 -84 -82 -158s-112.667 -111 -174 -111c-58.667 0 -104.667 11 -138 33z" />
    <glyph glyph-name="adieresis" unicode="&#xe4;" horiz-adv-x="1198" 
d="M797 335c-175.333 -231.333 -344.668 -346.998 -508.001 -346.998c-60 0 -111.667 23.667 -155 71s-65 107.666 -65 180.999c0 176.667 78.667 364.834 236 564.501s316 299.5 476 299.5c81.333 0 134.666 -41 159.999 -123c76.667 0 115 -29.333 115 -88
c0 -28 -7.33301 -78.667 -22 -152c-26.667 -137.333 -40 -247 -40 -329c0 -85.333 5.83301 -145.333 17.5 -180s20.167 -57.334 25.5 -68.001s21.333 -22 48 -34c26.667 -12.667 40 -30.334 40 -53.001c0 -34 -17.167 -62.333 -51.5 -85s-70.166 -34 -107.499 -34
c-125.333 0 -181.666 125.667 -168.999 377zM736.998 890.002c-67.333 0 -154.833 -74.501 -262.5 -223.501s-161.5 -275.5 -161.5 -379.5c0 -54.667 11.333 -82 34 -82c78.667 0 175.5 69.833 290.5 209.5s172.5 261.834 172.5 366.501c0 33.333 -7.5 59.833 -22.5 79.5
s-31.833 29.5 -50.5 29.5zM947.998 1234c-33.333 0 -62.499 11.501 -87.499 34.501s-37.5 49.833 -37.5 80.5c0 38 10.167 64.167 30.5 78.5s54.166 27.166 101.499 38.499l17 5c28 8 54.833 3.5 80.5 -13.5s38.5 -46.167 38.5 -87.5c0 -90.667 -47.667 -136 -143 -136z
M588.999 1208c-28.667 0 -59.834 8.33301 -93.501 25s-50.5 35 -50.5 55c0 99.333 34.667 149 104 149c52.667 0 94.834 -13.667 126.501 -41s47.5 -66 47.5 -116c0 -48 -44.667 -72 -134 -72z" />
    <glyph glyph-name="aring" unicode="&#xe5;" horiz-adv-x="1198" 
d="M797 335c-175.333 -231.333 -344.668 -346.998 -508.001 -346.998c-60 0 -111.667 23.667 -155 71s-65 107.666 -65 180.999c0 176.667 78.667 364.834 236 564.501s316 299.5 476 299.5c81.333 0 134.666 -41 159.999 -123c76.667 0 115 -29.333 115 -88
c0 -28 -7.33301 -78.667 -22 -152c-26.667 -137.333 -40 -247 -40 -329c0 -85.333 5.83301 -145.333 17.5 -180s20.167 -57.334 25.5 -68.001s21.333 -22 48 -34c26.667 -12.667 40 -30.334 40 -53.001c0 -34 -17.167 -62.333 -51.5 -85s-70.166 -34 -107.499 -34
c-125.333 0 -181.666 125.667 -168.999 377zM736.998 890.002c-67.333 0 -154.833 -74.501 -262.5 -223.501s-161.5 -275.5 -161.5 -379.5c0 -54.667 11.333 -82 34 -82c78.667 0 175.5 69.833 290.5 209.5s172.5 261.834 172.5 366.501c0 33.333 -7.5 59.833 -22.5 79.5
s-31.833 29.5 -50.5 29.5zM1039 1528c14 -32.667 21.001 -61.667 21.001 -87c0 -66.667 -32.833 -128 -98.5 -184s-134.167 -84 -205.5 -84c-72.667 0 -132.834 23.833 -180.501 71.5s-71.5 105.167 -71.5 172.5c0 60 29.833 118.333 89.5 175s139.167 85 238.5 85
c24.667 0 61.5 -11.5 110.5 -34.5s81.167 -61.5 96.5 -115.5v1zM743.999 1524c-12.667 -1.33301 -24.333 -14.332 -35 -38.999s-16 -49.667 -16 -75c0 -22.667 8.5 -46.167 25.5 -70.5s32.5 -36.5 46.5 -36.5c5.33301 0 25.5 8 60.5 24s52.5 51 52.5 105
c0 3.33301 -1 9 -3 17c-2.66699 8 -5 16.667 -7 26l-7 24c-2.66699 7.33301 -4 12 -4 14c0 5.33301 -9.5 9.66602 -28.5 12.999s-32.5 5 -40.5 5c-16 0 -30.667 -2.33301 -44 -7z" />
    <glyph glyph-name="ae" unicode="&#xe6;" horiz-adv-x="1670" 
d="M671 303c-16 -34 -34 -66.0029 -54 -96.0029h1c-118 -184.667 -240 -277 -366 -277c-60.667 0 -107.834 25.333 -141.501 76s-50.5 112.334 -50.5 185.001c0 102 15.333 199.667 46 293v-1c34 102.667 75.667 193.334 125 272.001v-1
c47.333 76.667 106.333 145.334 177 206.001h-1c88 74.667 196 112 324 112c70 0 115 -18 135 -54s30 -73 30 -111c122.667 146.667 257.334 220 404.001 220c58.667 0 107 -24.833 145 -74.5s57 -102.5 57 -158.5c0 -85.333 -31.167 -171 -93.5 -257
s-217.5 -196.333 -465.5 -331c-20 -11.333 -30 -25.333 -30 -42c0 -23.333 13.833 -45.333 41.5 -66s65.834 -31 114.501 -31c114 0 243.667 76 389 228c25.333 26.667 50 40 74 40c46.667 0 70 -26 70 -78c0 -72.667 -61.333 -158 -184 -256s-251.334 -147 -386.001 -147
c-112 0 -200.167 31 -264.5 93s-96.5 147.333 -96.5 256zM926 492.997c10.667 7.33301 36.667 23.334 78 48.001c67.333 39.333 133.833 92.166 199.5 158.499s98.5 117.166 98.5 152.499c0 18.667 -6 35.334 -18 50.001s-23 22 -33 22
c-55.333 0 -115.833 -42.167 -181.5 -126.5s-113.5 -185.833 -143.5 -304.5zM683 792.998c0 12 3.33008 24.332 9.99707 36.999c7.33301 14.667 11 29.334 11 44.001c0 10.667 -11.333 16 -34 16c-69.333 0 -128.833 -33.333 -178.5 -100s-99.667 -143 -150 -229
s-75.5 -206.333 -75.5 -361c0 -20 13 -30 39 -30c16.667 0 33.334 6.33301 50.001 19s48.334 54 95.001 124s99.334 166.333 158.001 289z" />
    <glyph glyph-name="ccedilla" unicode="&#xe7;" horiz-adv-x="1034" 
d="M390 -60c0 -2.66699 -3.33496 -12.6709 -10.002 -30.0039c-6.66699 -18 -10 -29 -10 -33c7.33301 5.33301 30.333 8 69 8c47.333 0 85.166 -7.16699 113.499 -21.5s49.333 -35.333 63 -63s20.5 -76.167 20.5 -145.5c0 -24.667 -13.333 -54.167 -40 -88.5
s-57.667 -62.5 -93 -84.5v1c-63.333 -42.667 -139.666 -64 -228.999 -64c-52.667 0 -106.667 14.333 -162 43s-83 62 -83 100c0 20 8.83301 39.167 26.5 57.5s39.5 27.5 65.5 27.5c12.667 0 33.334 -6.5 62.001 -19.5s50.334 -24.5 65.001 -34.5
c10.667 -8.66699 23.667 -13 39 -13c98.667 0 148 33.667 148 101c0 15.333 -9 29.833 -27 43.5s-34.667 20.5 -50 20.5c-2.66699 0 -7.66699 -1 -15 -3c-40.667 -12.667 -66.667 -19 -78 -19c-61.333 0 -92 27 -92 81c7.33301 17.333 27.666 77 60.999 179
c-108.667 54.667 -163 156.334 -163 305.001c0 168 68.333 349.167 205 543.5s270.334 291.5 401.001 291.5c62.667 0 116.5 -31 161.5 -93s67.5 -128 67.5 -198c0 -46 -11.167 -85.333 -33.5 -118s-48.833 -49 -79.5 -49c-26.667 0 -50.667 10.667 -72 32
s-40.333 68.333 -57 141c-9.33301 40 -17.333 60 -24 60c-50.667 0 -119 -75 -205 -225s-129 -277.667 -129 -383c0 -90 49 -135 147 -135c86.667 0 190 42.333 310 127c50.667 35.333 91 53 121 53c17.333 0 33.5 -6.16699 48.5 -18.5s22.5 -28.166 22.5 -47.499
c0 -59.333 -64.167 -128.666 -192.5 -207.999s-252.5 -119.666 -372.5 -120.999z" />
    <glyph glyph-name="egrave" unicode="&#xe8;" horiz-adv-x="1061" 
d="M1007 344c0 -69.333 -58.3301 -152.168 -174.997 -248.501s-248.334 -144.5 -395.001 -144.5c-112.667 0 -201.334 35.5 -266.001 106.5s-97 169.833 -97 296.5c0 186.667 66 361.667 198 525s273 245 423 245c74.667 0 134.667 -23.667 180 -71s68 -103.666 68 -168.999
c0 -116 -55.667 -226.5 -167 -331.5s-254 -177.5 -428 -217.5c-20 -4.66699 -30 -16.667 -30 -36c0 -32 14.167 -62.5 42.5 -91.5s66.166 -43.5 113.499 -43.5c134 0 267 69 399 207c25.333 26.667 50 40 74 40c40 0 60 -22.333 60 -67zM336.003 520.998
c105.333 21.333 198.167 66.333 278.5 135s120.5 131 120.5 187c0 22 -6.16699 40.5 -18.5 55.5s-28.166 22.5 -47.499 22.5c-58 0 -122.333 -42.667 -193 -128s-117.334 -176 -140.001 -272zM464.004 1348l-46.999 30.998c-28 17.333 -81 56.333 -159 117
s-117 110.334 -117 149.001c0 18 14 38.333 42 61s55.333 34 82 34c13.333 0 30.666 -7.66699 51.999 -23s66 -53.666 134 -114.999l219 -194c46 -40.667 69 -77 69 -109c0 -62 -33.667 -93 -101 -93c-21.333 0 -79.333 47.333 -174 142z" />
    <glyph glyph-name="eacute" unicode="&#xe9;" horiz-adv-x="1061" 
d="M1007 344c0 -69.333 -58.3301 -152.168 -174.997 -248.501s-248.334 -144.5 -395.001 -144.5c-112.667 0 -201.334 35.5 -266.001 106.5s-97 169.833 -97 296.5c0 186.667 66 361.667 198 525s273 245 423 245c74.667 0 134.667 -23.667 180 -71s68 -103.666 68 -168.999
c0 -116 -55.667 -226.5 -167 -331.5s-254 -177.5 -428 -217.5c-20 -4.66699 -30 -16.667 -30 -36c0 -32 14.167 -62.5 42.5 -91.5s66.166 -43.5 113.499 -43.5c134 0 267 69 399 207c25.333 26.667 50 40 74 40c40 0 60 -22.333 60 -67zM336.003 520.998
c105.333 21.333 198.167 66.333 278.5 135s120.5 131 120.5 187c0 22 -6.16699 40.5 -18.5 55.5s-28.166 22.5 -47.499 22.5c-58 0 -122.333 -42.667 -193 -128s-117.334 -176 -140.001 -272zM713.004 1365h1.00098c-15.333 -15.333 -70 -55.333 -164 -120
c-34.667 -24 -55.334 -38.667 -62.001 -44c-5.33301 -5.33301 -14.333 -8 -27 -8c-26 0 -46.667 8.16699 -62 24.5s-23 36.5 -23 60.5c0 39.333 47.667 95.333 143 168h-1l70 55c116.667 94 190.5 151 221.5 171s53.833 30 68.5 30c17.333 0 36.833 -16.333 58.5 -49
s32.5 -57.334 32.5 -74.001c0 -14.667 -9.33301 -33.167 -28 -55.5s-41.667 -40.166 -69 -53.499c-30.667 -13.333 -83.667 -48.333 -159 -105z" />
    <glyph glyph-name="ecircumflex" unicode="&#xea;" horiz-adv-x="1061" 
d="M1007 344c0 -69.333 -58.3301 -152.168 -174.997 -248.501s-248.334 -144.5 -395.001 -144.5c-112.667 0 -201.334 35.5 -266.001 106.5s-97 169.833 -97 296.5c0 186.667 66 361.667 198 525s273 245 423 245c74.667 0 134.667 -23.667 180 -71s68 -103.666 68 -168.999
c0 -116 -55.667 -226.5 -167 -331.5s-254 -177.5 -428 -217.5c-20 -4.66699 -30 -16.667 -30 -36c0 -32 14.167 -62.5 42.5 -91.5s66.166 -43.5 113.499 -43.5c134 0 267 69 399 207c25.333 26.667 50 40 74 40c40 0 60 -22.333 60 -67zM336.003 520.998
c105.333 21.333 198.167 66.333 278.5 135s120.5 131 120.5 187c0 22 -6.16699 40.5 -18.5 55.5s-28.166 22.5 -47.499 22.5c-58 0 -122.333 -42.667 -193 -128s-117.334 -176 -140.001 -272zM670.004 1476c-26 -25.333 -47.999 -48.335 -65.999 -69.002
c-18.667 -21.333 -36.334 -40.333 -53.001 -57h1c-7.33301 -10 -24 -26.667 -50 -50c-27.333 -25.333 -62 -60.333 -104 -105c-24.667 -26 -52.667 -39 -84 -39c-24 0 -42 5.5 -54 16.5s-18 38.833 -18 83.5c0 37.333 21 73.333 63 108c10 8.66699 19 17 27 25l73 71
c42.667 40.667 83.334 85 122.001 133c70.667 88 127.334 132 170.001 132c45.333 0 99.666 -64.667 162.999 -194c17.333 -33.333 35 -60.666 53 -81.999c3.33301 -3.33301 10.666 -13 21.999 -29c24.667 -36 54 -71.333 88 -106c22.667 -23.333 36.834 -41 42.501 -53
s8.5 -28 8.5 -48c0 -21.333 -10 -42.5 -30 -63.5s-43.333 -31.5 -70 -31.5c-44 0 -92.667 41 -146 123c-8.66699 14.667 -30.334 43.334 -65.001 86.001c-48.667 59.333 -79.667 109 -93 149z" />
    <glyph glyph-name="edieresis" unicode="&#xeb;" horiz-adv-x="1061" 
d="M1007 344c0 -69.333 -58.3301 -152.168 -174.997 -248.501s-248.334 -144.5 -395.001 -144.5c-112.667 0 -201.334 35.5 -266.001 106.5s-97 169.833 -97 296.5c0 186.667 66 361.667 198 525s273 245 423 245c74.667 0 134.667 -23.667 180 -71s68 -103.666 68 -168.999
c0 -116 -55.667 -226.5 -167 -331.5s-254 -177.5 -428 -217.5c-20 -4.66699 -30 -16.667 -30 -36c0 -32 14.167 -62.5 42.5 -91.5s66.166 -43.5 113.499 -43.5c134 0 267 69 399 207c25.333 26.667 50 40 74 40c40 0 60 -22.333 60 -67zM336.003 520.998
c105.333 21.333 198.167 66.333 278.5 135s120.5 131 120.5 187c0 22 -6.16699 40.5 -18.5 55.5s-28.166 22.5 -47.499 22.5c-58 0 -122.333 -42.667 -193 -128s-117.334 -176 -140.001 -272zM831.004 1237c-33.333 0 -62.499 11.501 -87.499 34.501
s-37.5 49.833 -37.5 80.5c0 38 10.167 64.167 30.5 78.5s54.166 27.166 101.499 38.499l17 5c28 8 54.833 3.5 80.5 -13.5s38.5 -46.167 38.5 -87.5c0 -90.667 -47.667 -136 -143 -136zM472.005 1211c-28.667 0 -59.834 8.33301 -93.501 25s-50.5 35 -50.5 55
c0 99.333 34.667 149 104 149c52.667 0 94.834 -13.667 126.501 -41s47.5 -66 47.5 -116c0 -48 -44.667 -72 -134 -72z" />
    <glyph glyph-name="igrave" unicode="&#xec;" horiz-adv-x="588" 
d="M183 664v-0.998047c21.333 121.333 32 190.666 32 207.999c0 49.333 10.833 90.666 32.5 123.999s51.834 50 90.501 50c45.333 0 80.666 -10.667 105.999 -32s38 -45.333 38 -72s-12.333 -81.667 -37 -165l-6 -22c-36.667 -128.667 -58.667 -233.667 -66 -315
s-11 -147 -11 -197c0 -40.667 7 -95 21 -163c2 -12 3 -22 3 -30c0 -15.333 -14.5 -36 -43.5 -62s-60.167 -39 -93.5 -39c-88 0 -132 66.667 -132 200c0 113.333 16 251.333 48 414c6.66699 36 12.667 70 18 102zM261 1316l-46.999 30.998c-28 17.333 -81 56.333 -159 117
s-117 110.334 -117 149.001c0 18 14 38.333 42 61s55.333 34 82 34c13.333 0 30.666 -7.66699 51.999 -23s66 -53.666 134 -114.999l219 -194c46 -40.667 69 -77 69 -109c0 -62 -33.667 -93 -101 -93c-21.333 0 -79.333 47.333 -174 142z" />
    <glyph glyph-name="iacute" unicode="&#xed;" horiz-adv-x="588" 
d="M183 664v-0.998047c21.333 121.333 32 190.666 32 207.999c0 49.333 10.833 90.666 32.5 123.999s51.834 50 90.501 50c45.333 0 80.666 -10.667 105.999 -32s38 -45.333 38 -72s-12.333 -81.667 -37 -165l-6 -22c-36.667 -128.667 -58.667 -233.667 -66 -315
s-11 -147 -11 -197c0 -40.667 7 -95 21 -163c2 -12 3 -22 3 -30c0 -15.333 -14.5 -36 -43.5 -62s-60.167 -39 -93.5 -39c-88 0 -132 66.667 -132 200c0 113.333 16 251.333 48 414c6.66699 36 12.667 70 18 102zM631 1347h1.00098c-15.333 -15.333 -70 -55.333 -164 -120
c-34.667 -24 -55.334 -38.667 -62.001 -44c-5.33301 -5.33301 -14.333 -8 -27 -8c-26 0 -46.667 8.16699 -62 24.5s-23 36.5 -23 60.5c0 39.333 47.667 95.333 143 168h-1l70 55c116.667 94 190.5 151 221.5 171s53.833 30 68.5 30c17.333 0 36.833 -16.333 58.5 -49
s32.5 -57.334 32.5 -74.001c0 -14.667 -9.33301 -33.167 -28 -55.5s-41.667 -40.166 -69 -53.499c-30.667 -13.333 -83.667 -48.333 -159 -105z" />
    <glyph glyph-name="icircumflex" unicode="&#xee;" horiz-adv-x="588" 
d="M183 664v-0.998047c21.333 121.333 32 190.666 32 207.999c0 49.333 10.833 90.666 32.5 123.999s51.834 50 90.501 50c45.333 0 80.666 -10.667 105.999 -32s38 -45.333 38 -72s-12.333 -81.667 -37 -165l-6 -22c-36.667 -128.667 -58.667 -233.667 -66 -315
s-11 -147 -11 -197c0 -40.667 7 -95 21 -163c2 -12 3 -22 3 -30c0 -15.333 -14.5 -36 -43.5 -62s-60.167 -39 -93.5 -39c-88 0 -132 66.667 -132 200c0 113.333 16 251.333 48 414c6.66699 36 12.667 70 18 102zM412 1426c-26 -25.333 -47.999 -48.335 -65.999 -69.002
c-18.667 -21.333 -36.334 -40.333 -53.001 -57h1c-7.33301 -10 -24 -26.667 -50 -50c-27.333 -25.333 -62 -60.333 -104 -105c-24.667 -26 -52.667 -39 -84 -39c-24 0 -42 5.5 -54 16.5s-18 38.833 -18 83.5c0 37.333 21 73.333 63 108c10 8.66699 19 17 27 25l73 71
c42.667 40.667 83.334 85 122.001 133c70.667 88 127.334 132 170.001 132c45.333 0 99.666 -64.667 162.999 -194c17.333 -33.333 35 -60.666 53 -81.999c3.33301 -3.33301 10.666 -13 21.999 -29c24.667 -36 54 -71.333 88 -106c22.667 -23.333 36.834 -41 42.501 -53
s8.5 -28 8.5 -48c0 -21.333 -10 -42.5 -30 -63.5s-43.333 -31.5 -70 -31.5c-44 0 -92.667 41 -146 123c-8.66699 14.667 -30.334 43.334 -65.001 86.001c-48.667 59.333 -79.667 109 -93 149z" />
    <glyph glyph-name="idieresis" unicode="&#xef;" horiz-adv-x="588" 
d="M183 664v-0.998047c21.333 121.333 32 190.666 32 207.999c0 49.333 10.833 90.666 32.5 123.999s51.834 50 90.501 50c45.333 0 80.666 -10.667 105.999 -32s38 -45.333 38 -72s-12.333 -81.667 -37 -165l-6 -22c-36.667 -128.667 -58.667 -233.667 -66 -315
s-11 -147 -11 -197c0 -40.667 7 -95 21 -163c2 -12 3 -22 3 -30c0 -15.333 -14.5 -36 -43.5 -62s-60.167 -39 -93.5 -39c-88 0 -132 66.667 -132 200c0 113.333 16 251.333 48 414c6.66699 36 12.667 70 18 102zM582 1235c-33.333 0 -62.499 11.501 -87.499 34.501
s-37.5 49.833 -37.5 80.5c0 38 10.167 64.167 30.5 78.5s54.166 27.166 101.499 38.499l17 5c28 8 54.833 3.5 80.5 -13.5s38.5 -46.167 38.5 -87.5c0 -90.667 -47.667 -136 -143 -136zM223.001 1209c-28.667 0 -59.834 8.33301 -93.501 25s-50.5 35 -50.5 55
c0 99.333 34.667 149 104 149c52.667 0 94.834 -13.667 126.501 -41s47.5 -66 47.5 -116c0 -48 -44.667 -72 -134 -72z" />
    <glyph glyph-name="eth" unicode="&#xf0;" horiz-adv-x="1026" 
d="M958 455l-0.00390625 0.996094c-19.333 -52.667 -46.666 -101.167 -81.999 -145.5s-97.166 -95 -185.499 -152s-151.166 -94 -188.499 -111s-85.333 -25.5 -144 -25.5c-68 0 -122.667 20.667 -164 62s-76.166 87.5 -104.499 138.5s-42.5 120.833 -42.5 209.5v73
c0 90 51.5 193.5 154.5 310.5s243.833 190.833 422.5 221.5c-16 44 -49.333 88 -100 132c-16 -6 -35.667 -17 -59 -33c-112.667 -76 -187.667 -114 -225 -114c-22 0 -41 10.5 -57 31.5s-24 43.167 -24 66.5c0 24.667 38.667 56 116 94h-1c51.333 26.667 83 48 95 64l-60 29
c-72.667 32.667 -109 57.334 -109 74.001c0 27.333 16.833 57.333 50.5 90s67.167 49 100.5 49c46 0 119.333 -45.333 220 -136c12 0 47.333 23.333 106 70c3.33301 2 6.33301 4.33301 9 7c18 18 41.333 35.833 70 53.5s56.667 26.5 84 26.5c53.333 0 80 -30.333 80 -91
c0 -40 -55.667 -88 -167 -144c-11.333 -5.33301 -20 -10.666 -26 -15.999c-6 -6 -10.667 -9.66699 -14 -11c-4 -1.33301 -6 -3 -6 -5c114 -135.333 187.833 -255.666 221.5 -360.999s50.5 -206.666 50.5 -303.999c0 -70 -7 -121.333 -21 -154zM748.996 701.996
l0.998047 -1.00195c-2.66699 2.66699 -10 32.334 -22 89.001c-11.333 52.667 -20.333 79 -27 79c-20 0 -68.667 -15.833 -146 -47.5s-130.666 -60.5 -159.999 -86.5s-56.166 -62.5 -80.499 -109.5s-36.5 -84.5 -36.5 -112.5c0 -119.333 20.167 -194.666 60.5 -225.999
s63.5 -47 69.5 -47c25.333 0 89.833 38.667 193.5 116s155.5 156.333 155.5 237c0 38 -2.66699 74.333 -8 109z" />
    <glyph glyph-name="ntilde" unicode="&#xf1;" horiz-adv-x="1354" 
d="M952 146c-32 60 -55.3359 172.001 -70.0029 336.001c-14.667 170.667 -47.334 256 -98.001 256c-48 0 -131 -88.833 -249 -266.5s-190.667 -308.834 -218 -393.501c-6 -25.333 -17.167 -46.333 -33.5 -63s-32.5 -25 -48.5 -25c-101.333 0 -152 46.333 -152 139
c0 31.333 10 102.666 30 213.999c26 144 39 320 39 528c0 31.333 13.667 64.833 41 100.5s56.333 53.5 87 53.5c38.667 0 68.334 -9.66699 89.001 -29s31 -70.666 31 -153.999c0 -63.333 -19 -186 -57 -368c144.667 338.667 306 508 484 508
c154.667 0 245.334 -121.667 272.001 -365c26.667 -248 57.334 -372 92.001 -372c15.333 0 33 3.33301 53 10c24 8 43 12 57 12c32 0 48 -18.667 48 -56c0 -34 -22 -70.167 -66 -108.5s-99.333 -57.5 -166 -57.5c-77.333 0 -132.666 33.667 -165.999 101h1zM830.997 1226
c-17.333 8 -42.998 27.666 -76.998 58.999l-22 20c-8 6 -16.333 13.667 -25 23c-36.667 36 -64.334 54 -83.001 54c-34 0 -76.667 -30.333 -128 -91l1 1c-40.667 -56.667 -69 -89.5 -85 -98.5s-34.333 -13.5 -55 -13.5c-54.667 0 -82 26.667 -82 80
c0 52 38.833 117.5 116.5 196.5s145.834 118.5 204.501 118.5c49.333 0 87.166 -6.16699 113.499 -18.5s53.166 -32.166 80.499 -59.499c44.667 -44.667 81.667 -75.5 111 -92.5s46.666 -25.5 51.999 -25.5c22.667 0 49 20.667 79 62c14.667 21.333 26.334 37.333 35.001 48
c4 4.66699 7.66699 9.66699 11 15c22.667 28.667 46 43 70 43c51.333 0 77 -28.333 77 -85c0 -31.333 -27.333 -84 -82 -158s-112.667 -111 -174 -111c-58.667 0 -104.667 11 -138 33z" />
    <glyph glyph-name="ograve" unicode="&#xf2;" horiz-adv-x="1154" 
d="M1057 507c-44.667 -156 -129.499 -287.498 -254.499 -394.498s-249.833 -160.5 -374.5 -160.5c-98.667 0 -180 36.167 -244 108.5s-96 161.166 -96 266.499c0 172 58.667 341.333 176 508s259.666 250 426.999 250c114 0 206.333 -42.167 277 -126.5
s106 -184.833 106 -301.5c0 -50.667 -5.66699 -100.334 -17 -149.001v-1zM537.001 823.002c-46.667 -41.333 -92.333 -107.333 -137 -198s-67 -181.667 -67 -273c0 -55.333 10.167 -101 30.5 -137s47.166 -54 80.499 -54c82.667 0 168.667 49 258 147s134 208 134 330
c0 68.667 -14.5 125.167 -43.5 169.5s-69.5 66.5 -121.5 66.5c-49.333 0 -93.666 -17 -132.999 -51h-1zM567.002 1316l-46.999 30.998c-28 17.333 -81 56.333 -159 117s-117 110.334 -117 149.001c0 18 14 38.333 42 61s55.333 34 82 34
c13.333 0 30.666 -7.66699 51.999 -23s66 -53.666 134 -114.999l219 -194c46 -40.667 69 -77 69 -109c0 -62 -33.667 -93 -101 -93c-21.333 0 -79.333 47.333 -174 142z" />
    <glyph glyph-name="oacute" unicode="&#xf3;" horiz-adv-x="1154" 
d="M1057 507c-44.667 -156 -129.499 -287.498 -254.499 -394.498s-249.833 -160.5 -374.5 -160.5c-98.667 0 -180 36.167 -244 108.5s-96 161.166 -96 266.499c0 172 58.667 341.333 176 508s259.666 250 426.999 250c114 0 206.333 -42.167 277 -126.5
s106 -184.833 106 -301.5c0 -50.667 -5.66699 -100.334 -17 -149.001v-1zM537.001 823.002c-46.667 -41.333 -92.333 -107.333 -137 -198s-67 -181.667 -67 -273c0 -55.333 10.167 -101 30.5 -137s47.166 -54 80.499 -54c82.667 0 168.667 49 258 147s134 208 134 330
c0 68.667 -14.5 125.167 -43.5 169.5s-69.5 66.5 -121.5 66.5c-49.333 0 -93.666 -17 -132.999 -51h-1zM878.002 1343h1.00098c-15.333 -15.333 -70 -55.333 -164 -120c-34.667 -24 -55.334 -38.667 -62.001 -44c-5.33301 -5.33301 -14.333 -8 -27 -8
c-26 0 -46.667 8.16699 -62 24.5s-23 36.5 -23 60.5c0 39.333 47.667 95.333 143 168h-1l70 55c116.667 94 190.5 151 221.5 171s53.833 30 68.5 30c17.333 0 36.833 -16.333 58.5 -49s32.5 -57.334 32.5 -74.001c0 -14.667 -9.33301 -33.167 -28 -55.5
s-41.667 -40.166 -69 -53.499c-30.667 -13.333 -83.667 -48.333 -159 -105z" />
    <glyph glyph-name="ocircumflex" unicode="&#xf4;" horiz-adv-x="1154" 
d="M1057 507c-44.667 -156 -129.499 -287.498 -254.499 -394.498s-249.833 -160.5 -374.5 -160.5c-98.667 0 -180 36.167 -244 108.5s-96 161.166 -96 266.499c0 172 58.667 341.333 176 508s259.666 250 426.999 250c114 0 206.333 -42.167 277 -126.5
s106 -184.833 106 -301.5c0 -50.667 -5.66699 -100.334 -17 -149.001v-1zM537.001 823.002c-46.667 -41.333 -92.333 -107.333 -137 -198s-67 -181.667 -67 -273c0 -55.333 10.167 -101 30.5 -137s47.166 -54 80.499 -54c82.667 0 168.667 49 258 147s134 208 134 330
c0 68.667 -14.5 125.167 -43.5 169.5s-69.5 66.5 -121.5 66.5c-49.333 0 -93.666 -17 -132.999 -51h-1zM744.002 1482c-26 -25.333 -47.999 -48.335 -65.999 -69.002c-18.667 -21.333 -36.334 -40.333 -53.001 -57h1c-7.33301 -10 -24 -26.667 -50 -50
c-27.333 -25.333 -62 -60.333 -104 -105c-24.667 -26 -52.667 -39 -84 -39c-24 0 -42 5.5 -54 16.5s-18 38.833 -18 83.5c0 37.333 21 73.333 63 108c10 8.66699 19 17 27 25l73 71c42.667 40.667 83.334 85 122.001 133c70.667 88 127.334 132 170.001 132
c45.333 0 99.666 -64.667 162.999 -194c17.333 -33.333 35 -60.666 53 -81.999c3.33301 -3.33301 10.666 -13 21.999 -29c24.667 -36 54 -71.333 88 -106c22.667 -23.333 36.834 -41 42.501 -53s8.5 -28 8.5 -48c0 -21.333 -10 -42.5 -30 -63.5s-43.333 -31.5 -70 -31.5
c-44 0 -92.667 41 -146 123c-8.66699 14.667 -30.334 43.334 -65.001 86.001c-48.667 59.333 -79.667 109 -93 149z" />
    </font>
</defs>
</svg>
